/* XPM */
static char *coin_8__1_1705328643[] = {
/* columns rows colors chars-per-pixel */
"60 60 235 2 ",
"   c None",
".  c black",
"X  c #130406",
"o  c #140505",
"O  c #140606",
"+  c #1B0D03",
"@  c #1C0D03",
"#  c #1D0D03",
"$  c #1C0C04",
"%  c #1D0E04",
"&  c #1D0F04",
"*  c #1E1305",
"=  c #1C1206",
"-  c #1E1406",
";  c #1E190A",
":  c #1C1A0A",
">  c #1D1B0B",
",  c #1E1B0B",
"<  c #1E1B0D",
"1  c #1E1E1C",
"2  c #1E1E1E",
"3  c #371A07",
"4  c #383214",
"5  c #383215",
"6  c #8D202D",
"7  c #8E212C",
"8  c #8E202D",
"9  c #97292B",
"0  c #982F2D",
"q  c #9F2232",
"w  c #A02332",
"e  c #A12432",
"r  c #A02433",
"t  c #A12433",
"y  c #A12533",
"u  c #A22533",
"i  c #A22633",
"p  c #A32633",
"a  c #AB2E30",
"s  c #AC2F30",
"d  c #AD2F31",
"f  c #AC3432",
"g  c #AC3633",
"h  c #AE3633",
"j  c #AB3B38",
"k  c #AC3C38",
"l  c #AC3D38",
"z  c #B54536",
"x  c #B64B38",
"c  c #C25C1A",
"v  c #D05F1F",
"b  c #D9671D",
"n  c #DA681D",
"m  c #DA691D",
"M  c #DA681E",
"N  c #DB681E",
"B  c #DD691E",
"V  c #DA6D1F",
"C  c #F6731F",
"Z  c #DA7324",
"A  c #EC6B23",
"S  c #EC6C24",
"D  c #EE6D24",
"F  c #EE7B2B",
"G  c #F67320",
"H  c #F37421",
"J  c #F67420",
"K  c #F67421",
"L  c #F67521",
"P  c #F77521",
"I  c #F77621",
"U  c #F77622",
"Y  c #F77722",
"T  c #F87521",
"R  c #F87621",
"E  c #F87721",
"W  c #F87622",
"Q  c #F97722",
"!  c #FA7722",
"~  c #F77B22",
"^  c #F77B23",
"/  c #F77C24",
"(  c #FA7821",
")  c #F97D24",
"_  c #D68A2D",
"`  c #DF932B",
"'  c #DF992D",
"]  c #F78227",
"[  c #F88226",
"{  c #F78128",
"}  c #F78228",
"|  c #F78229",
" . c #F78329",
".. c #F7832B",
"X. c #F88229",
"o. c #F98329",
"O. c #F88429",
"+. c #F8872A",
"@. c #F48C2E",
"#. c #F8882A",
"$. c #F8892B",
"%. c #F88D2F",
"&. c #E09A2D",
"*. c #F88F30",
"=. c #F7853A",
"-. c #F7853B",
";. c #F7863C",
":. c #F88B3B",
">. c #F29D33",
",. c #F39D33",
"<. c #F49F34",
"1. c #FCA12F",
"2. c #FCA330",
"3. c #FDA631",
"4. c #FDA731",
"5. c #FDA832",
"6. c #FFA832",
"7. c #FDAC30",
"8. c #FDAC31",
"9. c #FDAD32",
"0. c #FDAD33",
"q. c #FEAD32",
"w. c #FEAD33",
"e. c #FEAE33",
"r. c #FEAF33",
"t. c #FDA934",
"y. c #FEAE34",
"u. c #FEAF34",
"i. c #FFAF34",
"p. c #FDAE37",
"a. c #FEAF36",
"s. c #F4A639",
"d. c #FFB034",
"f. c #FDB338",
"g. c #FEB338",
"h. c #FEB439",
"j. c #FEB539",
"k. c #FEB639",
"l. c #FEB53B",
"z. c #FAB73C",
"x. c #FEBA3E",
"c. c #F89242",
"v. c #C7B54C",
"b. c #DEBF4E",
"n. c #FEB549",
"m. c #FEB649",
"M. c #FEB749",
"N. c #FEB74A",
"B. c #FEB74B",
"V. c #FEB74C",
"C. c #FEBF5F",
"Z. c #DFCB54",
"A. c #DFCB55",
"S. c #DFCC55",
"D. c #E2C250",
"F. c #E3C852",
"G. c #E1CC56",
"H. c #E0CD56",
"J. c #E1CD56",
"K. c #FCCD52",
"L. c #FCCE53",
"P. c #FCCF53",
"I. c #F2CF5B",
"U. c #FDD455",
"Y. c #FEDA56",
"T. c #F3D05B",
"R. c #F4D15B",
"E. c #FBD859",
"W. c #FDD958",
"Q. c #FDD959",
"!. c #FDDA59",
"~. c #FDDA5A",
"^. c #FDDB5A",
"/. c #FEDA5A",
"(. c #FEDB5A",
"). c #FCDE5B",
"_. c #FDDF5B",
"`. c #FDE05A",
"'. c #FEE05A",
"]. c #FEE05B",
"[. c #FEE05C",
"{. c #FEE15C",
"}. c #FFE15C",
"|. c #FDE65E",
" X c #FDE65F",
".X c #FEE65F",
"XX c #DFCD66",
"oX c #FDDC6A",
"OX c #FDDD6D",
"+X c #FDE560",
"@X c #FDE760",
"#X c #FEE660",
"$X c #FEE760",
"%X c #FEE761",
"&X c #FEE763",
"*X c #FEE860",
"=X c #FFE960",
"-X c #FEE861",
";X c #FEE961",
":X c #FFE961",
">X c #FEE862",
",X c #FEE962",
"<X c #FFE962",
"1X c #FFEA62",
"2X c #FFEB62",
"3X c #FFEB63",
"4X c #FEE26C",
"5X c #FEE971",
"6X c #FEE972",
"7X c #FEE973",
"8X c #FEEA74",
"9X c #FFEB74",
"0X c #FFEC74",
"qX c #FEEB81",
"wX c #E0DED0",
"eX c #FEE6CF",
"rX c #FEECD1",
"tX c #FDECD4",
"yX c #FEF2D6",
"uX c #FEF3D9",
"iX c #FEF9DB",
"pX c gray88",
"aX c #E0E0E1",
"sX c #FEEEE4",
"dX c #FEEEE5",
"fX c #FEF0E5",
"gX c #FEF5E6",
"hX c #FEF5E7",
"jX c #FEF5E9",
"kX c #FEF6E9",
"lX c #FEFAEB",
"zX c #FEFCEC",
"xX c #FFFCEC",
"cX c #FEFCEE",
"vX c white",
/* pixels */
"                                                                                                                        ",
"                                                                                                                        ",
"                                                                                                                        ",
"                        . . . . . . . . . . . . . . . . . . . . . . . . . . . . . . . . . . . . . . .                   ",
"                        . . . . . . . . . . . . . . . . . . . . . . . . . . . . . . . . . . . . . . .                   ",
"                        > > > < , > < < > > < < , > > > > < 2 2 2 2 2 2 2 2 2 < > > > < > % # # % % #                   ",
"                  . . > v.H.Z.Z.G.Z.Z.Z.G.Z.Z.Z.G.G.Z.Z.Z.XXwXpXpXpXpXpXpXpXwXXXG.Z.Z.Z.b.Z N b b N c # . .             ",
"                  . . > H.1X$X1X1X1X$X<X1X1X$X<X$X1X1X1X1X0XxXvXvXvXvXvXvXvXxX8X1X1X$X1X/.X.R R R R B % . .             ",
"                  > > 4 D./././.E././.E.W././.E././.E././.oXtXdXsXsXsXsXsXsXtXoXE././.E.L.@. .] ( I B 3 % %             ",
"            . . > v.H.D.@. . . . . . . . . . . . . . . . . .-.;.;.;.;.;.;.;.-. .]  . . .%.L./.L. .I H B N c % . .       ",
"            . . < S.1X/. .C I I G G H I I I C I G G I G G I G G I C C C H I C I G I I G X./.1XE. .I U Q Q N % . .       ",
"            . . > Z.1X/.#./ / ) / / / / ^ ^ / / ^ / / / / / / / / / / / / / / / / ^ I I  ./.$X/. .G U U R b % . .       ",
"            . . > G.1X_.p.3.5.1.3.5.1.5.4.4.4.4.4.4.4.4.3.3.4.4.4.4.4.4.4.4.4.5.3.1./ I  .E.1XE. .G I U U b % . .       ",
"            . . > Z.1X'.h.w.d.w.p.w.d.d.p.w.w.w.w.d.w.p.p.w.w.w.w.w.w.d.w.d.w.w.p.1./ I  .Y.$X/...K I I U b % . .       ",
"            . . > G.$X_.g.w.w.p.w.w.5.5.5.h.h.f.w.d.w.4.4.4.m.N.N.p.w.d.w.d.w.p.p.3./ I  ./. X/.$./ / / ) V % . .       ",
"            . . > G.1X_.h.p.w.w.w.5.] ^ #.U.'.Y.f.w.5.] / :.eXkXrXN.7.w.w.p.d.w.w.3.^ G  .E.1X).p.3.3.3.5.` = . .       ",
"            . . < Z.1X[.h.w.d.w.w.3./ I  ./.$X[.h.p.3./ G -.dXvXhXN.7.w.d.p.p.w.d.4./ I  ./.$X_.f.p.d.d.d.&.- . .       ",
"            . . > Z.1X'.h.w.w.w.d.5.^ I X./.$X[.x.g.p.$.] c.fXvXhXV.0.p.w.w.0.d.w.4./ H ] /.1X).s.,.,.,.<._ = . .       ",
"            . . > Z.1X[.h.w.d.p.w.3.^ I  .E.$X$X[.[._./.Y.OXlXvXhXN.0.0.d.p.w.w.p.3./ I  .E.1XT.x g g g f 0 O . .       ",
"            . . < Z.1X'.h.w.w.w.p.3.^ H  .E.&X$X$X$X$X$X$X8XxXvXhXV.7.7.w.w.d.w.w.3./ G  .W.1XI.j q t t t 8 X . .       ",
"            . . > Z.1X_.h.w.w.5.1.1. . .*._.$X&X$X$X$X&X+X8XiXcXuXC.M.M.d.w.w.p.w.5./ G  ./.1XT.z s s s d 9 O . .       ",
"            . . > G.1X_.h.w.5.[ / $.L.E./. X$X&X&X&X$X$X$X$X5X8XqXuXjXrXN.w.w.d.w.5./ H  .E.$XE.F S S S D v $ . .       ",
"            . . > Z.1X_.h.w.3./ I  ./.1X$X$X$X$X$X$X$X$X$X$X X X7XzXvXhXN.7.w.w.w.4./ I  ./.$X/. .G C ^ R B % . .       ",
"            . . > G.1X_.f.w.5./ I  .W.$X$X$X$X$X[._._.E./._.[. X7XxXvXkXV.7.d.w.d.4./ I  ./.$XE. .I I I R b % . .       ",
"            . . > G.$X_.g.p.5./ G  ./.$X$X$X1X[.M.f.d.$. .*._. X9XzXvXgXV.7.w.p.p.5./ G  ./.$X/. .I I I I b % . .       ",
"            . . > Z.1X_.g.w.3./ I  .E.&X&X$X$X[.f.d.1./ C  ./. X9XxXvXgXV.7.d.w.w.3./ G  .E.1XE. .G I I I b % . .       ",
"            . . > G.1X'.h.w.3./ G ..~.$X$X$X$X[.f.w.5.[ / #.U.'.4XyXhXrXM.7.p.w.w.5./ I  ./.$X/.#./ / / ) N % . .       ",
"            . . < Z.1X[.h.w.3.) G  .E.$X$X&X$X[.f.d.w.5.3.t.d.h.h.N.N.N.p.p.w.p.w.5./ G ] E.1X_.p.3.3.5.3.&.= . .       ",
"            . . > Z.1X[.h.w.3./ I  .E.$X$X$X&X[.h.w.w.w.w.w.w.w.w.5.7.w.w.w.d.w.w.4./ C  .E.1X'.h.w.w.p.p.' - . .       ",
"            . . < Z.$X_.h.p.3./ G ..~.$X&X$X$X[.x.h.h.h.h.h.h.h.z.M.N.N.d.w.w.p.p.4./ I  .Y.$X_.h.w.d.w.d.&.- . .       ",
"            . . > Z.1X[.h.w.3./ G  ./.$X&X$X$X$X[.'._.[.'.).'.'.4XyXkXrXN.7.d.w.w.5./ I  ./.1X'.h.w.w.d.p.' - . .       ",
"            . . < Z.1X'.h.w.5./ K  .~.$X$X$X&X$X$X$X$X$X1X1X$X1X9XxXvXhXV.0.w.w.p.3./ G  .E.1X'.h.w.w.d.d.&.- . .       ",
"            . . > G.1X_.g.w.3.[ / $.U.[.'.[.'.'.[.'.[.E.E./. X X8XlXvXhXV.7.d.w.w.3./ I  .E.1X).s.>.>.>.s._ = . .       ",
"            . . > Z.1X'.h.p.w.5.5.5.d.h.h.h.h.h.h.h.g.#. .*./.$X5XcXvXhXV.0.f.p.w.4./ I  .E.1XI.x f f f f 0 O . .       ",
"            . . > G.$X_.f.w.w.p.p.w.w.p.w.w.w.w.w.w.3.^ C X./.$X8XxXvXhXV.7.d.w.p.4./ I  .W. XT.j q q q w 8 X . .       ",
"            . . > G.1X_.h.w.w.5.3.3.g.h.h.h.h.h.w.p.3./ I X.E.$X8XxXvXhXV.7.w.p.w.5./ C  ./.1XR.z s f s d 9 O . .       ",
"            . . < Z.1X[.h.w.5.[ / +.U.[.[.[.[./.f.w.3./ I  .E.$X5XlXvXgXN.7.d.w.p.3./ G  ./. XE.F A D D D v % . .       ",
"            . . > Z.1X'.h.w.5.) I  .E.$X$X$X$X_.h.w.3.^ G  .E.$X8XxXvXhXV.7.w.w.w.3./ G  .E.1X/. .I I I R N % . .       ",
"            . . > G.1X'.f.w.4./ G  ./.$X$X$X$X_.x.h.g.#. .@._.$X8XxXvXhXV.0.p.p.w.4./ I  .W. XE.F A S D D v $ . .       ",
"            . . > Z.1X'.h.w.4./ G  ./.&X$X$X&X$X'.'._./.E./.$X X5XlXvXhXV.7.w.d.d.4./ G  ./.1XT.z s s s d 9 O . .       ",
"            . . > G.1X_.g.w.3.) C  ./. X1X1X$X$X&X$X$X$X$X$X X X8XxXvXhXV.7.d.w.p.4./ G  ./.1XI.l w y y y 8 X . .       ",
"            . . > Z.1X[.h.p.3.[ / #.L./.E. X$X$X$X$X&X&X$X$X8X9X8XuXhXrXN.7.w.p.w.4.^ I  .E.1XI.l y y y p 7 O . .       ",
"            . . > G.$X_.f.w.w.5.4.1. . .@./.1X$X$X&X$X$X+X5XiXxXuXC.N.m.d.0.d.w.w.4./ H  .E.1XI.l y t t p 7 O . .       ",
"            . . > G.$X_.h.w.p.w.p.3.^ C O./.$X$X$X$X$X$X+X9XxXvXkXV.7.w.p.p.w.p.d.4./ I  ./. XI.l y t t p 8 X . .       ",
"            . . < Z.1X[.h.w.d.w.w.5./ I  .E.$X1X[.'.`.W.Y.OXlXvXkXV.7.p.w.d.w.0.p.3./ G  .Y.1XT.z a d a d 9 O . .       ",
"            . . > Z.1X'.h.w.d.w.w.5./ I  .E.1X[.M.f.f.#.] c.dXvXhXV.7.w.p.w.w.d.w.3./ G  ./.1XE.F A S S D v % . .       ",
"            . . > G.1X_.h.w.p.w.w.5./ I  ./.1X[.f.w.3.^ C -.sXvXhXN.7.p.w.d.w.w.p.4.^ I  ./.$XE.X.I I I R b % . .       ",
"            . . > Z.1X'.h.w.d.w.w.5.] /  .U.[.Y.d.w.5.] ^ :.eXkXrXm.w.p.w.p.d.d.w.4.^ I  .E.$X/. .I U Q Q b % . .       ",
"            . . , G.1X'.h.p.p.w.w.w.5.5.5.f.f.f.w.w.w.5.5.5.N.N.N.d.p.p.w.d.w.w.d.4./ I  .E.$X/. .I U U Q b % . .       ",
"            . . > H.1X'.g.w.w.w.w.w.w.p.w.w.w.w.w.p.w.w.w.w.7.w.7.7.7.7.w.w.7.w.w.3./ C  ./.$X/. .I U Q Q N % . .       ",
"            . . > v.H.F.z.h.h.h.h.h.h.h.h.h.h.h.h.h.g.g.h.h.N.V.V.V.V.N.N.N.N.h.h.p.#. .@.L./.L./ G H N b c % . .       ",
"                  > > 5 F.'.'.[.'.'.[.'.'.'.'.'.[.[.[._.'.4XyXhXhXhXhXhXhXlXyX4X'.[.E./.L.%. . ./ I N 3 + %             ",
"                  . . > H.1X1X1X<X$X1X1X1X1X1X1X1X$X1X1X1X9XxXvXvXvXvXvXvXvXxX9X1X1X1X1X/.X.R R R R b % . .             ",
"                  . . > v.G.Z.G.Z.Z.Z.G.S.Z.Z.Z.G.G.Z.Z.Z.XXwXpXpXpXpXpXpXpXwXXXF.G.Z.Z.D.Z b b b N c % . .             ",
"                        > > > > < < > , > > < < , , > > > < 2 2 2 2 2 2 2 2 2 < > > > > > # # % % % %                   ",
"                        . . . . . . . . . . . . . . . . . . . . . . . . . . . . . . . . . . . . . . .                   ",
"                        . . . . . . . . . . . . . . . . . . . . . . . . . . . . . . . . . . . . . . .                   ",
"                                                                                                                        ",
"                                                                                                                        ",
"                                                                                                                        "
};
