/* XPM */
static char *coin_1__1_1705328572[] = {
/* columns rows colors chars-per-pixel */
"60 60 138 2 ",
"   c None",
".  c black",
"X  c #1C1A0A",
"o  c #1D1B0B",
"O  c #1E1B0B",
"+  c #1E1B0D",
"@  c #1E1E1C",
"#  c #1E1E1E",
"$  c #383214",
"%  c #383215",
"&  c #F6731F",
"*  c #F67320",
"=  c #F67420",
"-  c #F67421",
";  c #F67521",
":  c #F77622",
">  c #F77B22",
",  c #F77B23",
"<  c #F77C24",
"1  c #F78227",
"2  c #F88226",
"3  c #F78228",
"4  c #F78229",
"5  c #F78329",
"6  c #F7832B",
"7  c #F88229",
"8  c #F8872A",
"9  c #F48C2E",
"0  c #F8882A",
"q  c #F8892B",
"w  c #F88F30",
"e  c #F7853A",
"r  c #F7853B",
"t  c #F7863C",
"y  c #F88B3B",
"u  c #FCA12F",
"i  c #FCA330",
"p  c #FDA631",
"a  c #FDA731",
"s  c #FDA832",
"d  c #FDAC30",
"f  c #FDAC31",
"g  c #FDAD32",
"h  c #FDAD33",
"j  c #FEAD32",
"k  c #FEAD33",
"l  c #FEAE33",
"z  c #FDA934",
"x  c #FEAD34",
"c  c #FEAE34",
"v  c #FDAE37",
"b  c #FEAF36",
"n  c #FDB338",
"m  c #FEB338",
"M  c #FEB439",
"N  c #FEB539",
"B  c #FEB53B",
"V  c #FAB73C",
"C  c #FEBA3E",
"Z  c #F89242",
"A  c #C7B54C",
"S  c #FEB549",
"D  c #FEB649",
"F  c #FEB749",
"G  c #FEB74A",
"H  c #FEB74B",
"J  c #FEB74C",
"K  c #FEBF5F",
"L  c #DFCB54",
"P  c #DFCB55",
"I  c #E2C250",
"U  c #E3C852",
"Y  c #E1CC56",
"T  c #E0CD56",
"R  c #E1CD56",
"E  c #FCCE53",
"W  c #FDD455",
"Q  c #FEDA56",
"!  c #FDD958",
"~  c #FDD959",
"^  c #FDDA59",
"/  c #FDDB5A",
"(  c #FEDA5A",
")  c #FEDB5A",
"_  c #FDDF5B",
"`  c #FDE05A",
"'  c #FEE05B",
"]  c #FEE05C",
"[  c #FEE15C",
"{  c #FFE15C",
"}  c #FDE65E",
"|  c #FDE65F",
" . c #DFCD66",
".. c #FDDC6A",
"X. c #FDDD6D",
"o. c #FDE560",
"O. c #FDE760",
"+. c #FEE660",
"@. c #FEE760",
"#. c #FEE661",
"$. c #FEE761",
"%. c #FEE763",
"&. c #FFE960",
"*. c #FEE861",
"=. c #FFE961",
"-. c #FEE862",
";. c #FFE962",
":. c #FFEB62",
">. c #FFEB63",
",. c #FEE26C",
"<. c #FEE971",
"1. c #FEE972",
"2. c #FEE973",
"3. c #FEEA74",
"4. c #FFEB74",
"5. c #FFEC74",
"6. c #FEEB81",
"7. c #E0DED0",
"8. c #FEE6CF",
"9. c #FEECD1",
"0. c #FDECD4",
"q. c #FEF2D6",
"w. c #FEF3D9",
"e. c #FEF9DB",
"r. c gray88",
"t. c #E0E0E1",
"y. c #FEEEE4",
"u. c #FEEEE5",
"i. c #FEF0E5",
"p. c #FEF5E6",
"a. c #FEF5E7",
"s. c #FEF5E9",
"d. c #FEF6E9",
"f. c #FEFAEB",
"g. c #FEFCEC",
"h. c #FFFCEC",
"j. c #FEFCEE",
"k. c white",
/* pixels */
"                                                                                                                        ",
"                                                                                                                        ",
"                                                                                                                        ",
"                  . . . . . . . . . . . . . . . . . . . . . . . . . . . . . . . . . . . . . . . . . .                   ",
"                  . . . . . . . . . . . . . . . . . . . . . . . . . . . . . . . . . . . . . . . . . .                   ",
"                  O O O O O O + O O O O O O O O O O O O O O O O + @ @ @ # @ @ @ # @ + O O O O O O O O                   ",
"            . . O A T P P P P P P P P P P P P P P P P P P P P P  .7.t.t.t.t.r.r.t.7. .L P P P P P T A O . .             ",
"            . . O T ;.;.;.;.;.%.;.;.;.;.;.;.;.;.;.;.;.;.;.;.;.;.5.j.k.k.k.k.k.k.k.j.5.;.;.;.;.;.;.;.T O . .             ",
"            O O $ I / ^ ^ ^ ^ ~ ~ ~ ~ ^ ^ ^ ^ ^ ^ ^ ^ ^ ^ ~ ~ ~ ..0.u.u.u.u.u.y.u.0.X.^ ^ ^ ^ ^ ^ ^ I % O +             ",
"      . . O A T I 9 5 5 5 5 5 5 5 5 5 5 5 5 5 5 5 5 5 5 5 5 5 5 5 r t t t r t t t r 5 5 5 5 5 5 5 7 9 I T A O . .       ",
"      . . O T ;.^ 5 * * = = = = * - = : * * = = * = = = - : * * = = = = = = = = * * = = * * = = = = 7 / >.T O . .       ",
"      . . O P ;.^ q , < < < < < , , < < < < < < < < < < , < < , < < < < < < < < < < < < < , < < , = 7 ^ ;.P O . .       ",
"      . . O P ;._ v p p p s p s z p p p p p s p p p p p z p p p s p s p s u s i p p s p s p s u , * 5 ~ %.P O . .       ",
"      . . O P ;./ B l c c l c c c c c c c c l c l l l c c c c c l l l l l l l l c c c c c c l p < * 5 ~ %.P O . .       ",
"      . . O P ;.{ m l l c c c c c c c c l s p s n B n c c c c c l s s s D F H c l c c c c c l p < : 5 ~ ;.P O . .       ",
"      . . O P ;.[ B l l c c c c c c c c s 2 > 0 W [ Q n c c c c s 2 < y 8.s.9.H l c c c c c l s < = 5 ^ ;.P O . .       ",
"      . . O P ;./ B s c c c c c c c c c s < = 5 ^ %.` m l l l l p , * r u.k.a.H l l l c c c c p , * 5 ~ ;.P O . .       ",
"      . . O P ;.[ B l c c c c c c c c c p < = 5 ^ ;.[ F m m B m v q 7 Z u.k.a.H l l c c c c c s < * 5 ^ ;.P O . .       ",
"      . . O P ;.[ m l c c c c c c c c c s < = 5 ^ O.O._ / [ [ [ _ ^ ~ X.f.k.a.H l c c c c c l p < = 5 ^ ;.P O . .       ",
"      . . O P ;.[ m l c c c c c c c c c p , = 7 ^ O.O.%.;.;.} } O.O.O.2.f.k.a.H d s l c c c c s < = 5 ^ ;.P O . .       ",
"      . . O P ;.[ m l l c c c c c c p p i 0 7 w ( O.O.%.;.O.O.O.O.O.#.<.i.j.w.E H H c l l c c p < * 6 ^ ;.P O . .       ",
"      . . O P ;.[ m l l c c c c c z 5 , 5 E ^ ^ O.%.O.O.} O.%.O.%.O.#.%.<.2.6.w.a.9.H g c c l s < : 5 ^ ;.P O . .       ",
"      . . O P ;./ B l l c c c c c p < = 5 / ;.O.O.O.O.O.%.O.O.O.O.O.#.#.} } 1.j.k.a.H g c c c s , * 5 ~ ;.P O . .       ",
"      . . O P ;.[ n l c c c c c c p < = 5 / O.O.O.%.O.{ { _ ^ ( ^ #.O.O.O.O.1.g.k.a.H g c c c i < * 5 ~ ;.P O . .       ",
"      . . O P ;.[ m l l l l c c c p , - 7 ~ O.O.O.%.{ F m c 0 1 9 / ;.O.O.O.1.g.k.a.H f c c c s < : 5 ~ %.P O . .       ",
"      . . O P ;.[ B l l c c c c c z , - 7 ^ %.%.O.O._ B j a < & 5 ^ ;.O.O.O.5.j.k.a.J l c c c p , - 5 ~ %.P O . .       ",
"      . . O P ;./ B l c c c c c c p , : 5 ^ O.O.%.%._ n l s 2 < 5 W { { { / ,.q.s.9.H l c c c s , - 6 ~ ;.P O . .       ",
"      . . O P ;.[ n l c c c c c c p , * 5 ^ %.O.O.O._ n l l s s f n B c n B B F H H c l c c c p < : 5 ~ ;.P O . .       ",
"      . . O P ;./ B l c c c c c c s < = 5 ^ O.O.O.O.[ n l l l l l l s l l l l g d d s l c c c p < * 5 ^ ;.P O . .       ",
"      . . O P ;.[ n l l c c c c c p < = 5 ^ O.%.O.O.{ C c B n B B n B B c B B F H H c l c c c p < * 5 ^ ;.P O . .       ",
"      . . O P ;._ B c c c c c c c p < : 7 ^ O.O.O.%.O.{ [ [ [ / _ { _ { { ` ,.q.s.9.H l c c c p < = 5 ^ ;.P O . .       ",
"      . . O P ;._ n l c c c c c c z < * 7 ^ %.%.O.O.O.;.} | ;.;.;.O.O.O.;.O.1.g.k.a.H g c c c z , : 5 ^ ;.P O . .       ",
"      . . O P ;.[ B l c c c c c c p 1 < 0 W { _ { / [ [ { / / ^ / O.O.O.O.O.2.f.k.a.H f c c c i < - 6 ^ %.P O . .       ",
"      . . O P ;.[ m l c c c c c c l p p s n n n n B m B B c 0 5 w / O.O.O.O.2.f.k.a.H l c c c s , - 6 ^ ;.P O . .       ",
"      . . O P ;.[ B l l c c c c l c c c c l l l l l l l c p , * 7 ^ O.%.O.O.1.j.k.a.H l c c c s , : 5 ~ ;.P + . .       ",
"      . . O P ;.[ c l l c c c c c c z p s n n B B B c l c p < = 7 ( O.O.O.O.1.j.k.a.H l c c l p , * 5 ~ ;.P O . .       ",
"      . . O P ;.[ B l c c c c c c z 2 , q W { { [ [ Q m j a < = 5 ^ O.%.O.O.3.f.k.a.J g c c c s < : 5 ~ ;.P O . .       ",
"      . . O P ;./ B s c c c c c c p , = 5 ( O.O.O.} [ m l a < & 5 ^ O.%.O.O.3.f.k.a.J g c c l p < = 5 ^ ;.P O . .       ",
"      . . O P ;.[ m l c c c c c c p , * 5 ^ O.O.O.O.{ F m c q 5 w ( O.O.O.#.2.f.k.a.J g c c c s < = 5 ^ ;.P O . .       ",
"      . . O P ;.[ m l c c c c c c z < * 5 ~ O.O.O.O.O.{ [ / / Q ( O.%.O.O.#.2.f.k.a.H l c c l p < * 5 ^ ;.P O . .       ",
"      . . O P ;.[ m l c c c c c c p < = 5 ^ ;.O.O.O.O.O.O.O.O.} O.O.O.O.} ..2.j.k.a.H g l c c i , : 6 ~ %.P O . .       ",
"      . . O P ;.[ m l l c c c c c s 2 , 7 E ^ / O.O.%.%.%.O.O.;.%.O.O.O.,.2.6.w.a.9.H g c c c s , - 5 ^ %.P O . .       ",
"      . . O P ;.[ m l l c c c c c l s p p 5 5 w ( %.O.O.O.O.| ;.O.O.} 1.e.j.q.E H D c l c c c s , : 5 ~ ;.P O . .       ",
"      . . O P ;.[ m l l c c c c c c c c s < = 5 ^ O.%.O.O.%.;.| O.%.;.1.j.k.a.H d g l l c c l p , * 5 ^ ;.P O . .       ",
"      . . O P ;.[ B l c c c c c c c c c s < = 5 ^ %.O._ / [ [ [ _ ^ ^ X.f.k.a.H l c c c c c c s < = 6 ^ ;.P O . .       ",
"      . . O P ;./ B s c c c c c c c c c s < = 7 ~ O.[ F B B m m v q 7 Z i.k.a.H g c c c c c l p < = 5 ^ ;.P O . .       ",
"      . . O L ;.[ m l c c c c c c c l l s < ; 7 / | ` m s c l l p > * r y.k.a.H g l c c c c c s < = 5 ^ ;.P O . .       ",
"      . . O P ;.[ m l c c c c c c c c l s 2 > 0 W [ Q m l l l l p 2 > y 8.s.9.H g c c c c c l p < = 5 ^ ;.P O . .       ",
"      . . O P ;.[ m l l l c l l c c l l l s s s c B m l l c l l c p s s H F H c l l l c c c l p < = 5 ^ ;.T O . .       ",
"      . . O T :.[ m l l l l l l l l l l l s l l l l l l l l l l c l s l l a j l l l l s l l l p , = 7 ^ %.T O . .       ",
"      . . O A T U V B B n B n B n B B m m B B c m m m B n B B m B H H H H H H H F F B B B B m c 0 5 9 I T A O . .       ",
"            O O $ U [ { _ _ [ / { / [ [ [ [ [ { [ [ [ [ { / [ [ ,.q.a.a.a.a.a.a.a.q.,.[ / [ [ [ ^ ^ I % O O             ",
"            . . O P :.;.;.;.;.;.;.;.;.;.;.;.;.;.;.;.;.;.;.;.;.| 1.j.k.k.k.k.k.k.k.j.1.| ;.;.;.;.;.>.P O . .             ",
"            . . O A T P P P P P P P P P L L P P P P P P P P P P  .7.t.t.r.r.r.r.t.7. .T P P P T P T A O . .             ",
"                  O O O O O O O O O O O O O O O O O O O O O O O O @ # # @ @ @ @ @ @ + O + O O O O O O                   ",
"                  . . . . . . . . . . . . . . . . . . . . . . . . . . . . . . . . . . . . . . . . . .                   ",
"                  . . . . . . . . . . . . . . . . . . . . . . . . . . . . . . . . . . . . . . . . . .                   ",
"                                                                                                                        ",
"                                                                                                                        ",
"                                                                                                                        "
};
