/* XPM */
static char *coin_9__1_1705328651[] = {
/* columns rows colors chars-per-pixel */
"60 60 138 2 ",
"   c None",
".  c black",
"X  c #1C1A0A",
"o  c #1D1B0B",
"O  c #1E1B0B",
"+  c #1E1B0D",
"@  c #1E1E1C",
"#  c #1E1E1E",
"$  c #383214",
"%  c #383215",
"&  c #F6731F",
"*  c #F67320",
"=  c #F67420",
"-  c #F67421",
";  c #F67521",
":  c #F77622",
">  c #F77B22",
",  c #F77B23",
"<  c #F77C24",
"1  c #F78227",
"2  c #F88226",
"3  c #F78228",
"4  c #F78229",
"5  c #F78329",
"6  c #F7832B",
"7  c #F88229",
"8  c #F8872A",
"9  c #F48C2E",
"0  c #F8882A",
"q  c #F8892B",
"w  c #F88F30",
"e  c #F7853A",
"r  c #F7853B",
"t  c #F7863C",
"y  c #F88B3B",
"u  c #FCA12F",
"i  c #FCA330",
"p  c #FDA631",
"a  c #FDA731",
"s  c #FDA832",
"d  c #FDAC30",
"f  c #FDAC31",
"g  c #FDAD32",
"h  c #FDAD33",
"j  c #FEAD32",
"k  c #FEAD33",
"l  c #FEAE33",
"z  c #FDA934",
"x  c #FEAD34",
"c  c #FEAE34",
"v  c #FDAE37",
"b  c #FEAF36",
"n  c #FDB338",
"m  c #FEB338",
"M  c #FEB439",
"N  c #FEB539",
"B  c #FEB53B",
"V  c #FAB73C",
"C  c #FEBA3E",
"Z  c #F89242",
"A  c #C7B54C",
"S  c #FEB549",
"D  c #FEB649",
"F  c #FEB749",
"G  c #FEB74A",
"H  c #FEB74B",
"J  c #FEB74C",
"K  c #FEBF5F",
"L  c #DFCB54",
"P  c #DFCB55",
"I  c #E2C250",
"U  c #E3C852",
"Y  c #E1CC56",
"T  c #E0CD56",
"R  c #E1CD56",
"E  c #FCCE53",
"W  c #FDD455",
"Q  c #FEDA56",
"!  c #FDD958",
"~  c #FDD959",
"^  c #FDDA59",
"/  c #FDDB5A",
"(  c #FEDA5A",
")  c #FEDB5A",
"_  c #FDDF5B",
"`  c #FDE05A",
"'  c #FEE05B",
"]  c #FEE05C",
"[  c #FEE15C",
"{  c #FFE15C",
"}  c #FDE65E",
"|  c #FDE65F",
" . c #DFCD66",
".. c #FDDC6A",
"X. c #FDDD6D",
"o. c #FDE560",
"O. c #FDE760",
"+. c #FEE660",
"@. c #FEE760",
"#. c #FEE661",
"$. c #FEE761",
"%. c #FEE763",
"&. c #FFE960",
"*. c #FEE861",
"=. c #FFE961",
"-. c #FEE862",
";. c #FFE962",
":. c #FFEB62",
">. c #FFEB63",
",. c #FEE26C",
"<. c #FEE971",
"1. c #FEE972",
"2. c #FEE973",
"3. c #FEEA74",
"4. c #FFEB74",
"5. c #FFEC74",
"6. c #FEEB81",
"7. c #E0DED0",
"8. c #FEE6CF",
"9. c #FEECD1",
"0. c #FDECD4",
"q. c #FEF2D6",
"w. c #FEF3D9",
"e. c #FEF9DB",
"r. c gray88",
"t. c #E0E0E1",
"y. c #FEEEE4",
"u. c #FEEEE5",
"i. c #FEF0E5",
"p. c #FEF5E6",
"a. c #FEF5E7",
"s. c #FEF5E9",
"d. c #FEF6E9",
"f. c #FEFAEB",
"g. c #FEFCEC",
"h. c #FFFCEC",
"j. c #FEFCEE",
"k. c white",
/* pixels */
"                                                                                                                        ",
"                                                                                                                        ",
"                                                                                                                        ",
"                  . . . . . . . . . . . . . . . . . . . . . . . . . . . . . . . . . . . . . . . . . .                   ",
"                  . . . . . . . . . . . . . . . . . . . . . . . . . . . . . . . . . . . . . . . . . .                   ",
"                  O O O O O O + O O O O O O O O O O O O O + # # # # # # # @ @ O O O O O O O O O O O O                   ",
"            . . O A T P P P P P P P P P P P P P P P P P L  .7.r.r.r.r.r.r.r.7. .P P P P P P P P P T A O . .             ",
"            . . O T ;.;.;.;.;.%.;.;.;.;.;.;.;.;.;.;.;.;.;.5.h.k.k.k.k.k.k.k.j.5.;.;.;.;.;.;.;.;.;.;.T O . .             ",
"            O O $ I / ^ ^ ^ ^ ~ ~ ^ ^ ^ ^ ^ ^ ^ ^ ^ ^ ^ ^ ..0.u.u.y.y.u.y.u.0...~ ^ ^ ^ ^ ^ ^ ^ ^ ^ I % O O             ",
"      . . O A T I 9 5 5 5 5 5 5 5 5 5 6 5 5 5 5 5 5 5 5 5 6 r t t t r t t r r 5 5 5 5 6 5 5 5 5 5 7 9 I T A O . .       ",
"      . . O T ;.^ 5 * * = = = = * * = - * * = = * = = = = = * * = = = = = = = = * * = - * * = = = = 7 / ;.T O . .       ",
"      . . O P ;.^ q , < < < < < < , < < < < < < < < < < < < < , < < < < < < < < < , < < < , < > , = 7 ^ ;.P O . .       ",
"      . . O P ;._ v p p p s p s s s p p p p s p s p p p s p p p p p s p p p s i s p p p p s p u , * 5 ~ %.Y O . .       ",
"      . . O P ;./ B l c c l c c c c c c l l l c l l c c c c c c l l l l l l l l c c c c c c l s < * 5 ^ ;.P O . .       ",
"      . . O P ;.{ m l l c c c c c c c c l s p s m B m c c c c c l s p s F H H c c c c c c c l s < - 6 ^ ;.P + . .       ",
"      . . O P ;.[ B l l c c c c c c c c s 1 > 0 W [ Q m c c c c s 1 < y 8.s.9.H c c c c c c l p < = 5 ^ ;.P O . .       ",
"      . . O P ;./ B l c c c c c c c c c p < = 5 ^ %.` B l c l l i < = r i.k.p.H g c c c c c c s , * 5 ~ ;.P O . .       ",
"      . . O P ;.[ m l c c c c c c c c c s < = 5 ~ ;.{ C m m m B v 0 1 Z i.k.p.H g c c c c c c p < * 5 ^ ;.P O . .       ",
"      . . O P ;.[ B l c c c c c c c c c p < * 5 ~ $.$.{ [ [ / [ ` ~ ~ X.f.k.p.H g c c c c c l s < = 5 ^ ;.P O . .       ",
"      . . O P ;.[ m l c c c c c c c c c p , * 5 ~ $.$.$.| $.$.;.o.;.o.1.j.k.p.H g g l c c c l p < = 5 ^ ;.P O . .       ",
"      . . O P ;.[ m l l c c c c c c p p i q 5 w ^ $.$.$.$.$.$.$.;.o.| 4.e.g.w.K H H c l c c c s < - 6 ^ ;.P O . .       ",
"      . . O P ;.[ b l l c c c c c s 5 , 5 E ^ ^ $.$.$.$.$.$.$.$.o.;.$.$.1.1.6.w.i.9.H g c c l s < - 5 ^ ;.P O . .       ",
"      . . O L ;./ B l c c c c c c p < = 5 ^ ;.$.$.| $.$.$.$.$.$.;.o.$.o.o.| 1.g.k.p.J g c c c s , * 5 ^ ;.P O . .       ",
"      . . O L ;.[ B l c c c c c c p < = 5 ^ ;.$.$.$.| [ [ _ ~ ~ ~ o.$.;.O.| 1.g.k.p.J g c c c i < * 5 ~ ;.P O . .       ",
"      . . O P ;./ m l l c c c c c p < = 5 ~ $.$.$.$.[ C m b 0 5 w _ $.$.$.| 1.g.k.p.F s c c c s < - 5 ~ %.P + . .       ",
"      . . O P ;.[ B l l c c c c c s < = 5 ~ $.$.$.$.[ m l u < = 1 ~ ;.| ;.| 1.h.k.p.J l c c c p < - 5 ^ %.T O . .       ",
"      . . O P ;.{ B l c c c c c c p , = 5 ~ $.$.$.$./ B l s 1 < 0 W / [ [ _ ,.q.s.9.H l c c c s < - 6 ^ ;.P O . .       ",
"      . . O P ;./ m l l c c c c c p > * 5 ~ $.$.$.$.[ B l l s a s m m B m B B F H H c c c c c p < - 5 ^ ;.P O . .       ",
"      . . O P ;.[ m l l c c c c c p < = 5 ~ $.$.$.$.[ B l l l l l l l l l l l d l d l l c c c s , * 5 ~ ;.P O . .       ",
"      . . O P ;.[ B l l c c c c c s < = 5 ~ $.$.$.| [ C b B b B B m m m B b B H H H b s c c c p < * 5 ^ ;.P O . .       ",
"      . . O P ;./ B c c c c c c c p < - 5 ^ $.$.$.$.| { [ [ [ [ / [ [ [ [ ` ,.q.p.9.H l c c c p < = 5 ^ ;.P O . .       ",
"      . . O P ;.{ m l c c c c c c z < - 5 ^ ;.$.$.$.$.| | ;.;.| ;.$.| $.$.| 4.j.k.p.H g c c c s < = 5 ^ ;.P O . .       ",
"      . . O P ;.[ B l l c c c c c i 1 < 0 W [ [ / [ [ [ [ / / ^ / | ;.$.$.| 1.f.k.p.J g c c c i < - 6 ^ %.Y O . .       ",
"      . . O P ;.[ m l l c c c c c l s s s m m B m B m m B v 0 5 w / $.$.$.| 1.f.k.p.J g c c b s < - 5 ^ ;.P O . .       ",
"      . . O P ;.[ B l l c c c c l c c c l l l l l l l l c p , * 5 ^ $.$.$.| 4.j.k.p.J g c c l s , - 5 ~ ;.P + . .       ",
"      . . O P ;.[ b l l c c c c c c s p s B b B m B b l c p < = 5 ^ $.$.| } 4.f.k.p.J g c l l s , * 5 ^ ;.P O . .       ",
"      . . O P ;./ B s c c c c c c s 1 > 0 W { { [ [ Q b l s < = 5 ~ $.$.$.$.4.f.k.p.J g c c c i < = 6 ^ ;.P O . .       ",
"      . . O P ;.[ B c c c c c c l s < = 5 ~ $.$.| | [ B l u > = 5 ~ $.$.$.| 4.j.k.p.J g c c b s < = 5 ^ ;.P O . .       ",
"      . . O P ;.[ m l c c c c c c s < = 5 ~ $.$.;.$.[ C B c 0 1 9 ^ $.$.$.| 4.f.k.p.J g c l l s < = 5 ^ ;.P O . .       ",
"      . . O P ;.[ m l c c c c c b i < = 5 ~ $.$.$.$.| [ [ [ ^ ^ ^ $.$.$.$.| 1.f.k.p.H l c l l s , * 5 ^ ;.P O . .       ",
"      . . O P ;.[ m l l c c c c c p < = 5 ^ ;.$.$.| $.$.$.$.$.$.$.$.$.$.o.o.4.h.k.p.H g l c c i < - 6 ^ %.Y O . .       ",
"      . . O P ;.[ m l l c c c c c s 1 > 5 E ^ / | $.$.$.$.$.$.$.$.$.$.o.2.3.3.w.s.9.H g l c c s < - 5 ^ ;.P O . .       ",
"      . . O P ;.[ m l l c c c c c l s s p 5 5 w ^ $.$.$.$.$.$.$.$.$.o.4.e.j.w.K H F b l c c c s , - 5 ^ ;.P + . .       ",
"      . . O P ;.[ m l l c c c c c c c c s > = 5 ^ $.$.$.$.$.$.$.$.$.O.2.g.k.p.H s g l l c l l s , * 5 ^ ;.P O . .       ",
"      . . O P ;./ B s c c c c c c c c c i < = 5 ^ $.$._ { _ { [ _ ~ ~ X.f.k.p.J l c c c c c c p < - 6 ^ %.P O . .       ",
"      . . O P ;.[ B c c c c c c c c c c s < = 5 ~ $.{ C m m m B v 0 1 Z u.k.p.H g c c c c c l s < = 5 ^ :.P O . .       ",
"      . . O L ;.[ m l c c c c c c c c c s < = 5 ~ ;._ B l l l l i > & r y.k.p.H g l c c c c c p < = 5 ^ ;.P O . .       ",
"      . . O L ;.[ m l c c c c c c c c c s 1 < 0 W { Q b l c c c s 1 < y 8.s.9.H g c c c c c l s < = 5 ^ ;.P O . .       ",
"      . . O P ;.[ m l l l c l l l c l l l p p s m B b l l l c c l s i s H H H c l l l c c c c s < = 5 ~ %.P O . .       ",
"      . . O T :.[ m l l s l l l l l l l l l l l l l l l l l l l l l l l l d s l l l l l l l l p > * 5 _ %.P O . .       ",
"      . . O A T U V B B B b B m m m B B m B m B m m B m B B F F H H H J J F F B b m m B m m B b q 5 q I T A O . .       ",
"            O O $ U [ { [ [ [ [ _ { / [ [ [ [ / [ [ / [ / ,.q.p.p.p.p.p.p.p.q.,.[ [ [ [ _ { [ / ^ ^ I $ O O             ",
"            . . O P :.;.;.;.;.;.;.;.;.;.;.;.;.;.;.;.;.;.| 4.h.k.k.k.k.k.k.k.j.4.| ;.;.;.;.;.;.;.>.>.P O . .             ",
"            . . O A T P P P P P P P P P L L P P P T P P T  .7.r.r.r.r.r.r.r.7. .P P P P P P P P P R A O . .             ",
"                  O O O O O O O O O O O O O O O O O O O O O # # # # # # # # @ + O O O O O O O O O O O                   ",
"                  . . . . . . . . . . . . . . . . . . . . . . . . . . . . . . . . . . . . . . . . . .                   ",
"                  . . . . . . . . . . . . . . . . . . . . . . . . . . . . . . . . . . . . . . . . . .                   ",
"                                                                                                                        ",
"                                                                                                                        ",
"                                                                                                                        "
};
