/* XPM */
static char *coin_5__1_1705328619[] = {
/* columns rows colors chars-per-pixel */
"60 60 156 2 ",
"   c None",
".  c black",
"X  c #130405",
"o  c #130406",
"O  c #140505",
"+  c #140606",
"@  c #1C0D03",
"#  c #1D0D03",
"$  c #1D0E03",
"%  c #1C0C04",
"&  c #1D0E04",
"*  c #140708",
"=  c #1E1305",
"-  c #1D1007",
";  c #1C1206",
":  c #1E1406",
">  c #1E1509",
",  c #1D1B1B",
"<  c #1E1C1B",
"1  c #1E1D1B",
"2  c #1D1D1D",
"3  c #1E1E1E",
"4  c #8D1E2A",
"5  c #8D1F2B",
"6  c #8D202D",
"7  c #8E212C",
"8  c #8E202D",
"9  c #97292B",
"0  c #982F2D",
"q  c #9F2231",
"w  c #AB2D2F",
"e  c #A02230",
"r  c #A12230",
"t  c #A02331",
"y  c #A12331",
"u  c #A12431",
"i  c #A02432",
"p  c #A12532",
"a  c #A02433",
"s  c #A12433",
"d  c #A12533",
"f  c #A22533",
"g  c #A22633",
"h  c #A32633",
"j  c #A32935",
"k  c #AC2F30",
"l  c #AD2F31",
"z  c #AC3431",
"x  c #AC3633",
"c  c #AE3633",
"v  c #AC3134",
"b  c #C25C1A",
"n  c #D05F1F",
"m  c #D9661A",
"M  c #D9671C",
"N  c #D9671D",
"B  c #DB671C",
"V  c #DA681D",
"C  c #DA691D",
"Z  c #DB681E",
"A  c #DA6D1F",
"S  c #F6741E",
"D  c #F8741E",
"F  c #DA7635",
"G  c #EC6B22",
"H  c #EC6C24",
"J  c #EE6D24",
"K  c #F67420",
"L  c #F67520",
"P  c #F77520",
"I  c #F67521",
"U  c #F77621",
"Y  c #F77622",
"T  c #F77725",
"R  c #F87520",
"E  c #F87620",
"W  c #F87721",
"Q  c #FA7620",
"!  c #F87622",
"~  c #F97722",
"^  c #FA7722",
"/  c #F77B22",
"(  c #F77C24",
")  c #FA7821",
"_  c #F97D24",
"`  c #ED7A3B",
"'  c #EF7D3E",
"]  c #983842",
"[  c #AB3C48",
"{  c #AB3E4B",
"}  c #AC3D48",
"|  c #AC3F4B",
" . c #AE404C",
".. c #B64849",
"X. c #B64E4B",
"o. c #D68A2D",
"O. c #DF932B",
"+. c #DF992D",
"@. c #E0992C",
"#. c #E09A2D",
"$. c #F78439",
"%. c #F7853C",
"&. c #F7863C",
"*. c #F8863C",
"=. c #F9873C",
"-. c #F9873D",
";. c #F88B3B",
":. c #F88C3E",
">. c #F29D32",
",. c #F39D33",
"<. c #F49F34",
"1. c #FDA630",
"2. c #FDA731",
"3. c #FFA832",
"4. c #FDAD32",
"5. c #FEAD32",
"6. c #FEAE32",
"7. c #FFAF32",
"8. c #FEAF33",
"9. c #FDA934",
"0. c #FEAE34",
"q. c #FEAF34",
"w. c #FFAF34",
"e. c #FFB034",
"r. c #DFA143",
"t. c #F4A94C",
"y. c #FDB14A",
"u. c #FEB549",
"i. c #FEB74C",
"p. c #FEB84C",
"a. c #FFB94C",
"s. c #C8C8C8",
"d. c #D6C9CB",
"f. c #DFD2C9",
"g. c #E0D8CB",
"h. c #F3D6CF",
"j. c #EACED1",
"k. c #FDE0CD",
"l. c #FEE6CF",
"z. c gray88",
"x. c #E2E3E3",
"c. c #F3E4E6",
"v. c #F3E5E6",
"b. c #F5E6E6",
"n. c #F5E7E6",
"m. c #FCEDE4",
"M. c #FEEEE4",
"N. c #FEEFE4",
"B. c #F5E7E9",
"V. c #F6E8E9",
"C. c #FFF1E7",
"Z. c #FDF3E6",
"A. c #FEF4E6",
"S. c #FEF5E6",
"D. c #FFF8EA",
"F. c white",
/* pixels */
"                                                                                                                        ",
"                                                                                                                        ",
"                                                                                                                        ",
"                                          . . . . . . . . . . . . . . . . . .                                           ",
"                                          . . . . . . . . . . . . . . . . . .                                           ",
"                                          @ & & & & & & & & & & @ @ @ = 3 3 3                                           ",
"                                    . . @ b Z N N N N N N N N N N N N F f.z.s., . .                                     ",
"                                    . . & Z ^ ^ Y ^ Y Y ^ Y Y ^ Y ^ ^ =.M.F.z.3 . .                                     ",
"                                    . . @ N ^ Y Y Y Y Y Y Y Y Y Y Y S &.h.S.g., . .                                     ",
"                                    . . & N Y Y Y Y Y Y Y Y Y Y Y Y I T =.;.F & . .                                     ",
"                                    . . & N Y Y Y Y Y Y Y Y Y Y Y Y Y I D D m @ . .                                     ",
"                                    . . & N Y Y Y Y Y Y Y Y Y Y Y Y I Y $.=.F & . .                                     ",
"                                    . . & N Y Y Y Y Y Y Y Y Y Y Y Y S &.h.M.g., . .                                     ",
"                                    . . & N Y Y I I I Y Y Y Y K Y Y I &.Z.F.z.3 . .                                     ",
"                                    . . & A ( ( ( ( ( ( ( ( / ( / ( / ;.l.D.g.3 . .                                     ",
"                                    . . = O.3.9.1.1.1.9.1.1.1.1.2.2.3.3.u.a.r.> . .                                     ",
"                                    . . > #.e.9.9.e.0.0.q.q.q.q.q.q.q.q.4.4.+.= . .                                     ",
"                                    . . ; o.1.>.>.<.,.9.,.,.,.,.<.<.>.>.<.<.o.= . .                                     ",
"                                    . . O 0 x x x x x x x x x x x x x x x x 0 O . .                                     ",
"                                    . . o 8 f q q q q q q q q q f q d q y y 4 o . .                                     ",
"                                    . . O 9 l l k k k k x v j v k k k v {  .] * . .                                     ",
"                                    . . & n J G H H H G H H H J H J G ` h.B.d., . .                                     ",
"                                    . . & N ^ Y Y Y Y Y Y Y / Y S Y S =.m.F.z.3 . .                                     ",
"                                    . . & N Y Y Y Y Y Y Y Y Y Y Y Y Y =.m.F.z.3 . .                                     ",
"                                    . . & N Y Y Y Y Y Y Y Y Y Y Y Y S %.M.F.z.3 . .                                     ",
"                                    . . & N Y Y S Y Y Y I I I I Y Y K %.M.F.z.3 . .                                     ",
"                                    . . & Z _ ( ( ( ( ( ( / / ( ( ( / :.M.F.z.3 . .                                     ",
"                                    . . : O.9.1.1.1.9.1.1.9.1.1.2.2.2.y.Z.F.z.3 . .                                     ",
"                                    . . ; +.e.q.q.4.q.e.9.9.e.e.q.5.3.p.S.F.z.3 . .                                     ",
"                                    . . ; +.q.q.q.e.4.e.e.e.9.e.q.q.4.p.S.F.z.3 . .                                     ",
"                                    . . > +.q.q.q.q.4.9.e.e.e.e.q.q.4.i.S.F.z.3 . .                                     ",
"                                    . . > +.q.q.q.q.q.q.e.9.e.e.q.e.4.p.S.F.z.3 . .                                     ",
"                                    . . = o.<.<.<.>.>.>.<.>.<.<.<.<.>.t.Z.F.z.3 . .                                     ",
"                                    . . o 0 x x x x x x z z z x z x v X.n.F.z.3 . .                                     ",
"                                    . . o 8 d d q y y s d d q q q q q { c.F.z.3 . .                                     ",
"                                    . . o 9 v w v w l l w v v k v k w ..n.F.z.3 . .                                     ",
"                                    . . + N J G J H G H H H J H H H G ' m.F.z.3 . .                                     ",
"                                    . . @ Z ) ) Y Y / ) Y ^ D / S / S =.m.F.z.3 . .                                     ",
"                                    . . & n J G G G G G H G J H J H H ' m.F.z.3 . .                                     ",
"                                    . . o 9 v k v w v k w k v w v w w ..n.F.z.3 . .                                     ",
"                                    . . o 8 h d j q d d d d d d h q q  .c.F.z.3 . .                                     ",
"                                    . . o 8 h d d h h h h h h d h h d [ j.B.d.3 . .                                     ",
"                                    . . o 7 d h h h d d h h d d h q d h [  .] O . .                                     ",
"                                    . . o 8 d d q q j q j q d d q h d d r r 4 o . .                                     ",
"                                    . . o 9 k k z v k k k k k k z v k v }  .] * . .                                     ",
"                                    . . & n J G H H H H H H H H H H G ' h.B.d., . .                                     ",
"                                    . . & N ^ Y / S Y Y Y S Y Y S Y S &.M.F.z.3 . .                                     ",
"                                    . . & N ^ Y Y Y Y Y Y Y Y Y / Y S &.M.F.z.3 . .                                     ",
"                                    . . & N Y Y Y Y Y Y Y Y Y Y Y Y K %.M.F.z.3 . .                                     ",
"                                    . . & Z Y Y Y Y Y Y Y Y Y Y Y Y K %.M.F.z.3 . .                                     ",
"                                    . . @ N ^ Y Y Y Y Y Y Y Y Y Y Y Y $.k.C.f., . .                                     ",
"                                    . . & N Y Y Y Y Y Y Y Y Y Y Y Y Y Y &.%.F = . .                                     ",
"                                    . . & Z ^ ^ ^ Y Y ^ ^ Y Y ^ Y ^ ^ ^ Y D B & . .                                     ",
"                                    . . @ b N N N N N N N N N N N N N N N N b @ . .                                     ",
"                                          & & & & & & & & & & & & & & & & & @                                           ",
"                                          . . . . . . . . . . . . . . . . . .                                           ",
"                                          . . . . . . . . . . . . . . . . . .                                           ",
"                                                                                                                        ",
"                                                                                                                        ",
"                                                                                                                        "
};
