/* XPM */
static char *coin_3__1_1705328602[] = {
/* columns rows colors chars-per-pixel */
"60 60 240 2 ",
"   c None",
".  c black",
"X  c #130406",
"o  c #140505",
"O  c #140606",
"+  c #1B0C03",
"@  c #1B0D03",
"#  c #1C0D03",
"$  c #1D0D03",
"%  c #1C0C04",
"&  c #1D0E04",
"*  c #1D0F04",
"=  c #1E1305",
"-  c #1C1206",
";  c #1E1406",
":  c #1E190A",
">  c #1D1B0B",
",  c #1E1B0B",
"<  c #1E1B0D",
"1  c #1E1E1C",
"2  c #1E1E1E",
"3  c #371A07",
"4  c #38260E",
"5  c #38270E",
"6  c #8D202D",
"7  c #8E212C",
"8  c #8E202D",
"9  c #97292B",
"0  c #982F2D",
"q  c #9F2232",
"w  c #A02332",
"e  c #A12432",
"r  c #A02433",
"t  c #A12433",
"y  c #A12533",
"u  c #A22533",
"i  c #A22633",
"p  c #A32633",
"a  c #AB2E30",
"s  c #AC2F30",
"d  c #AD2F31",
"f  c #AC3432",
"g  c #AC3633",
"h  c #AE3633",
"j  c #AB3B38",
"k  c #AC3C38",
"l  c #AC3D38",
"z  c #B54536",
"x  c #B64B38",
"c  c #C25C1A",
"v  c #D05F1F",
"b  c #D9671D",
"n  c #DA681D",
"m  c #DA691D",
"M  c #DA681E",
"N  c #DB681E",
"B  c #DD691E",
"V  c #DD6B1F",
"C  c #DA6D1F",
"Z  c #F6731F",
"A  c #DD7121",
"S  c #DA7324",
"D  c #EC6B23",
"F  c #EC6C24",
"G  c #EE6D24",
"H  c #EE7B2B",
"J  c #F67320",
"K  c #F37421",
"L  c #F67420",
"P  c #F67421",
"I  c #F77421",
"U  c #F67521",
"Y  c #F77521",
"T  c #F77621",
"R  c #F77622",
"E  c #F77722",
"W  c #F87521",
"Q  c #F87621",
"!  c #F87721",
"~  c #F87622",
"^  c #F97722",
"/  c #FA7722",
"(  c #F77B22",
")  c #F77B23",
"_  c #F77C24",
"`  c #FA7821",
"'  c #F97D24",
"]  c #D68A2D",
"[  c #DF932B",
"{  c #DF992D",
"}  c #F78227",
"|  c #F88226",
" . c #F48028",
".. c #F78128",
"X. c #F78228",
"o. c #F78229",
"O. c #F78329",
"+. c #F7832B",
"@. c #F88329",
"#. c #F98329",
"$. c #F88429",
"%. c #F8872A",
"&. c #F8882A",
"*. c #F8892B",
"=. c #F88D2F",
"-. c #F88E2F",
";. c #E09A2D",
":. c #F88F30",
">. c #F7853A",
",. c #F7853B",
"<. c #F7863C",
"1. c #F88B3B",
"2. c #F29D33",
"3. c #F39D33",
"4. c #F49F34",
"5. c #FCA12F",
"6. c #FCA330",
"7. c #FDA631",
"8. c #FDA731",
"9. c #FDA832",
"0. c #FFA832",
"q. c #FDAC30",
"w. c #FDAC31",
"e. c #FDAD32",
"r. c #FDAD33",
"t. c #FEAD32",
"y. c #FEAD33",
"u. c #FEAE33",
"i. c #FEAF33",
"p. c #F9AB36",
"a. c #FDA934",
"s. c #FEAE34",
"d. c #FEAF34",
"f. c #FFAF34",
"g. c #FDAE37",
"h. c #FEAF36",
"j. c #F4A639",
"k. c #FFB034",
"l. c #FDB338",
"z. c #FEB338",
"x. c #FEB439",
"c. c #FEB539",
"v. c #FEB639",
"b. c #FEB53B",
"n. c #FDB93D",
"m. c #FEBA3E",
"M. c #F89242",
"N. c #C7B54C",
"B. c #DEBF4E",
"V. c #FEB549",
"C. c #FEB649",
"Z. c #FEB749",
"A. c #FEB74A",
"S. c #FEB74B",
"D. c #FEB74C",
"F. c #FEBF5F",
"G. c #DFCB54",
"H. c #DFCB55",
"J. c #DFCC55",
"K. c #E2C14F",
"L. c #E3C751",
"P. c #E1CC54",
"I. c #E0CD56",
"U. c #FCCD52",
"Y. c #FCCE53",
"T. c #FCCF53",
"R. c #F2CF5B",
"E. c #FDD455",
"W. c #FDD555",
"Q. c #FEDA56",
"!. c #F3D05B",
"~. c #F4D15B",
"^. c #FBD859",
"/. c #FDD958",
"(. c #FDD959",
"). c #FDDA59",
"_. c #FEDA59",
"`. c #FDDA5A",
"'. c #FDDB5A",
"]. c #FEDB5A",
"[. c #FCDE5B",
"{. c #FDDF5B",
"}. c #FDE05A",
"|. c #FEE05A",
" X c #FEE05B",
".X c #FFE15B",
"XX c #FEE05C",
"oX c #FEE15C",
"OX c #FDE65E",
"+X c #FDE65F",
"@X c #FEE65F",
"#X c #DFCD66",
"$X c #FDDC6A",
"%X c #FDDD6D",
"&X c #FDE560",
"*X c #FDE760",
"=X c #FDE761",
"-X c #FEE660",
";X c #FEE760",
":X c #FEE761",
">X c #FEE763",
",X c #FEE860",
"<X c #FFE960",
"1X c #FEE861",
"2X c #FFE961",
"3X c #FFEA61",
"4X c #FFEB61",
"5X c #FEE862",
"6X c #FEE962",
"7X c #FFE962",
"8X c #FFEA62",
"9X c #FEE26C",
"0X c #FEE971",
"qX c #FEE972",
"wX c #FEE973",
"eX c #FEEA74",
"rX c #FFEB74",
"tX c #FFEC74",
"yX c #FEEB81",
"uX c #E0DED0",
"iX c #FEE6CF",
"pX c #FEECD1",
"aX c #FDECD4",
"sX c #FEF2D6",
"dX c #FEF3D9",
"fX c #FEF9DB",
"gX c gray88",
"hX c #E0E0E1",
"jX c #FEEEE4",
"kX c #FEEEE5",
"lX c #FEF0E5",
"zX c #FEF5E6",
"xX c #FEF5E7",
"cX c #FEF5E9",
"vX c #FEF6E9",
"bX c #FEFAEB",
"nX c #FEFCEC",
"mX c #FFFCEC",
"MX c #FEFCEE",
"NX c white",
/* pixels */
"                                                                                                                        ",
"                                                                                                                        ",
"                                                                                                                        ",
"                        . . . . . . . . . . . . . . . . . . . . . . . . . . . . . . . . . . . .                         ",
"                        . . . . . . . . . . . . . . . . . . . . . . . . . . . . . . . . . . . .                         ",
"                        & & & & & & & & & : : < , , : : , , , , : : , , , , , 1 2 1 1 1 1 < , :                         ",
"                  . . & c b b b b b b b S B.J.H.J.J.H.H.H.H.J.H.H.H.H.H.J.H.#XuXhXhXhXhXuX#XI.N., . .                   ",
"                  . . & B ~ ~ ~ / U / U #.].8X8X8X8X8X>X8X8X8X8X8X8X>X8X8X8XtXnXNXNXNXNXnXtX8XI., . .                   ",
"                  # @ 3 B ~ R R U U } o.=.U.].].].^.].].^.].].^.].].E.Q.^.].$XpXjXlXjXjXaX$X^.G.5 @ #                   ",
"            . . # c M B K R R R U o.U.^.Y.=.o.o.o.#.+.o.o.o.o.} +.o.+.+.+.o.+.,.,.,.,.,.>.o.#._ V M c # . .             ",
"            . . & M / / R U R R U o.].8X^.o.J J J J U J U J J U U J U U Z U U U U U J J J J U U U / M & . .             ",
"            . . & M U U R R R R U o.^.8X].*._ _ _ _ _ _ _ _ _ _ _ _ _ ) ) ) _ _ _ _ _ _ _ _ _ ) U / b & . .             ",
"            . . & b / U U R R R U +.].@X{.s.8.8.8.8.8.8.8.8.8.8.9.8.8.9.8.9.9.9.8.8.8.8.8.8.8.5.' / b & . .             ",
"            . . & b / U U U U U U o.].8X.Xx.s.s.s.s.s.s.s.s.y.s.k.y.y.y.y.s.y.9.s.y.s.s.s.s.s.8._ U b & . .             ",
"            . . & M ' _ _ _ _ _ ( =.^.@X{.x.s.s.s.s.s.8.8.9.l.l.l.y.y.y.9.9.a.V.A.A.s.s.s.s.s.8._ U b & . .             ",
"            . . = ;.8.8.8.8.8.8.6.s.{.8XoXl.y.s.s.s.8.| _ &.E.oXQ.l.y.9.} ( 1.iXvXpXA.y.s.s.s.8._ / b & . .             ",
"            . . = ;.k.s.k.s.s.s.y.x..X*X{.x.y.s.s.s.8._ U +.^.8X{.x.y.8._ J ,.jXNXzXD.e.s.s.s.8._ ~ b & . .             ",
"            . . & ] j.3.3.3.3.3.2.j.[.8X.Xx.y.s.s.s.8._ J o.^.8XoXn.x.s.&.o.M.jXNXzXD.e.s.s.s.8._ ~ b & . .             ",
"            . . o 0 g g g g g g f x !.>X{.x.y.s.s.s.8._ J o.].>X@X.X{.[.^.Q.%XbXNXzXD.e.s.s.k.8._ ~ b & . .             ",
"            . . X 6 r r r r r r q j !.+X.Xx.y.s.s.s.8.( J } ].@X8X@X>X*X8X>XqXnXNXzXA.e.e.y.s.8._ ~ b & . .             ",
"            . . o 9 s s f s s s a z ~.8X.Xl.y.y.8.8.5.&.o.=.{.>X+X>X@X8X>X@XqXfXnXdXF.A.A.s.y.8._ ~ b & . .             ",
"            . . & v F F F F F F D H ^.+X.Xx.y.9.} ) &.U.^.].@X>X8X@X>X@X@X@X>XqXqXyXdXvXpXA.y.8._ ~ b & . .             ",
"            . . & M / / U U ` U U $.Q.>X{.x.y.8._ U o.].@X>X@X@X>X>X@X>X>X@X8X@X+XqXnXNXlXD.y.8._ ~ b & . .             ",
"            . . & b U U R R R ~ U +.^.8X.Xl.y.8._ U } ^.8X@X>X>X@X.X.X{.].^.^.+X@XqXnXNXzXD.y.8._ ~ b & . .             ",
"            . . & M / U / U U U U o.Q.>X.Xx.y.8._ U o.].@X>X@X8XoXn.x.s.=.' :.].>XqXnXNXzXA.y.8._ ~ b & . .             ",
"            . . # M U U U U U U J o.].8X{.x.y.8._ J o.].>X@X@X>X.Xx.s.8._ K } ].@XeXnXNXzXA.q.8._ ~ b & . .             ",
"            . . % M _ _ _ _ _ _ ( &.].@X.Xl.y.8._ J o.^.>X+X>X@X{.x.s.8.} _ +.E..X9XsXvXpXA.y.8._ ~ b & . .             ",
"            . . = ;.a.8.9.8.8.8.8.g.{.>XoXx.y.8._ U +.].@X8X@X>XoXl.s.e.8.8.9.x.x.x.A.D.A.k.y.9._ ~ b & . .             ",
"            . . ; { k.s.s.s.s.r.s.x.oX>X{.x.y.8.( U o.].>X*X>X@X.Xl.s.y.y.y.s.r.y.s.y.q.9.y.s.9._ ~ b & . .             ",
"            . . ; { k.s.s.s.s.k.y.l.{.>XoXx.y.8._ U o.Q.@X8X@X>XoXn.x.x.x.x.x.k.x.x.A.A.A.s.y.9._ ~ b & . .             ",
"            . . ; { k.r.s.s.y.y.y.l..X@XoXl.s.8._ U $.^.>X@X>X@X@X.X.X[..X}.[..X.X9XsXvXpXA.s.8._ ~ b & . .             ",
"            . . ; { k.r.k.k.k.k.y.l..X>X{.l.s.8._ J +.^.@X>X*X8X@X>X>X8X=X8X8X>X+XeXnXNXzXD.y.8._ ~ b & . .             ",
"            . . = ] 3.3.3.3.3.3.2.j.{.+X.Xx.y.8.} ( &.E..X{..XoX{..X{.{.].].].+X@XwXnXNXzXD.y.8._ ~ b & . .             ",
"            . . X 0 g g g g g g f x ~.>X.Xx.y.y.9.9.a.k.x.x.l.x.x.x.x.s.&.o.:.].>XwXnXNXzXD.y.8._ ~ b & . .             ",
"            . . X 6 r r r r r r q j R.8X.Xx.y.y.s.s.k.r.y.y.y.y.s.s.s.8.( J o.^.@XqXnXNXzXD.y.5._ ~ b & . .             ",
"            . . o 9 f s s s s s a z ~.+X{.x.y.y.8.8.8.l.x.x.x.x.l.s.s.8._ J o.].@XqXnXNXzXA.y.9._ ~ b & . .             ",
"            . . O b F F F F F F F H ^.8X.Xx.y.9.+.) &.^.{.{..X{.Q.l.s.8._ J o.^.>XqXnXNXzXD.y.9._ ~ b & . .             ",
"            . . # B ` ` / / U / Z +.{.+X.Xx.y.8.) U o.Q.8X@X@X8X{.l.s.8._ J o.].@XqXnXNXzXD.y.8._ ~ b & . .             ",
"            . . & v F F F F F F D H ^.+X{.x.y.8.) U o.].>X@X>X@XoXn.x.s.%.o.:.^.8XqXnXNXzXD.y.8._ U b & . .             ",
"            . . o 9 s s s s s s a z !.>X.Xx.y.8._ U +.^.@X>X@X>X>X.X.X{.].].].+X@XqXnXNXzXA.q.8._ / b & . .             ",
"            . . X 8 u u u u u q q l R.8X.Xl.y.8.) U o.^.+X>X>X@X>X@X8X@X@X>X8X@X@XqXnXNXzXD.y.8._ / b & . .             ",
"            . . X 6 u u u i i i u l !.+X.Xx.y.9.} ( &.E.].].@X@X@X>X*X>X>X@X>XqXqXyXdXvXpXA.y.8._ U b & . .             ",
"            . . X 7 p u i i i i u j !.8X.Xx.y.y.9.8.6.+.} :.^.>X>X@X>X@X@X+XqXfXnXdXF.A.A.k.y.8._ / b & . .             ",
"            . . X 8 u u i q i i w j R.+X{.x.y.y.s.y.8.( Z o.].@X*X8X@X>X8X@XqXnXNXzXA.8.e.y.y.8._ U b & . .             ",
"            . . o 9 s a f f a a a z ~.>X.Xx.y.s.s.s.9.) J o.].>X@XoX{.{.^.].%XbXNXzXD.e.s.s.s.8._ / b & . .             ",
"            . . & v F F D F F D D H ^.8X.Xx.y.s.s.s.9._ U o.].>XoXn.x.g.&.} M.lXNXzXD.e.s.s.s.8._ U b & . .             ",
"            . . & b / U U ` U / U o.^.8X.Xl.y.s.s.s.8.) J o.].8X{.l.s.8.( Z ,.jXNXzXA.e.s.s.s.8._ / M & . .             ",
"            . . & b / ( U U U U U o.Q.>XoXx.y.s.s.s.9.| ( %.E.oXQ.l.s.8.} ( 1.iXvXpXA.e.s.s.s.8._ U M & . .             ",
"            . . & b / U ~ R R R U o.].>X{.x.s.s.s.s.y.8.8.8.l.x.l.s.y.y.9.9.9.A.A.A.k.y.s.s.k.8._ U b & . .             ",
"            . . & b / U R U R R U +.].6XoXl.y.y.s.s.y.y.s.s.y.y.y.s.y.y.y.y.y.y.9.y.y.e.e.y.y.8.' ` b & . .             ",
"            . . & c b B K R R R U o.U.`.E.n.l.x.l.x.l.l.l.x.x.x.l.x.x.x.x.l.x.A.D.D.D.D.A.x.x.p.A M c & . .             ",
"                  & @ 3 B ~ R R U ( ' o.:.E.{.oXoX{.oX{.oX{..X{.oX{..X{..X.X9XsXzXzXzXzXsX9X.XL.5 @ @                   ",
"                  . . & B ~ ~ ~ U / U / #.].8X8X8X8X8X8X8X8X8X8X8X8X8X8X8X+XtXnXNXNXNXNXnXtX8XI.< . .                   ",
"                  . . & c B b b b b b b S B.J.H.H.J.H.H.H.H.H.J.H.H.H.J.H.G.#XuXhXhXhXhXuX#XI.N.: . .                   ",
"                        & & & & & & & # = : : , , , , : < : : , < : , , , : < 1 2 2 1 1 1 < : ,                         ",
"                        . . . . . . . . . . . . . . . . . . . . . . . . . . . . . . . . . . . .                         ",
"                        . . . . . . . . . . . . . . . . . . . . . . . . . . . . . . . . . . . .                         ",
"                                                                                                                        ",
"                                                                                                                        ",
"                                                                                                                        "
};
