/* XPM */
static char *coin_4__1_1705328611[] = {
/* columns rows colors chars-per-pixel */
"60 60 232 2 ",
"   c None",
".  c black",
"X  c #130406",
"o  c #140505",
"O  c #140606",
"+  c #1C0D03",
"@  c #1D0D03",
"#  c #1C0C04",
"$  c #1D0E04",
"%  c #1D0F04",
"&  c #1E1305",
"*  c #1C1206",
"=  c #1E1406",
"-  c #1E190A",
";  c #1D1B0B",
":  c #1E1B0B",
">  c #1E1B0D",
",  c #1E1E1C",
"<  c #1E1E1E",
"1  c #8D202D",
"2  c #8E212C",
"3  c #8E202D",
"4  c #97292B",
"5  c #982F2D",
"6  c #9F2232",
"7  c #A02332",
"8  c #A12432",
"9  c #A02433",
"0  c #A12433",
"q  c #A12533",
"w  c #A22533",
"e  c #A22633",
"r  c #A32633",
"t  c #AB2E30",
"y  c #AC2F30",
"u  c #AD2F31",
"i  c #AC3432",
"p  c #AC3633",
"a  c #AE3633",
"s  c #AB3B38",
"d  c #AC3C38",
"f  c #AC3D38",
"g  c #B54536",
"h  c #B64B38",
"j  c #C25C1A",
"k  c #D05F1F",
"l  c #D9671D",
"z  c #DA681D",
"x  c #DA691D",
"c  c #DB681E",
"v  c #DA6D1F",
"b  c #F6731F",
"n  c #DA7324",
"m  c #EC6B23",
"M  c #EC6C24",
"N  c #EE6D24",
"B  c #EE7B2B",
"V  c #F67220",
"C  c #F67320",
"Z  c #F67420",
"A  c #F67421",
"S  c #F67521",
"D  c #F77521",
"F  c #F77621",
"G  c #F77622",
"H  c #F77722",
"J  c #F87520",
"K  c #F87521",
"L  c #F87621",
"P  c #F87721",
"I  c #F87622",
"U  c #F97722",
"Y  c #FA7722",
"T  c #F77B22",
"R  c #F77B23",
"E  c #F77C23",
"W  c #F77C24",
"Q  c #F77D27",
"!  c #FA7821",
"~  c #F97D24",
"^  c #D68A2D",
"/  c #DF932B",
"(  c #DF992D",
")  c #F78227",
"_  c #F88226",
"`  c #F78128",
"'  c #F78228",
"]  c #F78229",
"[  c #F78329",
"{  c #F7832B",
"}  c #F98329",
"|  c #F88429",
" . c #F98429",
".. c #F8872A",
"X. c #F8892B",
"o. c #F8892D",
"O. c #F88D2F",
"+. c #F88E2F",
"@. c #E09A2D",
"#. c #F88F30",
"$. c #F78539",
"%. c #F7853A",
"&. c #F7853B",
"*. c #F7863C",
"=. c #F88B3B",
"-. c #F29D33",
";. c #F39D33",
":. c #F49F34",
">. c #FCA12F",
",. c #FDA62F",
"<. c #FCA330",
"1. c #FDA630",
"2. c #FDA631",
"3. c #FDA731",
"4. c #FDA832",
"5. c #FFA832",
"6. c #FDAC31",
"7. c #FEAD30",
"8. c #FDAC32",
"9. c #FDAD32",
"0. c #FDAD33",
"q. c #FEAD32",
"w. c #FEAD33",
"e. c #FEAE33",
"r. c #FEAF33",
"t. c #FDA934",
"y. c #FEAE34",
"u. c #FEAF34",
"i. c #FFAF34",
"p. c #FDAE37",
"a. c #FEAF36",
"s. c #F4A639",
"d. c #FFB034",
"f. c #FEB439",
"g. c #FEB539",
"h. c #FEB639",
"j. c #FEB53B",
"k. c #FDB93D",
"l. c #FEBA3E",
"z. c #F89242",
"x. c #C7B54C",
"c. c #DEBF4E",
"v. c #DFBF4E",
"b. c #FDAF47",
"n. c #FDB148",
"m. c #FEB549",
"M. c #FEB649",
"N. c #FEB749",
"B. c #FEB74A",
"V. c #FEB74B",
"C. c #FEB74C",
"Z. c #FEB84C",
"A. c #FEBF5F",
"S. c #DFCB54",
"D. c #DFCB55",
"F. c #DFCC55",
"G. c #E1CC54",
"H. c #E0CD56",
"J. c #FCCD52",
"K. c #FCCE53",
"L. c #FCCF53",
"P. c #F2CF5B",
"I. c #FDD555",
"U. c #F3D05B",
"Y. c #F4D15B",
"T. c #FBD859",
"R. c #FDD958",
"E. c #FDD959",
"W. c #FDDA59",
"Q. c #FFDB59",
"!. c #FDDA5A",
"~. c #FDDB5A",
"^. c #FEDB5A",
"/. c #FCDE5B",
"(. c #FDDF5B",
"). c #FDE05A",
"_. c #FEE05B",
"`. c #FEE05C",
"'. c #FEE15C",
"]. c #FDE65E",
"[. c #FEE65F",
"{. c #FEE75F",
"}. c #DFCD66",
"|. c #FDDC6A",
" X c #FDDD6D",
".X c #FDE560",
"XX c #FDE760",
"oX c #FDE761",
"OX c #FEE660",
"+X c #FEE760",
"@X c #FEE761",
"#X c #FEE763",
"$X c #FEE860",
"%X c #FFE960",
"&X c #FEE861",
"*X c #FEE961",
"=X c #FFE961",
"-X c #FFEB61",
";X c #FEE962",
":X c #FFE962",
">X c #FFEA62",
",X c #FEE26C",
"<X c #FEE971",
"1X c #FEE972",
"2X c #FEE973",
"3X c #FEEA73",
"4X c #FEEA74",
"5X c #FFEB74",
"6X c #FFEC74",
"7X c #FEEB81",
"8X c #E0DED0",
"9X c #FDE6CF",
"0X c #FEE6CF",
"qX c #FEECD1",
"wX c #FDECD4",
"eX c #FEF2D5",
"rX c #FEF2D6",
"tX c #FEF3D9",
"yX c #FEF9DB",
"uX c #E0E0E2",
"iX c #FEEEE4",
"pX c #FEEFE6",
"aX c #FEF0E5",
"sX c #FEF5E6",
"dX c #FEF5E8",
"fX c #FEF6E9",
"gX c #FEF7E9",
"hX c #FEFAEB",
"jX c #FEFCEC",
"kX c #FFFCEC",
"lX c #FEFCEE",
"zX c white",
/* pixels */
"                                                                                                                        ",
"                                                                                                                        ",
"                                                                                                                        ",
"                                    . . . . . . . . . . . . . . . . . . . . . . . . . . .                               ",
"                                    . . . . . . . . . . . . . . . . . . . . . . . . . . .                               ",
"                                    + $ $ $ $ $ $ $ $ $ + $ - : - - - > > > > , , , > : :                               ",
"                              . . + j c l l l l l l l l l n S.S.H.S.S.H.F.S.}.8XuX8X}.G.x.: . .                         ",
"                              . . $ c Y Y G G Y G Y J Y J } E.[.;X;X;X;X;X;X4XjXzXjX6X;XG.> . .                         ",
"                              . . $ l G G G G G G G G ' ' O.L.E.E.E.E.E.E.E.|.wXaXwX|.E.S.- . .                         ",
"                              . . $ l G G G G G G G ' K.E.L.O.' ' ' [ [ [ [ ' %.*.%.' } v $ . .                         ",
"                              . . $ l G G G G G G G ' E.;XE.' G G C b G G G C G G C C Y l # . .                         ",
"                              . . $ l G G G G G G C ' T.;XT.o.R W W E E R W R W R R G Y l + . .                         ",
"                              . . $ l Y G G G G G G ' E.;X(.p.,.4.,.4.3.3.3.3.3.3.>.R Y l $ . .                         ",
"                              . . $ l G G G S S G G [ E.;X(.g.q.p.q.q.p.q.q.q.q.p.3.R G l $ . .                         ",
"                              . . $ v ~ W W W W R R X.E.;X'.g.q.q.3.4.t.M.Z.M.p.p.3.W G l $ . .                         ",
"                              . . $ @.3.1.4.1.1.1.1.p.(.OX'.d.p.3.) ~ =.9XsXqXM.q.3.R Y l $ . .                         ",
"                              . . = @.d.d.p.d.q.d.d.g.(.[.).g.q.3.R b %.iXzXsXC.q.3.R Y l $ . .                         ",
"                              . . * ^ :.-.-.-.-.-.-.s.(.;X(.p.3.3.| ) z.iXzXsXC.q.3.R G l $ . .                         ",
"                              . . O 5 a p p p p p p h U.;XE.X.R X.K.E. XjXzXsXC.q.3.W G l $ . .                         ",
"                              . . X 1 0 q 6 q q q 6 s P.;XE.' C ' E.[.3XjXzXsXV.q.3.R Y l $ . .                         ",
"                              . . O 4 y y y y y y t g Y.;XE.#.' #.E.;X3XyXjXtXA.V.b.W G l $ . .                         ",
"                              . . # k M M M M M M M B T.{.[.(.E.E.OXOX;X2X3X7XtXfX9X$.Y l $ . .                         ",
"                              . . $ c Y G G G b G G | E.OXOXOXOXOX;XOXOXOX[.3XjXzXiX%.b l $ . .                         ",
"                              . . $ l Y G G G G G G [ E.#X;XOXOXOX'.'.(.E.E. XjXzXiX*.G l $ . .                         ",
"                              . . $ l G G G G G G G [ E.;X;XOXOX'.l.g.p.o.) z.iXzXiX%.Y l $ . .                         ",
"                              . . $ l Y b G G G G C [ E.OXOXOX;X(.g.q.3.R b %.iXzXiX*.b l $ . .                         ",
"                              . . $ v ~ E W E W R R o.E.OXOXOX;X'.g.q.4._ R =.9XfX9X%.G l $ . .                         ",
"                              . . * / 4.3.3.,.4.1.1.p./.;X;XOXOX'.d.p.q.3.3.4.V.Z.b.W Y l $ . .                         ",
"                              . . = @.p.q.p.q.p.q.q.g.'.OX#XOX;X~.g.p.q.q.p.q.q.q.,.E Y l $ . .                         ",
"                              . . = @.d.p.d.d.q.p.p.g.'.OXOX~.T.I.l.g.g.f.g.g.V.Z.b.W G l $ . .                         ",
"                              . . = ( q.q.q.q.p.q.q.g.~.;X~.#.' #.I.'.).(.).,XeXfX9X%.b l $ . .                         ",
"                              . . = @.d.d.p.d.d.d.q.g.'.OXE.' C ' E.;X;XOX[.4XjXzXiX%.Y l $ . .                         ",
"                              . . * ^ :.;.;.-.-.-.-.s./.;XE.X.~ | K.E.(.OXOX3XjXzXiX*.G l + . .                         ",
"                              . . O 5 p p p a a a p h U.;X(.p.3.>.X.' +.E.OX3XjXzXiX%.Y l + . .                         ",
"                              . . O 1 q q 7 q 7 q 6 s P.OX).g.q.3.R C ' E.OX3XjXzXiX*.b l $ . .                         ",
"                              . . O 4 y y y y y y t g U.;X(.f.q.3.R G ' E.OX2XjXzXiX*.G l $ . .                         ",
"                              . . $ k M M M M M M m B T.;X).f.p.3.R C ' E.OX3XjXzXiX*.b l $ . .                         ",
"                              . . $ c Y b Y Y Y G Y | E.;X).g.q.3.R C ' E.;X3XjXzXiX*.b l $ . .                         ",
"                              . . $ k M M M m m m m B T.;X'.l.g.p.o.[ #.E.OX3XjXzXiX*.Y l $ . .                         ",
"                              . . O 4 i y y y i t t g U.OXOX'.).~.E.E.(.OXOX3XjXzXiX%.Y l $ . .                         ",
"                              . . O 3 q q q q q q q s U.;XOX;XOX;XOX;XOX[.[.3XjXzXiX%.b c + . .                         ",
"                              . . X 1 r q r q r q q f U.;XOXE.E.E.OXOXOX<X3X7XtXfX9X%.G c + . .                         ",
"                              . . O 2 r r q r q q q s U.;XE.#.' #.(.[.3XyXjXtXA.V.b.W G c $ . .                         ",
"                              . . X 2 q q q q q q q s U.;XE.) b ' E.;X4XhXzXsXV.q.,.W Y c $ . .                         ",
"                              . . O 4 y y y y y y t g U.;XE.X.R [ L.E. XhXzXsXC.q.3.W G l + . .                         ",
"                              . . $ k M M M M M m m B R.;X(.p.3.3.[ ' z.iXzXsXC.q.3.W G l + . .                         ",
"                              . . $ l Y b R G G b G | R.OX'.g.q.3.R b %.iXzXsXV.q.3.E G c $ . .                         ",
"                              . . + l Y G G G G G G ' E.;X).g.q.4._ E =.9XfXqXV.q.3.E G c $ . .                         ",
"                              . . $ l G G G G G G C ' E.;X'.g.p.q.4.,.4.V.Z.V.p.q.3.~ G l + . .                         ",
"                              . . $ l G G G G G G G ' T.;X'.d.p.q.p.p.q.q.4.q.q.q.3.R Y l + . .                         ",
"                              . . $ c Y G G G G G G Q J.E.I.l.g.g.g.f.g.g.g.g.V.Z.n.o.} n $ . .                         ",
"                              . . $ l G G G G G G C R ) ' O.I.'.(.).(.).(.).,XeXsXeX|.(.v.- . .                         ",
"                              . . $ c Y Y G G Y Y G Y G Y } (.;X;X;X;X;X;X{.3XjXzXjX6X;XG.; . .                         ",
"                              . . + j c l l l l l l l l l n v.F.H.D.H.G.G.S.}.8XuX8X}.G.x.; . .                         ",
"                                    + $ $ $ + $ $ $ $ $ # + - - - - : : : : > , , , > > >                               ",
"                                    . . . . . . . . . . . . . . . . . . . . . . . . . . .                               ",
"                                    . . . . . . . . . . . . . . . . . . . . . . . . . . .                               ",
"                                                                                                                        ",
"                                                                                                                        ",
"                                                                                                                        "
};
