/* XPM */
static char *coin_2__1_1705328582[] = {
/* columns rows colors chars-per-pixel */
"60 60 235 2 ",
"   c None",
".  c black",
"X  c #130406",
"o  c #140505",
"O  c #140606",
"+  c #1B0D03",
"@  c #1C0D03",
"#  c #1D0D03",
"$  c #1C0C04",
"%  c #1D0E04",
"&  c #1D0F04",
"*  c #1E1305",
"=  c #1C1206",
"-  c #1E1406",
";  c #1E190A",
":  c #1C1A0A",
">  c #1D1B0B",
",  c #1E1B0B",
"<  c #1E1B0D",
"1  c #1E1E1C",
"2  c #1E1E1E",
"3  c #371A07",
"4  c #383214",
"5  c #8D202D",
"6  c #8E212C",
"7  c #8E202D",
"8  c #97292B",
"9  c #982F2D",
"0  c #9F2232",
"q  c #A02332",
"w  c #A12432",
"e  c #A02433",
"r  c #A12433",
"t  c #A12533",
"y  c #A22533",
"u  c #A22633",
"i  c #A32633",
"p  c #AB2E30",
"a  c #AC2F30",
"s  c #AD2F31",
"d  c #AC3432",
"f  c #AC3633",
"g  c #AE3633",
"h  c #AB3B38",
"j  c #AC3C38",
"k  c #AC3D38",
"l  c #B54536",
"z  c #B64B38",
"x  c #C25C1A",
"c  c #D05F1F",
"v  c #D9671D",
"b  c #DA681D",
"n  c #DA691D",
"m  c #DA681E",
"M  c #DB681E",
"N  c #DD691E",
"B  c #DA6D1F",
"V  c #F6731F",
"C  c #DA7324",
"Z  c #EC6B23",
"A  c #EC6C24",
"S  c #EE6D24",
"D  c #EE7B2B",
"F  c #F67320",
"G  c #F37421",
"H  c #F67420",
"J  c #F67421",
"K  c #F67521",
"L  c #F77521",
"P  c #F77621",
"I  c #F77622",
"U  c #F77722",
"Y  c #F87521",
"T  c #F87621",
"R  c #F87721",
"E  c #F87622",
"W  c #F97722",
"Q  c #FA7722",
"!  c #F77B22",
"~  c #F77B23",
"^  c #F77C24",
"/  c #FA7821",
"(  c #F97D24",
")  c #D68A2D",
"_  c #DF932B",
"`  c #DF992D",
"'  c #F78227",
"]  c #F88226",
"[  c #F78128",
"{  c #F78228",
"}  c #F78229",
"|  c #F78329",
" . c #F7832B",
".. c #F88229",
"X. c #F98329",
"o. c #F88429",
"O. c #F8872A",
"+. c #F48C2E",
"@. c #F8882A",
"#. c #F8892B",
"$. c #F88D2F",
"%. c #F88E2F",
"&. c #E09A2D",
"*. c #F88F30",
"=. c #F7853A",
"-. c #F7853B",
";. c #F7863C",
":. c #F88B3B",
">. c #F29D33",
",. c #F39D33",
"<. c #F49F34",
"1. c #FCA12F",
"2. c #FCA330",
"3. c #FDA631",
"4. c #FDA731",
"5. c #FDA832",
"6. c #FFA832",
"7. c #FDAC30",
"8. c #FDAC31",
"9. c #FDAD32",
"0. c #FDAD33",
"q. c #FEAD32",
"w. c #FEAD33",
"e. c #FEAE33",
"r. c #FEAF33",
"t. c #FDA934",
"y. c #FEAD34",
"u. c #FEAE34",
"i. c #FEAF34",
"p. c #FFAF34",
"a. c #FDAE37",
"s. c #FEAF36",
"d. c #F4A639",
"f. c #FFB034",
"g. c #FDB338",
"h. c #FEB338",
"j. c #FEB439",
"k. c #FEB539",
"l. c #FEB639",
"z. c #FEB53B",
"x. c #FDB93D",
"c. c #FEBA3E",
"v. c #F89242",
"b. c #C7B54C",
"n. c #DEBF4E",
"m. c #FEB549",
"M. c #FEB649",
"N. c #FEB749",
"B. c #FEB74A",
"V. c #FEB74B",
"C. c #FEB74C",
"Z. c #FEBF5F",
"A. c #DFCB54",
"S. c #DFCB55",
"D. c #DFCC55",
"F. c #E2C250",
"G. c #E1CC56",
"H. c #E0CD56",
"J. c #E1CD56",
"K. c #FCCD52",
"L. c #FCCE53",
"P. c #FCCF53",
"I. c #F2CF5B",
"U. c #FDD455",
"Y. c #FDD555",
"T. c #FEDA56",
"R. c #F3D05B",
"E. c #F4D15B",
"W. c #FBD859",
"Q. c #FDD958",
"!. c #FDD959",
"~. c #FDDA59",
"^. c #FDDA5A",
"/. c #FDDB5A",
"(. c #FEDA5A",
"). c #FEDB5A",
"_. c #FCDE5B",
"`. c #FDDF5B",
"'. c #FDE05A",
"]. c #FEE05A",
"[. c #FEE05B",
"{. c #FEE05C",
"}. c #FEE15C",
"|. c #FDE65E",
" X c #FDE65F",
".X c #FEE65F",
"XX c #DFCD66",
"oX c #FDDC6A",
"OX c #FDDD6D",
"+X c #FDE560",
"@X c #FDE760",
"#X c #FDE761",
"$X c #FEE660",
"%X c #FEE760",
"&X c #FEE761",
"*X c #FEE763",
"=X c #FEE860",
"-X c #FFE960",
";X c #FEE861",
":X c #FFE961",
">X c #FEE862",
",X c #FEE962",
"<X c #FFE962",
"1X c #FFEA62",
"2X c #FFEB62",
"3X c #FFEB63",
"4X c #FEE26C",
"5X c #FEE971",
"6X c #FEE972",
"7X c #FEE973",
"8X c #FEEA74",
"9X c #FFEB74",
"0X c #FFEC74",
"qX c #FEEB81",
"wX c #E0DED0",
"eX c #FEE6CF",
"rX c #FEECD1",
"tX c #FDECD4",
"yX c #FEF2D6",
"uX c #FEF3D9",
"iX c #FEF9DB",
"pX c gray88",
"aX c #E0E0E1",
"sX c #FEEEE4",
"dX c #FEEEE5",
"fX c #FEF0E5",
"gX c #FEF5E6",
"hX c #FEF5E7",
"jX c #FEF5E9",
"kX c #FEF6E9",
"lX c #FEFAEB",
"zX c #FEFCEC",
"xX c #FFFCEC",
"cX c #FEFCEE",
"vX c white",
/* pixels */
"                                                                                                                        ",
"                                                                                                                        ",
"                                                                                                                        ",
"                        . . . . . . . . . . . . . . . . . . . . . . . . . . . . . . . . . . . . . . .                   ",
"                        . . . . . . . . . . . . . . . . . . . . . . . . . . . . . . . . . . . . . . .                   ",
"                        % % % % @ % ; , , , ; < , ; < < < , , , < ; , < 2 2 2 2 2 2 2 2 2 < , ; , , ,                   ",
"                  . . % x v m m m C n.D.D.S.S.S.D.D.S.S.S.S.D.D.S.S.A.XXwXaXpXpXaXpXpXaXwXXXA.S.D.H.b., . .             ",
"                  . . % m Q K Q Q ..(.:X:X:X:X<X:X:X<X<X<X:X:X:X:X:X:X0XzXvXvXvXvXvXvXvXzX0X:X:X:X:XH., . .             ",
"                  @ + 3 N K ! ^ ..$.P.W.T.(.W.(.(.(.(.W.(.(.Q.W.(.(.W.oXtXsXsXsXsXsXsXsXtXoXW.(.(.`.F.4 ; <             ",
"            . . @ x m N G Q } K.(.U.+.} } | } } } } } } } | | | | | } | -.;.;.-.;.;.;.-.-.| } } | ..#.F.H.b., . .       ",
"            . . % m Q Q K K } W.&X(.} J K J K K K J J J J K K K K K K K K K V K K J K J K K K J K K } /.3XH., . .       ",
"            . . % m K K K K } (.&X(.#.! ^ ^ ^ ^ ^ ^ ^ ^ ^ ^ ^ ! ^ ^ / ^ ^ ^ ^ ^ ^ ! ^ ^ ^ ! ^ ! K K } (.:XD., . .       ",
"            . . % v Q K K K } (.&X`.y.4.5.5.5.5.5.5.4.5.4.5.4.4.5.5.5.5.4.4.4.4.4.4.4.4.5.5.4.1.^ K } (.:XS., . .       ",
"            . . % v Q K K J } (.:X`.j.y.y.y.9.y.9.y.9.y.y.y.9.9.9.y.9.y.y.y.9.9.9.9.9.y.y.f.9.5.^ J } (.:XS.; . .       ",
"            . . % m ( ^ ^ ^ #.(.:X}.j.9.y.f.y.f.y.y.y.5.4.5.j.j.g.y.f.9.5.5.t.V.V.V.f.y.y.y.y.4.^ J } W.:XS.< . .       ",
"            . . * &.4.4.4.4.a._.&X'.j.y.y.f.y.y.y.f.5.] ! @.U.}.T.j.9.5.] / :.eXjXrXV.9.f.y.y.4.^ J } (.:XS.< . .       ",
"            . . * &.f.9.f.f.j.'.&X}.g.y.y.f.0.0.y.f.4.^ G } (.:X}.g.y.4.^ J ;.sXvXgXC.0.f.y.y.4.^ K } W.:XD., . .       ",
"            . . * ) d.>.>.>.d.`.&X'.j.9.y.f.y.f.y.0.4.^ J } W.&X}.c.j.y.#.] v.fXvXgXV.0.y.y.f.5.^ K | (.:XD., . .       ",
"            . . X 9 g g f f z R.:X`.j.y.y.y.y.f.f.f.5.^ K | (.&X&X'.'.`.(.U.OXxXvXgXC.0.y.f.9.4.^ K } (.<XS., . .       ",
"            . . X 5 e e 0 0 h R.&X}.j.9.f.y.y.y.0.y.4.^ J } W.&X&X&X&X&X&X&X7XxXvXgXV.7.9.9.y.4.^ J } (.<XS.; . .       ",
"            . . o 8 p p a a l E.:X`.j.y.y.y.y.y.5.5.1.| } +.`.&X&X&X&X&X&X.X5XiXxXuXZ.V.V.y.9.5.^ J } (.<XS.< . .       ",
"            . . # c S Z A A D W.:X'.j.9.f.y.9.5.' ^ #.P.(.(.&X&X&X&X&X&X&X.X&X7X7XqXuXjXrXV.9.4.^ J } (.:XS.< . .       ",
"            . . % m Q K K K } Q.&X}.j.y.y.y.y.4.^ V } (.&X&X&X.X&X&X&X&X&X&X&X.X|.7XzXvXgXV.9.4.! K } W.:XD., . .       ",
"            . . % v K Q K K } (.:X_.j.9.y.f.f.5.^ K } (.&X&X&X&X&X'.`._.(.(.(.&X.X7XzXvXgXV.9.4.^ K ' (.:XD., . .       ",
"            . . % m Q K Q K } (.:X}.j.y.y.f.9.4.^ K } W.:X&X&X&X}.c.g.y.$.( +.`.:X7XxXvXgXC.9.4.^ K } (.:XS.; . .       ",
"            . . @ m K K K K } (.&X'.j.9.y.y.y.5.! J ' (.&X&X&X&X}.j.y.4.^ J } (.:X7XxXvXgXC.9.4.^ J } (.:XS., . .       ",
"            . . # m ( ^ ^ ^ | (.:X`.j.y.f.0.y.5.^ J } (.&X&X&X&X}.g.9.5.] ^ o.U.`.4XyXgXrXV.9.5.^ J } W.:XD., . .       ",
"            . . * &.5.5.4.4.g._.&X'.j.0.f.y.y.4.^ K } (.&X&X&X&X'.j.y.y.4.4.5.j.j.j.V.V.V.y.9.4.^ J } (.:XD., . .       ",
"            . . - ` y.y.y.9.j.'.&X`.j.9.0.y.f.5.^ K } T.&X&X&X&X}.g.y.9.9.y.9.y.9.y.9.7.9.9.9.4.^ K } W.<XS.< . .       ",
"            . . - ` f.y.y.y.j.}.&X}.j.y.f.y.0.5.^ K | (.&X&X&X&X}.c.j.j.j.j.j.g.j.z.V.V.V.y.y.4.^ K | (.<XS.; . .       ",
"            . . - ` f.y.f.y.j.'.&X}.j.9.f.y.y.4.^ J } W.&X&X&X&X&X'.`.}.}.'.'.}.'.4XyXjXrXV.9.4.^ K } (.:XD.< . .       ",
"            . . - &.f.f.f.9.j.`.&X'.j.y.y.y.y.4.^ J } (.&X&X&X&X&X&X&X&X&X:X:X:X X7XzXvXgXC.9.4.! J } (.:XD., . .       ",
"            . . * ) ,.,.,.,.d._.&X}.g.9.y.y.y.5.' ^ #.U.}.`.'.}.`.'.}.`.(.(.W.}.&X7XzXvXgXC.9.4.^ K } (.:XS., . .       ",
"            . . X 9 g g f d z E.:X'.j.y.f.y.y.y.5.5.5.f.j.j.j.j.j.j.j.y.#.' *.`.&X7XzXvXgXV.9.4.! J } W.:XS.< . .       ",
"            . . X 5 e q e 0 h I.:X`.j.9.y.y.y.f.y.y.f.0.9.y.y.9.9.y.y.4.^ J | W..X7XzXvXgXC.9.4.^ K } (.:XS.< . .       ",
"            . . O 8 p d p p l E.&X}.j.y.y.f.y.9.5.5.5.g.j.j.j.j.j.y.y.5.^ K | U.:X7XzXvXgXC.9.4.^ K } (.:XS.; . .       ",
"            . . + c S S S Z D W.&X'.j.9.y.y.9.5.' ^ #.U.'.'._.}.T.j.9.5.( J } (.&X7XzXvXgXC.9.4.^ J } W.:XD., . .       ",
"            . . % m / K Q K } (.:X`.j.y.f.f.y.5.^ K } T.:X&X&X&X'.j.y.4./ J } (..X7XzXvXgXC.9.4.^ J } (.:XD., . .       ",
"            . . % c S S A Z D W.:X}.j.y.y.y.y.5.^ J } (.&X&X&X&X}.c.g.a.#.} +.(.&X7XzXvXgXC.9.4.^ K } (.<XS., . .       ",
"            . . X 8 p a a a l E.:X'.j.9.y.f.9.5.^ K } W.&X&X&X&X&X}.'._.(.(.`.&X.X7XzXvXgXC.9.4.^ K } (.<XS., . .       ",
"            . . X 5 e e i e k E.&X}.g.9.y.y.y.5.^ K } (.:X&X&X.X&X&X&X&X&X&X.X.X.X7XzXvXgXV.9.4.^ K } (.:XS., . .       ",
"            . . X 6 i i i e k I.:X'.j.y.f.y.y.5.' ^ | U.(.W.&X&X&X&X&X&X&X&X&X7X8X8XuXjXrXV.9.4.! J } W.:XS.; . .       ",
"            . . X 6 i i e q k E.:X`.j.9.y.y.y.y.5.4.2.o.} +.W.:X&X&X&X&X&X.X7XiXcXuXZ.V.V.y.9.4.^ K } (.:XS.< . .       ",
"            . . X 5 e e e q j I.&X}.j.y.y.f.y.f.y.9.4.! K ..(.&X&X&X&X&X&X&X7XzXvXjXV.9.9.9.9.4.^ K } (.:XS.< . .       ",
"            . . O 8 d p a p l E.&X'.j.9.y.y.y.f.y.y.5.^ K } (.&X.X}.'.`.(.T.OXzXvXgXC.9.y.y.y.5.^ J } W.:XD., . .       ",
"            . . # c Z A A A D T.:X`.j.y.f.f.y.y.f.y.5.^ K | (.&X}.c.j.y.@.' v.fXvXgXC.9.y.f.y.5.^ J } (.:XD., . .       ",
"            . . % v Q K Q K o.(.:X}.j.y.y.y.f.y.y.9.5.^ K } (.:X}.j.y.4.! V -.sXvXgXC.9.y.f.y.5.^ K } (.:XS., . .       ",
"            . . % v Q K K K ' (.:X'.j.9.y.f.y.y.f.9.5.] ^ o.U.}.T.g.y.5.] ^ :.eXjXrXN.9.y.y.9.5.^ K } (.<XS., . .       ",
"            . . % v Q K K K | (.:X`.j.9.y.y.y.f.y.y.9.5.5.5.g.j.g.y.y.9.5.4.t.V.V.V.y.9.y.y.y.5.^ K } (.&XD.; . .       ",
"            . . % m Q Q K K } (.:X'.j.y.y.9.9.y.y.9.y.9.y.9.y.9.y.9.9.y.9.9.9.5.7.9.9.9.9.y.y.4.^ V ..`.:XH.< . .       ",
"            . . @ x m N G K ..L.(.U.x.j.j.g.j.j.j.j.j.g.j.j.j.j.j.g.j.z.N.C.N.C.C.C.C.C.N.j.j.a.@.} +.F.H.b., . .       ",
"                  @ @ 3 N E K ..} *.U.}.}.}.'.}.}._.}.}.'.}.'.}.'.}.'.4XyXjXgXgXgXgXgXgXyX4X'.}.(.(.F.4 ; ,             ",
"                  . . % v Q Q Q Q ..`.:X:X:X:X<X:X:X:X<X:X:X:X:X:X:X:X0XxXvXvXvXvXvXvXvXxX7X:X:X:X3XD., . .             ",
"                  . . @ x v v v v C n.D.S.S.S.S.D.D.S.S.S.S.S.H.S.S.D.XXwXaXpXaXpXaXpXaXwXXXD.D.D.H.b., . .             ",
"                        % % % % @ % ; , , ; < < , , , < < ; ; < ; < ; < 2 2 2 2 2 2 2 2 2 < , , < , ,                   ",
"                        . . . . . . . . . . . . . . . . . . . . . . . . . . . . . . . . . . . . . . .                   ",
"                        . . . . . . . . . . . . . . . . . . . . . . . . . . . . . . . . . . . . . . .                   ",
"                                                                                                                        ",
"                                                                                                                        ",
"                                                                                                                        "
};
