/* XPM */
static char *coin_6__1_1705328628[] = {
/* columns rows colors chars-per-pixel */
"60 60 247 2 ",
"   c None",
".  c black",
"X  c #130406",
"o  c #140505",
"O  c #140606",
"+  c #1C0D03",
"@  c #1D0D03",
"#  c #1C0C04",
"$  c #1D0E04",
"%  c #1D0F04",
"&  c #1E1305",
"*  c #1D1007",
"=  c #1C1206",
"-  c #1E1406",
";  c #1E1506",
":  c #1E190A",
">  c #1D1B0B",
",  c #1E1A0A",
"<  c #1E1B0B",
"1  c #1E1B0D",
"2  c #1E1C1B",
"3  c #1E1E1C",
"4  c #1E1E1E",
"5  c #8D202D",
"6  c #8E212C",
"7  c #8E202D",
"8  c #97292B",
"9  c #982F2D",
"0  c #9F2232",
"q  c #A02332",
"w  c #A12432",
"e  c #A02433",
"r  c #A12433",
"t  c #A12533",
"y  c #A22533",
"u  c #A22633",
"i  c #A32633",
"p  c #AB2E30",
"a  c #AC2F30",
"s  c #AD2F31",
"d  c #AC3432",
"f  c #AC3633",
"g  c #AE3633",
"h  c #AB3B38",
"j  c #AC3C38",
"k  c #AC3D38",
"l  c #B54536",
"z  c #B64B38",
"x  c #C25C1A",
"c  c #D05F1F",
"v  c #D9671C",
"b  c #D9661D",
"n  c #D9671D",
"m  c #DA681D",
"M  c #DA691D",
"N  c #DB681E",
"B  c #DA6D1F",
"V  c #F6731F",
"C  c #F6741F",
"Z  c #DA7324",
"A  c #DA7635",
"S  c #EC6B23",
"D  c #EC6C24",
"F  c #EE6D24",
"G  c #EE7B2B",
"H  c #F67220",
"J  c #F67320",
"K  c #F67420",
"L  c #F67421",
"P  c #F67521",
"I  c #F77521",
"U  c #F77621",
"Y  c #F77622",
"T  c #F77722",
"R  c #F87420",
"E  c #F87521",
"W  c #F87621",
"Q  c #F87721",
"!  c #F87622",
"~  c #F97722",
"^  c #FA7722",
"/  c #F77B22",
"(  c #F77B23",
")  c #F77C23",
"_  c #F77C24",
"`  c #F77D24",
"'  c #F77D27",
"]  c #FA7821",
"[  c #F97C23",
"{  c #F97C24",
"}  c #F97D24",
"|  c #D68A2D",
" . c #DF932B",
".. c #DF982D",
"X. c #DF992D",
"o. c #DF9A2E",
"O. c #DF9F32",
"+. c #F78227",
"@. c #F88226",
"#. c #F78128",
"$. c #F78228",
"%. c #F78229",
"&. c #F78329",
"*. c #F7832B",
"=. c #F88429",
"-. c #F98429",
";. c #F8872A",
":. c #F8882A",
">. c #F8892B",
",. c #F88E2F",
"<. c #E09A2D",
"1. c #F88F30",
"2. c #F88F32",
"3. c #F78539",
"4. c #F7853A",
"5. c #F7853B",
"6. c #F7853C",
"7. c #F7863C",
"8. c #F9863C",
"9. c #F88B3B",
"0. c #F29D33",
"q. c #F39D33",
"w. c #F49F34",
"e. c #F8903F",
"r. c #FCA12F",
"t. c #FCA330",
"y. c #FDA630",
"u. c #FDA631",
"i. c #FDA731",
"p. c #FDA832",
"a. c #FFA832",
"s. c #FEAD30",
"d. c #FDAC32",
"f. c #FDAD32",
"g. c #FDAD33",
"h. c #FEAD32",
"j. c #FEAD33",
"k. c #FEAE33",
"l. c #FEAF33",
"z. c #FDA934",
"x. c #FEAE34",
"c. c #FFAE34",
"v. c #FEAF34",
"b. c #FFAF34",
"n. c #FDAD36",
"m. c #FDAE37",
"M. c #FEAF36",
"N. c #F4A639",
"B. c #FDAF39",
"V. c #FFB034",
"C. c #FDB338",
"Z. c #FEB439",
"A. c #FEB539",
"S. c #FEB639",
"D. c #FFB639",
"F. c #FDB93D",
"G. c #F89140",
"H. c #C7B54C",
"J. c #DFBF4E",
"K. c #FDAF47",
"L. c #FEB549",
"P. c #FEB649",
"I. c #FEB74A",
"U. c #FEB74B",
"Y. c #FEB74C",
"T. c #FEBF5F",
"R. c #DFC550",
"E. c #DFCB54",
"W. c #DFCB55",
"Q. c #E1CC56",
"!. c #E0CD56",
"~. c #FCCD52",
"^. c #FCCE53",
"/. c #FCCF56",
"(. c #F2CF5B",
"). c #FDD354",
"_. c #FDD455",
"`. c #FDD555",
"'. c #F3D05B",
"]. c #F4D15B",
"[. c #FBD859",
"{. c #FDD958",
"}. c #FDD959",
"|. c #FDDA59",
" X c #FDDA5A",
".X c #FDDB5A",
"XX c #FFDB5A",
"oX c #FCDE5B",
"OX c #FDDF5B",
"+X c #FDDB5C",
"@X c #FEE05A",
"#X c #FEE05B",
"$X c #FEE05C",
"%X c #FEE15C",
"&X c #FFE15C",
"*X c #FDE65E",
"=X c #FDE65F",
"-X c #FEE65F",
";X c #FEE75F",
":X c #DFCD66",
">X c #FDDC6A",
",X c #FDDD6A",
"<X c #FDE560",
"1X c #FEE660",
"2X c #FEE760",
"3X c #FEE761",
"4X c #FEE763",
"5X c #FEE860",
"6X c #FFE960",
"7X c #FEE861",
"8X c #FEE961",
"9X c #FFE961",
"0X c #FEE962",
"qX c #FFE962",
"wX c #FFEB62",
"eX c #FEE16B",
"rX c #FEE770",
"tX c #FEE971",
"yX c #FEE972",
"uX c #FEE973",
"iX c #FEEA73",
"pX c #FEEA74",
"aX c #FFEB74",
"sX c #FEEB75",
"dX c #FFEC74",
"fX c #FEEB81",
"gX c #DFD2C9",
"hX c #E0DED0",
"jX c #FDE1CE",
"kX c #FDE6CF",
"lX c #FEE6CF",
"zX c #FEECD1",
"xX c #FDECD4",
"cX c #FEECD4",
"vX c #FEEDD4",
"bX c #FEF3D9",
"nX c #FEF8DA",
"mX c #FEF9DB",
"MX c #E0E1E3",
"NX c #FEEEE4",
"BX c #FEEFE7",
"VX c #FEF5E6",
"CX c #FEF6E9",
"ZX c #FEFCEC",
"AX c #FFFCEC",
"SX c #FEFDEE",
"DX c white",
/* pixels */
"                                                                                                                        ",
"                                                                                                                        ",
"                                                                                                                        ",
"                              . . . . . . . . . . . . . . . . . . . . . . . . . . .                                     ",
"                              . . . . . . . . . . . . . . . . . . . . . . . . . . .                                     ",
"                              : < < < < < < < < < : 1 4 4 4 & @ $ $ $ $ $ $ $ $ $ $                                     ",
"                        . . : H.!.W.W.W.W.W.W.W.W.W.:XhXMXgXA b b m m b b m b b b x # . .                               ",
"                        . . : Q.wXqXqXqXqXqXqXqXqXqXaXAXDXNX8.J ! ! Y ! ! Y ! Y [ N $ . .                               ",
"                        . . : R.|.+X|.[.|.|.|.|.|.{.,XxXBXjXe.#.+.K K Y Y Y Y Y ! m $ . .                               ",
"                        . . $ Z -.#.#.*.#.&.#.#.&.&.*.8.6.G./.|./.#.K ( Y Y Y Y ! b $ . .                               ",
"                        . . @ b ! K Y L K Y K K K J K K K #.|.qX|.#.K Y Y Y Y Y ! b $ . .                               ",
"                        . . $ B { { ( ` ( ` ( [ ` ` ( K K #.[.qX+X#.Y Y Y Y Y Y ! m $ . .                               ",
"                        . . &  .z.p.i.i.i.i.i.i.i.i.t.( K &.|.qX|.#.Y Y Y ( ! K ! m $ . .                               ",
"                        . . - X.n.n.V.j.j.j.j.j.j.n.i.( K &.[.qX|.#.J Y K K K K ! b $ . .                               ",
"                        . . - X.j.j.p.p.z.L.P.P.n.j.i.` K &.|.qX|.;.( ( ` ( [ ` { B $ . .                               ",
"                        . . - X.V.i.@.[ 9.zXCXzXP.j.p.` K #.[.qXOXB.p.i.p.p.i.p.p. .& . .                               ",
"                        . . - X.V.p.[ C 6.NXDXVXL.j.i.( J &.|.qXOXA.n.V.n.V.j.j.V.<.- . .                               ",
"                        . . -  .p.r.-.+.G.cXAXbX/.L.K.' J #.|.2XOXN.q.q.q.q.0.N.w.| & . .                               ",
"                        . . $ B { :.).|.+XrXuXfXbXCXjX6.K &.|.qX].z d f f f f f f 9 X . .                               ",
"                        . . $ b K #.|.2X2X2X=XuXCXDXBX6.K #.[.qX(.h 0 e w 0 w 0 w 7 X . .                               ",
"                        . . $ m ! &.|.2X2X2X2XrXmXSXxX7.C &.|.qX].l p a a a p d d 8 X . .                               ",
"                        . . $ b ! &.|.2X4X2X2X4XtXaX,X*.K &.[.qX[.G D D D D D D D c $ . .                               ",
"                        . . $ m ! &.|.2X2X2X2X2X=X2X|.#.K #.|.2X|.=.K Y K K Y K ! N $ . .                               ",
"                        . . $ b ! +.|.2X2X+X[.+X2X2X|.&.K #.|.qX|.&.Y Y Y ! Y Y ! b $ . .                               ",
"                        . . $ m ! &.[.qX.X1.#.1.[.qX|.#.K &.|.qX|.&.K ( Y Y Y Y K m $ . .                               ",
"                        . . $ b ! #.|.2X|.#.K #.[.qX|.&.K *.|.2X|.&.K K K K K Y ! b $ . .                               ",
"                        . . $ m ! +.|.qX|.>.[ -._.%X).#.K #.|.2X[.:.) ) ` ( ` ( { B $ . .                               ",
"                        . . $ b ! &.[.qX#Xn.i.p.C.A.n.` Y #.+X2X#Xm.y.i.p.i.p.i.i.<.& . .                               ",
"                        . . $ m ! &..XqX%XA.j.n.j.n.i.` K *.[.qX#XA.j.n.j.V.V.j.n.<.- . .                               ",
"                        . . $ b C @.^.|._.F.A.C.C.A.n.` Y #.[.qX.XA.j.V.j.n.j.n.n.<.- . .                               ",
"                        . . $ b ! ( #.#.2._.OX%X#X%X_.#.K &.|.2X#XA.j.j.V.n.j.V.n.<.- . .                               ",
"                        . . $ b ! K K K #.|.qX2X2XqX|.&.K #.[.qX#XA.V.j.V.V.j.V.V.<.- . .                               ",
"                        . . $ B { { ` ( -.)..X.X2XqX[.&.K &.|.qXoXN.0.0.0.w.q.q.w.| - . .                               ",
"                        . . &  .p.i.i.i.y.&.#.2.[.qX|.&.K &.|.qX'.z d f f f f f f 9 X . .                               ",
"                        . . - X.V.j.j.j.i.( J #.[.qX|.#.K #.[.qX(.h 0 0 w 0 w w w 7 X . .                               ",
"                        . . -  .p.p.A.A.n.` K #.|.qX|.&.K #.|.qX'.l p d a a p a a 8 X . .                               ",
"                        . . $ B [ >._.%X_.#.K &.|.2X|.#.K &.|.qX[.G S S D D D D D c $ . .                               ",
"                        . . $ b ! &.|.qX|.#.K #.|.2X|.&.K &.[.2X|.=.! ! ! ! C [ ] m $ . .                               ",
"                        . . $ m ! &.[.qX|.2.' 2.,XsX,X&.K &.|.qX[.G S D D D D D F c $ . .                               ",
"                        . . $ b K #.|.2X2X.X|.,XbXSXxX7.K &.|.qX].l p a a a a a a 8 X . .                               ",
"                        . . $ m ! -.|.qX2X2X2XaXCXDXNX7.C &.[.qX(.h 0 u r i r r i 7 X . .                               ",
"                        . . $ B { -.^.|.[.2X=XaXSXDXNX7.C &.[.qX(.l i 0 i i i i i 7 X . .                               ",
"                        . . &  .p.t.>.#.2.|.qXtXAXDXNX7.C &.|.qX(.l i i i i r r i 7 X . .                               ",
"                        . . - X.V.i.( J #.|.=XtXAXDXVX7.C &.[.qX(.h 0 i 0 0 r r i 7 X . .                               ",
"                        . . - X.V.p.) K &.,XtXfXbXCXkX7.K #.[.qX(.z p p d a a a a 8 X . .                               ",
"                        . . - X.j.p.) C 7.xXSXbXT.L.K.` K *.|.qX].G D D D D D D F c @ . .                               ",
"                        . . - X.V.p.) C 6.NXDXVXP.j.y.) Y #.|.2X[.&.P P K K K ! ! N $ . .                               ",
"                        . . - X.V.p.+.) 7.kXCXzXL.j.y.` K #.|.qX[.&.P T [ K ! ! ! m $ . .                               ",
"                        . . - X.V.n.p.p.p.L.Y.L.n.j.p.) K #.|.2X.X&.Y Y Y Y Y Y ! m $ . .                               ",
"                        . . - X.j.j.j.j.j.j.j.j.j.j.i.[ K #.|.qX.X&.K Y Y Y Y Y ! b $ . .                               ",
"                        . . - O.D.A.A.A.A.A.A.A.A.A.C.9.6.G./.+X~.+.J Y Y Y Y Y ! m $ . .                               ",
"                        . . < R.%X#X#X#X#X#X#X.X%X#X,XzXVXjX9.#.+.( K K Y Y Y Y ! b $ . .                               ",
"                        . . < W.wXqXqXqXqXqXqXqXqXqXdXAXDXNX8.R ! Y ! Y Y Y Y ! ! N $ . .                               ",
"                        . . < H.!.W.W.W.W.W.W.W.W.W.:XhXMXgXA b b m b m m b b m m x $ . .                               ",
"                              : < < < < < < < < : < 1 4 4 2 & $ $ $ $ $ $ $ $ $ $ $                                     ",
"                              . . . . . . . . . . . . . . . . . . . . . . . . . . .                                     ",
"                              . . . . . . . . . . . . . . . . . . . . . . . . . . .                                     ",
"                                                                                                                        ",
"                                                                                                                        ",
"                                                                                                                        "
};
