/* XPM */
static char *coin_7__1_1705328636[] = {
/* columns rows colors chars-per-pixel */
"60 60 247 2 ",
"   c None",
".  c black",
"X  c #130406",
"o  c #140505",
"O  c #140606",
"+  c #1B0C03",
"@  c #1B0D03",
"#  c #1C0D03",
"$  c #1D0D03",
"%  c #1C0C04",
"&  c #1D0E04",
"*  c #1D0F04",
"=  c #1C1305",
"-  c #1E1305",
";  c #1C1206",
":  c #1D1406",
">  c #1E1406",
",  c #1E190A",
"<  c #1D1B0B",
"1  c #1E1B0B",
"2  c #1E1B0D",
"3  c #1E1E1C",
"4  c #1E1E1E",
"5  c #371A07",
"6  c #38260E",
"7  c #382C10",
"8  c #8D202D",
"9  c #8E212C",
"0  c #8E202D",
"q  c #97292B",
"w  c #982F2D",
"e  c #9F2232",
"r  c #A02332",
"t  c #A12432",
"y  c #A02433",
"u  c #A12433",
"i  c #A12533",
"p  c #A22533",
"a  c #A22633",
"s  c #A32633",
"d  c #AB2E30",
"f  c #AC2F30",
"g  c #AD2F31",
"h  c #AC3432",
"j  c #AC3633",
"k  c #AE3633",
"l  c #AB3B38",
"z  c #AC3C38",
"x  c #AC3D38",
"c  c #B54536",
"v  c #B64B38",
"b  c #C25C1A",
"n  c #D05F1F",
"m  c #D9671D",
"M  c #DA681D",
"N  c #DA691D",
"B  c #DA681E",
"V  c #DB681E",
"C  c #DD691E",
"Z  c #DD6B1F",
"A  c #DA6D1F",
"S  c #F6731F",
"D  c #DA7324",
"F  c #EC6B23",
"G  c #EC6C24",
"H  c #EE6D24",
"J  c #EE7B2B",
"K  c #F67320",
"L  c #F37421",
"P  c #F67420",
"I  c #F67421",
"U  c #F77421",
"Y  c #F67521",
"T  c #F77521",
"R  c #F77621",
"E  c #F77622",
"W  c #F77722",
"Q  c #F87521",
"!  c #F87621",
"~  c #F87721",
"^  c #F87622",
"/  c #F97722",
"(  c #FA7722",
")  c #F77B22",
"_  c #F77B23",
"`  c #F77C24",
"'  c #FA7821",
"]  c #F97D24",
"[  c #C78828",
"{  c #D68A2D",
"}  c #DF932B",
"|  c #DF992D",
" . c #F78227",
".. c #F88226",
"X. c #F48028",
"o. c #F78128",
"O. c #F78228",
"+. c #F78229",
"@. c #F78329",
"#. c #F7832B",
"$. c #F88329",
"%. c #F98329",
"&. c #F88429",
"*. c #F8872A",
"=. c #F8882A",
"-. c #F8892B",
";. c #F8892D",
":. c #F88D2F",
">. c #E09A2D",
",. c #E09A2E",
"<. c #E19A2E",
"1. c #E39C2F",
"2. c #F88F30",
"3. c #F7853A",
"4. c #F7853B",
"5. c #F7863C",
"6. c #F88B3B",
"7. c #F29D33",
"8. c #F39D33",
"9. c #F49F34",
"0. c #FCA12F",
"q. c #FCA330",
"w. c #FDA630",
"e. c #FDA631",
"r. c #FDA731",
"t. c #FDA832",
"y. c #FFA832",
"u. c #FDAC30",
"i. c #FDAC31",
"p. c #FDAC32",
"a. c #FDAD32",
"s. c #FDAD33",
"d. c #FEAD32",
"f. c #FEAD33",
"g. c #FEAE33",
"h. c #FEAF33",
"j. c #FDA934",
"k. c #FEAE34",
"l. c #FEAF34",
"z. c #FFAF34",
"x. c #FDAE37",
"c. c #FEAF36",
"v. c #F4A639",
"b. c #FAB137",
"n. c #FFB034",
"m. c #FDB338",
"M. c #FEB338",
"N. c #FEB439",
"B. c #FEB539",
"V. c #FEB639",
"C. c #FEB53B",
"Z. c #FEBA3E",
"A. c #F89242",
"S. c #C7B54C",
"D. c #DEBF4E",
"F. c #FDB148",
"G. c #FEB549",
"H. c #FEB649",
"J. c #FEB749",
"K. c #FEB74A",
"L. c #FEB74B",
"P. c #FEB74C",
"I. c #FEB84C",
"U. c #FEBF5F",
"Y. c #DFCB54",
"T. c #DFCB55",
"R. c #DFCC54",
"E. c #E2C14F",
"W. c #E3C751",
"Q. c #E1CC56",
"!. c #E0CD56",
"~. c #FCCD52",
"^. c #FCCE53",
"/. c #FCCF53",
"(. c #F2CF5B",
"). c #FDD455",
"_. c #FEDA56",
"`. c #F3D05B",
"'. c #F4D15B",
"]. c #FBD859",
"[. c #FDD958",
"{. c #FDD959",
"}. c #FDDA58",
"|. c #FDDA59",
" X c #FDDA5A",
".X c #FDDB5A",
"XX c #FEDB5A",
"oX c #FCDE5B",
"OX c #FDDF5B",
"+X c #FDE05A",
"@X c #FEE05A",
"#X c #FEE05B",
"$X c #FEE05C",
"%X c #FEE15C",
"&X c #FFE15C",
"*X c #FDE65E",
"=X c #FDE65F",
"-X c #FEE65F",
";X c #DFCD66",
":X c #FDDC6A",
">X c #FDDD6D",
",X c #FDE560",
"<X c #FDE760",
"1X c #FEE660",
"2X c #FEE760",
"3X c #FEE761",
"4X c #FEE763",
"5X c #FEE860",
"6X c #FFE960",
"7X c #FEE861",
"8X c #FEE961",
"9X c #FFE961",
"0X c #FFEA61",
"qX c #FEE862",
"wX c #FEE962",
"eX c #FFE962",
"rX c #FFEB62",
"tX c #FEE26C",
"yX c #FEE971",
"uX c #FEE972",
"iX c #FEE973",
"pX c #FEEA74",
"aX c #FFEB74",
"sX c #FFEC74",
"dX c #FEEB81",
"fX c #E0DED0",
"gX c #FEE6CF",
"hX c #FEECD1",
"jX c #FDECD4",
"kX c #FEF2D5",
"lX c #FEF2D6",
"zX c #FEF3D9",
"xX c #FEF9DB",
"cX c gray88",
"vX c #E0E0E1",
"bX c #FEEEE4",
"nX c #FEEEE5",
"mX c #FEF0E5",
"MX c #FEF5E6",
"NX c #FEF5E7",
"BX c #FEF5E9",
"VX c #FEF6E9",
"CX c #FEFAEB",
"ZX c #FEFCEC",
"AX c #FFFCEC",
"SX c #FEFCEE",
"DX c white",
/* pixels */
"                                                                                                                        ",
"                                                                                                                        ",
"                                                                                                                        ",
"                        . . . . . . . . . . . . . . . . . . . . . . . . . . . . . . . . . . . .                         ",
"                        . . . . . . . . . . . . . . . . . . . . . . . . . . . . . . . . . . . .                         ",
"                        1 1 1 2 < < 2 2 < < < 2 < < < 2 < 2 4 4 4 4 4 4 2 1 1 # # & & # & & & &                         ",
"                  . . < S.Q.R.T.Q.Q.R.R.Q.Q.R.Q.Q.T.Q.R.Y.;XfXcXcXcXcXfX;XR.E.D m m m m m m m b & . .                   ",
"                  . . < Q.7X7X7X7X7X7XrX7X7X7X7X7X7X7X7X7XsXAXDXDXDXDXZXsX7X X$.( ( L ( ( ( ( m & . .                   ",
"                  # + 6 E. X X X_. X X X X X X]. X X X X_.:XjXnXnXbXnXjX:X X^.:.+.` ( L ( L ( Z 5 + #                   ",
"            . . # b B Z +.+.+.+.+.+.+.+.+.+.+.+.+.$.+.+.+.+.3.5.5.5.3.3.*. .:.^. X^.+.( L ( L L Z m b # . .             ",
"            . . & m ( ( U U L L U U U U L L L U L L L U L L U U U S S S U ( +. X7XOX+.L ( L L ( ( ( B & . .             ",
"            . . & A ] ` ` ` ] ` ` ` ` _ ] ] ` ` ] ] ] ] ] ` ` _ ` ` _ ] L L +. X3X X+.U ( ` ( L L ( m & . .             ",
"            . . - } e.e.e.t.r.r.r.r.r.r.r.r.r.r.r.r.e.e.e.e.e.t.r.r.r.9.] L +._.3X X+.L ( ( L ( ( L m & . .             ",
"            . . > | z.z.z.z.s.z.z.s.z.d.z.z.s.z.z.z.z.d.d.d.d.d.s.z.z.r.] L +. X3X X$.L L L L ( L ( m & . .             ",
"            . . > | z.z.z.z.j.t.e.t.b.N.m.z.d.s.r.r.j.G.P.G.n.z.z.s.z.e.] U +. X3X X=.] ` ` ` ` ] ] A % . .             ",
"            . . > | z.z.z.s.t. .` =.).%X_.m.d.t. ._ 6.gXVXhXG.z.s.z.z.e._ U +. X3XOXz.e.t.e.t.e.e.t.>.- . .             ",
"            . . ; | z.z.z.z.t.` L $. X3X#XN.d.e.` U 3.nXDXMXG.d.s.z.s.r.` L +. X3X#XN.n.n.n.z.z.d.d.,.; . .             ",
"            . . : | z.s.z.d.e.` L $. X7X%XZ.N.z.*. .A.mXDXMXI.s.z.s.z.j.` U *. X3XoXv.7.7.7.7.7.9.v.{ ; . .             ",
"            . . : | z.z.s.z.e.` U +. X3X3X#X#XOX]. X>XCXDXMXP.s.s.n.z.r.` U +.].7X`.v h h j j j j j w O . .             ",
"            . . : | z.s.z.s.e._ S $. X3X3X3X3X3X3X3XpXAXDXMXG.s.t.z.s.r.` U +.].7X(.x e i e i i u t 0 o . .             ",
"            . . : ,.z.z.e.e.e.*.+.:. X3X3X3X3X3X3X-XpXxXZXzXU.G.G.n.z.r.` U +.[.7X`.c d d f g d g g q o . .             ",
"            . . : ,.z.e. ._ *.~. X X3X3X3X3X3X3X3X-X3XpXpXdXzXVXhXG.s.r.` U +. X7X].J H H H F F F H n % . .             ",
"            . . > | z.e.` U $. X7X3X3X-X3X3X3X3X3X3X3X-X*XpXZXDXMXP.d.r.` U +. X7X_.*.L L ( L S L ( m & . .             ",
"            . . > | n.e.` U +.[.3X3X3X3X-X%XOXOX_. X].*X-XpXZXDXMXP.d.r.` U +.[.7X X+.L ( L ] ( ( ( m & . .             ",
"            . . > | n.t.` L $.[.3X3X3X3X#XJ.N.z.*.+.2. X7XpXAXDXMXL.t.t.` L $.[.3X X$.L / / E E L ( m & . .             ",
"            . . > | z.e._ ( $.[.3X3X3X3X#Xb.z.e._ U  . X-XpXAXDXMXL.d.t.] L $._.3X X$.U L L L L L ( m & . .             ",
"            . . > | d.t._ L $. X3X3X7X7X#XV.z.t. ._ =.).#XtXkXVXhXL.s.r._ L $. X7X X;.` ] ` ` ` ] ] A & . .             ",
"            . . > | n.e.` L $. X3X3X-X-X#XV.t.z.r.r.t.b.N.N.G.P.L.z.d.r.` L $. X-XOXx.e.t.e.r.r.e.t.>.& . .             ",
"            . . > | z.t.] L +. X3X3X3X3XOXN.d.d.d.z.z.d.d.z.s.u.s.d.z.r._ U *. X7X#XN.d.s.z.s.z.z.n.,.> . .             ",
"            . . > | z.e.] L +._.3X3X3X3X%XZ.N.N.m.N.m.N.N.C.K.G.G.n.z.r.` U +.).7X#XN.d.z.s.x.z.z.d.| > . .             ",
"            . . > | z.e._ L +. X3X3X3X3X3X%XOX%X%XOX#X#X+XtXkXVXhXG.d.e.` U +. X7X#XN.z.s.z.s.z.z.z.,.- . .             ",
"            . . > | z.e.] L +. X7X3X3X3X3X3X3X3X7X7X7X7X<XpXZXDXMXI.d.e.` L *. X7X%XN.d.z.s.z.z.z.z.,.> . .             ",
"            . . > | z.t. .` =.).OXOX%X%XOX%X%XOX X X X-X-XpXCXDXMXI.d.t.` L +. X3XoXv.7.7.7.7.9.8.9.{ - . .             ",
"            . . > | n.j.t.e.t.n.m.m.m.N.N.m.N.z.-.+.2.].-XpXAXDXMXG.d.r.` U +. X7X`.v h h j j j j j w o . .             ",
"            . . > | z.z.s.z.n.s.z.z.d.z.z.j.z.e.] S +. X3XpXZXDXMXP.d.r.` U +._.7X`.x e e i i e t t 8 X . .             ",
"            . . > | z.z.t.t.t.m.N.m.m.m.m.z.z.e._ L +. X-XpXZXDXMXP.d.r.` U +. X7X`.c d h f f f d h q o . .             ",
"            . . > | z.t. .` =.).OX%XOX%X_.m.z.e.` U *.[.-XpXZXDXMXP.d.r.` L +. X3X].J H F H H G G H n # . .             ",
"            . . > | z.t.` L +. X3X3X3X3XOXm.z.e._ U +. X3XuXZXDXMXP.d.r.] L  . X3X_.*.S ( L S _ ( ( B # . .             ",
"            . . > | n.e._ ( +. X3X3X3X3X%XZ.m.z.=. .:.].-XuXCXDXMXP.d.r.` U +. X3X].J G G H H H F H n & . .             ",
"            . . > | d.e._ L +. X3X3X3X3X3X%XOXOX X X X3X-XpXCXDXMXP.d.r.` U +. X7X`.c d d f d d g g q o . .             ",
"            . . > | z.e.` L $. X3X3X3X3X3X3X3X3X3X3X3X<X*XyXCXDXMXP.d.r.` U +.[.7X`.x e i i i i i i 0 X . .             ",
"            . . > | z.t. ._ *.^. X X-X3X3X3X3X3X3X3X3XyXyXdXzXNXhXG.d.r.` U +._.7X`.x i i a a a s s 9 X . .             ",
"            . . > | z.d.t.t.0.=.+.:. X3X3X3X3X3X3X<XyXxXSXzXU.L.G.z.z.r.` U *.].7X`.x i a a a a i s 9 X . .             ",
"            . . > | z.z.z.d.e.] U $. X3X3X3X3X3X3X3XyXSXDXNXL.u.s.s.z.e.` L +. X7X`.x e i i i i i t 0 X . .             ",
"            . . ; | z.z.z.s.r.` L *.[.3X3X%X%XoX]. X>XCXDXNXL.s.z.s.z.r.` U +. X7X`.c d f f f f d h q X . .             ",
"            . . ; | z.s.z.z.r.` L +.[.3X%XZ.m.z.=. .A.mXDXNXL.s.s.z.s.r._ U +.].7X].J F H G G G G H n % . .             ",
"            . . : | z.z.s.z.r.` U +. X7XOXN.d.e._ S 3.bXDXNXL.s.z.s.z.r.] U  . X7X X..( L ( L ] ( ( B & . .             ",
"            . . : | z.s.z.z.r. .` *.).%X_.m.d.t. ._ 6.gXNXhXL.s.s.z.s.r.] L +. X-X X*.L ( L ( S L ( m & . .             ",
"            . . > | n.z.z.z.t.t.t.t.b.N.m.z.z.t.t.e.j.G.I.G.z.z.x.z.d.r.` L +. X7X X+.L ] ( E E E / m & . .             ",
"            . . > | n.n.s.s.z.d.z.d.z.d.z.d.s.z.z.d.d.d.d.d.s.d.s.s.d.r.` U  . X7X X+.L L U L E / / m & . .             ",
"            . . > [ 1.1.b.N.N.N.m.N.N.N.N.N.N.N.N.N.N.N.m.C.G.I.P.P.P.F.-.+.-.). X^.] ( ( L / U C m b & . .             ",
"                  > = 7 W.%X#X#X%X#X#X#X#X#X#X#X#X#X%X%X#XtXkXVXMXMXVXkX:X].^.:.#.] _ L L ( / C 5 % &                   ",
"                  . . < Q.7X7X7XrX7X7X7X7X7X7XrX7X7X7X7X-XpXAXDXDXDXDXAXpX7XOX$.( ( ( L L ( ( B & . .                   ",
"                  . . < S.Q.Q.Q.T.R.Q.T.T.T.T.T.Q.Q.Q.R.Q.;XfXcXcXcXcXfX;XR.D.D m m m m m m Z b & . .                   ",
"                        < < 2 2 2 2 1 1 1 1 2 2 < 1 < < < 2 4 4 4 4 4 4 2 , , & # & & & & & & #                         ",
"                        . . . . . . . . . . . . . . . . . . . . . . . . . . . . . . . . . . . .                         ",
"                        . . . . . . . . . . . . . . . . . . . . . . . . . . . . . . . . . . . .                         ",
"                                                                                                                        ",
"                                                                                                                        ",
"                                                                                                                        "
};
