/* XPM */
static char *enemy_5_removebg_preview__1_1705333502[] = {
/* columns rows colors chars-per-pixel */
"60 60 181 2 ",
"   c None",
".  c #260915",
"X  c #280A16",
"o  c #260E1D",
"O  c #2C0C1C",
"+  c #340D1D",
"@  c #30111F",
"#  c #280B25",
"$  c #26072E",
"%  c #29072E",
"&  c #26092F",
"*  c #2C0B2E",
"=  c #330C24",
"-  c #3A0D24",
";  c #330A2A",
":  c #390B2C",
">  c #291A21",
",  c #351324",
"<  c #381022",
"1  c #3D152A",
"2  c #301E29",
"3  c #34152F",
"4  c #2C0732",
"5  c #260930",
"6  c #2B0932",
"7  c #310736",
"8  c #330A34",
"9  c #390B32",
"0  c #35093B",
"q  c #390A3D",
"w  c #3F1436",
"e  c #302228",
"r  c #3D222F",
"t  c #2D283F",
"y  c #382A37",
"u  c #33263E",
"i  c #332A3F",
"p  c #392737",
"a  c #3E313B",
"s  c #4A0E1B",
"d  c #561018",
"f  c #5E111A",
"g  c #49192C",
"h  c #511F2D",
"j  c #410D31",
"k  c #430C3C",
"l  c #401F31",
"z  c #44193C",
"x  c #481B3F",
"c  c #541E34",
"v  c #6F1C24",
"b  c #54202D",
"n  c #402332",
"m  c #452338",
"M  c #492638",
"N  c #522235",
"B  c #592036",
"V  c #4B343B",
"C  c #533537",
"Z  c #5C3C36",
"A  c #523538",
"S  c #55393A",
"D  c #583B39",
"F  c #5C4035",
"G  c #6B412F",
"H  c #634137",
"J  c #6A4334",
"K  c #694936",
"L  c #62423A",
"P  c #694439",
"I  c #6A4A3F",
"U  c #744632",
"Y  c #7A4C34",
"T  c #724839",
"R  c #7B4B3E",
"E  c #755435",
"W  c #370E40",
"Q  c #3D0B41",
"!  c #2E2A42",
"~  c #332C44",
"^  c #342E4A",
"/  c #382D48",
"(  c #3B2F45",
")  c #36314C",
"_  c #39324C",
"`  c #3B3552",
"'  c #3E3956",
"]  c #3F3A58",
"[  c #420B46",
"{  c #490C46",
"}  c #460C4A",
"|  c #4B0C4D",
" . c #451243",
".. c #4A1445",
"X. c #4B1B43",
"o. c #4C104C",
"O. c #4D0B50",
"+. c #443444",
"@. c #433A4D",
"#. c #4B3D49",
"$. c #48374A",
"%. c #593D43",
"&. c #573F49",
"*. c #433B54",
"=. c #4A3D52",
"-. c #443B5A",
";. c #4B3D5B",
":. c #673653",
">. c #463D60",
",. c #4C414E",
"<. c #514247",
"1. c #53424D",
"2. c #514350",
"3. c #53445C",
"4. c #604549",
"5. c #694F4B",
"6. c #6E4A44",
"7. c #714D44",
"8. c #755349",
"9. c #735849",
"0. c #694758",
"q. c #494264",
"w. c #52446B",
"e. c #55486D",
"r. c #565669",
"t. c #574871",
"y. c #584972",
"u. c #674661",
"i. c #7A4767",
"p. c #724E6F",
"a. c #A6262B",
"s. c #C72829",
"d. c #834C2D",
"f. c #8E4E2E",
"g. c #85512A",
"h. c #9A5A2D",
"j. c #995529",
"k. c #875937",
"l. c #8C5A35",
"z. c #875738",
"x. c #935B34",
"c. c #995F3E",
"v. c #9A5C31",
"b. c #A0562B",
"n. c #A05E2E",
"m. c #9E6533",
"M. c #92653B",
"N. c #A5652E",
"B. c #A9642E",
"V. c #BA6627",
"C. c #B1672B",
"Z. c #B06D2D",
"A. c #BE772D",
"S. c #BD782A",
"D. c #A36533",
"F. c #A36837",
"G. c #AB6B33",
"H. c #AB7831",
"J. c #AD7334",
"K. c #B17030",
"L. c #B07139",
"P. c #C46C24",
"I. c #CB7A27",
"U. c #C2742B",
"Y. c #8B5C44",
"T. c #976142",
"R. c #986741",
"E. c #99644D",
"W. c #93714F",
"Q. c #9D7F4B",
"!. c #84536C",
"~. c #83586E",
"^. c #8D5876",
"/. c #875A77",
"(. c #C6882D",
"). c #CB8C2D",
"_. c #CB973E",
"`. c #CD9A32",
"'. c #835C80",
"]. c #966180",
"[. c #9B6285",
/* pixels */
"                                                                                Q W                                     ",
"                                                                      5         o.} 7                                   ",
"                                                                                } } 7                                   ",
"                                                                                0                                       ",
"                                                                              6                                         ",
"                                                                              W         } W                             ",
"                                                                              0         W q                             ",
"                                                                                          W 4                           ",
"                                                                                4         [ 0                           ",
"                                                                            } } } Q 5     | Q                           ",
"                                                                        | O.O.O.O.| 0 $ 5 [ }                           ",
"                                                                      } O.O.O.O.O.O.{ q % 0 }     O.                    ",
"                                                                    q } o.O.O.| O.| | | 0 0 0   | } [                   ",
"                                                                & & q O.O.O.O.o.| { | O.[ 4 %   q 7                     ",
"                                                              5 & & 7 | O.O.O...j : | | [ 4     q                       ",
"                                                              & * 5 % 7 [ O.| k @ 1 o.O.} 4     8                       ",
"                                                              5 5   5 % Q O.{ - < M X.| | Q       5                     ",
"                                                                5 5 5 q { O.k + : X.m ..O.|                             ",
"                                                                      } O.| j + k  .n x | | Q                           ",
"                                                                      | O.{ : - 9 8 r z | | Q                           ",
"                                                                      | O.{ = + # 3 r  .| } 7                           ",
"                                                                    [ O.O.O.9 X - 1 z { { 0 %                           ",
"                                                                    [ | O.O.[ , X + j 7 4 % &                           ",
"                                                                    4 q | O.X.b + X : [ 0 4                             ",
"                                                                    & % q [ N a.d . = { [ 4                             ",
"                                                                      % * 6 b s.f . O { [ 4                             ",
"                                                                        % * l v s . ; { } 7                             ",
"                                                                        % 4 w + X X k O.| 7                             ",
"                                                    t.w.w.              * 4 9 . O ; [ [ 0 *                             ",
"                                                  t.w.;.=.-.            % 7 7 O 9 q 4 % *                               ",
"                                                  t.;.R d.y             & % ; + ; % % %                                 ",
"                                                  w.=.B.j.2                 # O =   %                                   ",
"                                            `.).E.3.+.G g.> r.                @                                         ",
"                                              R.c.G.T.0.r e Q._.              @                                         ",
"                                              q.<.C.U.c.1.<.H.(.              =                                         ",
"                                            e.' ~ V v.S.A.Z.S.D.(           i.:.                                        ",
"                                            >.` i i P d.h.j.C.P ~ ) ' *.' 3.^.].                                        ",
"                                          q.' )     V Y L $.z.9.~ ~ ~ _ ' ' u.!.                                        ",
"                                          -.)       t %.Y.#.*.      ! ~ ~ ^ p ,                                         ",
"                                        -.` ~         ^ 5.9.]             u =                                           ",
"                                        ] _ !         @.1.k.<.W.            1                                           ",
"                                        ] ) !       J.K %.M.E l.            g                                           ",
"                                        -./ !       D n.l.l.Z.D.            ,                                           ",
"                                        '.p.@.    ] ) C N.U.I.k.            o                                           ",
"                                        [.^./.    ] ` a h.P.I.f.          N <                                           ",
"                                        ~.!.~.  *.` ^ F T f.V.G           B                                             ",
"                                              L.6.V V z.@.R b.V           c                                             ",
"                                              k.m.G.D.F.=.7.%.^           ,                                             ",
"                                              *.#.Z N.F.@.8.2.)           O                                             ",
"                                              ] ` V x.F _ 8.2.^           ,                                             ",
"                                            ' ] ^ T B.S / 6.#.~           @                                             ",
"                                          ] ' ] ' +.U x.D P #.~           O                                             ",
"                                        ] ' ' ' ' ^ u C h.Y u !           O                                             ",
"                                        ] ] ] ' ' ^ ^ ~ Z z.H a           o                                             ",
"                                        ] ] ` _ ^ -.' *._ S B.N.        #                                               ",
"                                      ) ` ) ~ ~ ^ ` ` _ ^ ^ S U         o                                               ",
"                                      ! ~ ! ~ ~ ^ ^ ~ ~ ~ ~ ! ~                                                         ",
"                                                                                                                        ",
"                                                                                                                        ",
"                                                                                                                        "
};
