/* XPM */
static char *enemy_1_removebg_preview__1_1705333375[] = {
/* columns rows colors chars-per-pixel */
"60 60 186 2 ",
"   c None",
".  c #260916",
"X  c #280A15",
"o  c #260D1C",
"O  c #2C0B1B",
"+  c #320D1D",
"@  c #2C0B22",
"#  c #27072F",
"$  c #29072E",
"%  c #26092E",
"&  c #2B092D",
"*  c #330D22",
"=  c #390D21",
"-  c #330B2B",
";  c #3A0D2A",
":  c #2D1C25",
">  c #351224",
",  c #3E162A",
"<  c #3D1C2E",
"1  c #371328",
"2  c #270730",
"3  c #2C0731",
"4  c #260831",
"5  c #2B0933",
"6  c #310735",
"7  c #310935",
"8  c #34093A",
"9  c #3A093D",
"0  c #332428",
"q  c #2E2035",
"w  c #2F273F",
"e  c #2C283F",
"r  c #3C2533",
"t  c #33273F",
"y  c #392338",
"u  c #372A3D",
"i  c #3B2C3B",
"p  c #3F303D",
"a  c #490E1B",
"s  c #551018",
"d  c #5E111A",
"f  c #48182C",
"g  c #511E2C",
"h  c #430D3E",
"j  c #430D37",
"k  c #451A3D",
"l  c #41143E",
"z  c #551F34",
"x  c #6E1B25",
"c  c #55202E",
"v  c #412333",
"b  c #462F37",
"n  c #482739",
"m  c #412E3A",
"M  c #4A2238",
"N  c #502331",
"B  c #5A2239",
"V  c #47353B",
"C  c #553939",
"Z  c #563636",
"A  c #764626",
"S  c #6D4937",
"D  c #65443C",
"F  c #68483E",
"G  c #6A4235",
"H  c #734634",
"J  c #784735",
"K  c #724A35",
"L  c #7D4B34",
"P  c #774E39",
"I  c #7E5435",
"U  c #775B36",
"Y  c #3D0B42",
"T  c #3B1046",
"R  c #2F2942",
"E  c #302742",
"W  c #322B44",
"Q  c #3B2E42",
"!  c #352E4A",
"~  c #3A2F4B",
"^  c #37314C",
"/  c #3A334D",
"(  c #3E3247",
")  c #363350",
"_  c #3C3652",
"`  c #3E3956",
"'  c #3F3A58",
"]  c #420C45",
"[  c #450D4A",
"{  c #4A0C4E",
"}  c #480C45",
"|  c #45114C",
" . c #491149",
".. c #491743",
"X. c #4C0C50",
"o. c #423041",
"O. c #4E3E45",
"+. c #473B4F",
"@. c #47384B",
"#. c #503B45",
"$. c #523E49",
"%. c #423A55",
"&. c #4A3D53",
"*. c #423B5B",
"=. c #4B3F5C",
"-. c #483352",
";. c #663551",
":. c #483F63",
">. c #4D414E",
",. c #514042",
"<. c #54444E",
"1. c #5E4548",
"2. c #5F4944",
"3. c #514251",
"4. c #574F5A",
"5. c #684E4A",
"6. c #6A4E42",
"7. c #754A40",
"8. c #735345",
"9. c #745248",
"0. c #664C53",
"q. c #4E4367",
"w. c #4F476A",
"e. c #474365",
"r. c #504260",
"t. c #53446B",
"y. c #574870",
"u. c #5A4871",
"i. c #5A4773",
"p. c #674661",
"a. c #6F4C61",
"s. c #7A4767",
"d. c #7E5477",
"f. c #A6262A",
"g. c #C7272A",
"h. c #804B2F",
"j. c #8A4C2B",
"k. c #95592E",
"l. c #9E5A28",
"z. c #824D30",
"x. c #825534",
"c. c #8C5633",
"v. c #875A37",
"b. c #81503B",
"n. c #8F5C36",
"m. c #935D33",
"M. c #965A32",
"N. c #A45E2E",
"B. c #A95B25",
"V. c #B25D27",
"C. c #8E613D",
"Z. c #966132",
"A. c #9D6332",
"S. c #976338",
"D. c #A8682F",
"F. c #B36E2D",
"G. c #B36629",
"H. c #BD722C",
"J. c #BF7B2E",
"K. c #A16839",
"L. c #A96834",
"P. c #AA7730",
"I. c #B37F37",
"U. c #BE7533",
"Y. c #C36F26",
"T. c #CA7926",
"R. c #C57729",
"E. c #C37C2C",
"W. c #CB7424",
"Q. c #815440",
"!. c #8A594A",
"~. c #955D42",
"^. c #926F48",
"/. c #866358",
"(. c #A66740",
"). c #A16941",
"_. c #AE7653",
"`. c #804E69",
"'. c #84546A",
"]. c #8A5975",
"[. c #96607E",
"{. c #A6803A",
"}. c #CB8D2B",
"|. c #C88632",
" X c #916188",
".X c #966183",
/* pixels */
"                                                                                                                        ",
"                                                                                                                        ",
"                                                                                                                        ",
"                                                                          Y     |                                       ",
"                                                                          3         |                                   ",
"                                                                                                                        ",
"                                                                                    | [                                 ",
"                                                                                    { ]       |                         ",
"                                                                                  ..9       8 [                         ",
"                                                                            T   8 7 4       5 Y                         ",
"                                                                            Y 4 2 3 4         9                         ",
"                                                                            4 $ 2 2 $ 8 |     4                         ",
"                                                                          7 7 5 2 $ $ 6 [ {                             ",
"                                                                        { { Y 7 & & $ $ 9 {     5 9                     ",
"                                                                      [ X.{ 6 - > @ 3 $ 5 Y Y     5 Y                   ",
"                                                                | X.  { { 9 $ - + , ] 6 $ 4         5                   ",
"                                                                [     X.[ 5 & + = n ..9 3 $ 9                           ",
"                                                                7 4 Y X.] 3 - + ; k M l 3 3 ] {                         ",
"                                                                4 $ 7 9 9 3 * = h  .v k ] 6 { { |                       ",
"                                                                4 4 3 $ 3 3 * ; }  .r k { 9 ] [ Y                       ",
"                                                                  4 4 5 $ $ + + j k r  .] 6 3 3 4                       ",
"                                                                      [ 6 9 - O = , f { ] $ 2                           ",
"                                                                    { { 8 ] ..@ O + h { 6 $ $                           ",
"                                                                    [ { 6 6 ..g + X j j 3 $                             ",
"                                                                    7 9 3 & N f.s . + $ 5                               ",
"                                                                      3 & % c g.d . O $ &                               ",
"                                                                      2 # & < x a . o # &                               ",
"                                                    u.t.t.              # & 1 * X . @ 4                                 ",
"                                                  i.q.&.$.%.              4 @ X . @ %                                   ",
"                                                  t.=.b.j.r                   O O                                       ",
"                                                  t.&.D.l.: *.                + *                                       ",
"                                              |._.0.O.H A : 4.                +                                         ",
"                                              /.~.F.(.a.q 0 {.}.              O                                         ",
"                                              e.#.N.R.K.F 2.P.}.              *                                         ",
"                                            w.` W b k.H.E.J.J.D.              >                                         ",
"                                            *._   t D H L j.G.G ^ e.        s.;.                                        ",
"                                          :.' !     V H D ( Q.F w / _ ' ' q.]..X                                        ",
"                                          %.!       w #.!.>.%.    R W / _ _ p.s.                                        ",
"                                        *._ W         ^ 5.8.%.      R W W ! r 1                                         ",
"                                        *.! E         _ 1.v.O.^.          u >                                           ",
"                                        ' ! W       I.U ,.C.I m.            ,                                           ",
"                                        =./ E       c.J.Z.m.F.A.            f                                           ",
"                                         X].-.    *.( H H.T.R.S             >                                           ",
"                                        .X].].    ' _ i l.W.T.c.            o                                           ",
"                                        '.'.    ' ' ^ C M.B.Y.z.          M >                                           ",
"                                        '.].  ).,.^ u P #.J V.Z           B                                             ",
"                                              E.Z.I K S.&.P J (           B                                             ",
"                                              <.F I F.L.%.9.$.)           >                                             ",
"                                              *./ i m.x.( 9.3.!           o                                             ",
"                                              ' / P A.m / 9.3.W           >                                             ",
"                                            ' ' ^ Z k.h.p D @.W           +                                             ",
"                                          ' ' ' ' ! i J c.S o.W           O                                             ",
"                                        %.' ' ' ' ! w u J m.i R           O                                             ",
"                                        ' ' ' ' ' ^ ! W i J M.K           +                                             ",
"                                        ` ' _ ! ^ ' ' _ / Q L N.        o                                               ",
"                                      ! / ^ W W ^ _ ) ^ ^ ! u m         o                                               ",
"                                      W W W W W ! ! W W W W E R                                                         ",
"                                                                                                                        ",
"                                                                                                                        ",
"                                                                                                                        "
};
