/* XPM */
static char *enemy_3_removebg_preview__1_1705333440[] = {
/* columns rows colors chars-per-pixel */
"60 60 189 2 ",
"   c None",
".  c #260916",
"X  c #2A0916",
"o  c #2C0A1B",
"O  c #330D1E",
"+  c #360B17",
"@  c #2B0923",
"#  c #2B072F",
"$  c #2B092F",
"%  c #350C23",
"&  c #3A0D23",
"*  c #340A2C",
"=  c #3B0C2C",
"-  c #2D1A26",
";  c #331423",
":  c #391826",
">  c #3D152B",
",  c #371929",
"<  c #3A1C2C",
"1  c #2D0732",
"2  c #2C0B32",
"3  c #310735",
"4  c #320935",
"5  c #340939",
"6  c #3A093D",
"7  c #390A35",
"8  c #2E1135",
"9  c #321336",
"0  c #3A1834",
"q  c #33153A",
"w  c #361F3D",
"e  c #312229",
"r  c #3F2432",
"t  c #33233D",
"y  c #31293F",
"u  c #3D2E3C",
"i  c #362335",
"p  c #480E1C",
"a  c #541018",
"s  c #5C101A",
"d  c #451F2F",
"f  c #501F29",
"g  c #440D3B",
"h  c #420D36",
"j  c #43143C",
"k  c #451A3D",
"l  c #461F33",
"z  c #6D1B24",
"x  c #422332",
"c  c #492438",
"v  c #562537",
"b  c #4C353A",
"n  c #4E383F",
"m  c #41333E",
"M  c #523537",
"N  c #5B3C35",
"B  c #543638",
"V  c #56393A",
"C  c #583C3A",
"Z  c #7F4E2F",
"A  c #6A4233",
"S  c #62423B",
"D  c #694439",
"F  c #6A493C",
"G  c #644237",
"H  c #734633",
"J  c #7A4C34",
"K  c #70473A",
"L  c #734938",
"P  c #7C4C3D",
"I  c #755334",
"U  c #3E0A42",
"Y  c #3D1B42",
"T  c #391842",
"R  c #342D45",
"E  c #382D46",
"W  c #352F4A",
"Q  c #373147",
"!  c #3B3145",
"~  c #36314B",
"^  c #39344C",
"/  c #3C394F",
"(  c #3B3551",
")  c #3E3955",
"_  c #3F3A58",
"`  c #420B45",
"'  c #480C45",
"]  c #460C4A",
"[  c #4B0C4D",
"{  c #481245",
"}  c #45124A",
"|  c #4A134D",
" . c #451948",
".. c #4C0B50",
"X. c #4F1954",
"o. c #511754",
"O. c #592D42",
"+. c #453443",
"@. c #443B4D",
"#. c #4B3C4A",
"$. c #493847",
"%. c #573F48",
"&. c #583C43",
"*. c #4D2055",
"=. c #403756",
"-. c #433A52",
";. c #4A3D52",
":. c #433D59",
">. c #4A3D5A",
",. c #6D3F5B",
"<. c #4E414F",
"1. c #584449",
"2. c #534346",
"3. c #45415C",
"4. c #4A415E",
"5. c #504251",
"6. c #59455A",
"7. c #684846",
"8. c #724D44",
"9. c #69504A",
"0. c #745348",
"q. c #735945",
"w. c #684859",
"e. c #494461",
"r. c #4C4768",
"t. c #4C4A61",
"y. c #53466C",
"u. c #534A6C",
"i. c #564A64",
"p. c #545163",
"a. c #5D4F74",
"s. c #5D5473",
"d. c #674561",
"f. c #724E6E",
"g. c #605276",
"h. c #635279",
"j. c #7D6860",
"k. c #A82629",
"l. c #C72729",
"z. c #8E4E2F",
"x. c #834B2A",
"c. c #9E562B",
"v. c #9A5A2D",
"b. c #995324",
"n. c #875A37",
"m. c #8D5A35",
"M. c #875738",
"N. c #935730",
"B. c #935B33",
"V. c #995E3F",
"C. c #9B5D31",
"Z. c #A25E2E",
"A. c #9E6536",
"S. c #92653B",
"D. c #A6652D",
"F. c #AA622E",
"G. c #B86827",
"H. c #B5682A",
"J. c #BE772C",
"K. c #BE782B",
"L. c #A76631",
"P. c #AC6B32",
"I. c #A56838",
"U. c #AC7837",
"Y. c #B27030",
"T. c #C36C24",
"R. c #CA7927",
"E. c #C2742B",
"W. c #8E5F40",
"Q. c #885948",
"!. c #8C6346",
"~. c #906541",
"^. c #996143",
"/. c #976752",
"(. c #9D7051",
"). c #917559",
"_. c #A07C42",
"`. c #B27842",
"'. c #84536C",
"]. c #835870",
"[. c #8C5A76",
"{. c #876078",
"}. c #8C6778",
"|. c #C98F39",
" X c #CB9037",
".X c #CC973C",
"XX c #CFA447",
"oX c #875F84",
"OX c #996786",
/* pixels */
"                                                                                                                        ",
"                                                                                    R         t                         ",
"                                                                                                                        ",
"                                                                                                                        ",
"                                                                                                                        ",
"                                                                                                                        ",
"                                                                                                                        ",
"                                                                    8          .o.o.|             t                     ",
"                                                                  Y         *.} X.| ] Y                                 ",
"                                                                          T ] }   Y 5 q                                 ",
"                                                                    X.}   9 ` U 4 1 1 8                                 ",
"                                                                  X.`  .t 5 [ ..] ` ` 6 1 2                             ",
"                                                                  |  .  5 ` ......[ [ [ U # 8                           ",
"                                                                  T U 2 5 [ ..[ | ' [ ..U 1 2                           ",
"                                                                    U 5 6 [ [ { = = [ ..U 1 2                           ",
"                                                                  T ] ` ` ..[ g & > [ [ 3 1 8                           ",
"                                                                  q U ] ..[ ' & ; c  .' 3 5                             ",
"                                                                    2 5 ] ] h O = { c j 6 U                             ",
"                                                                      8 6 6 = & U { r 0 U `                             ",
"                                                                      q 3 7 % & ' | r 0 ` U 9                           ",
"                                                                        1 $ o & h k r { ] 1 8                           ",
"                                                                        1 6 * o & > k [ 6 2 q                           ",
"                                                                      8 4 [ g o X & g ] 1 9                             ",
"                                                                      2 6 [ k f + X = g 1                               ",
"                                                                      8 ` | v k.a . O ' 1 9                             ",
"                                                                      2 ` [ f l.s . o ` 4 8                             ",
"                                                                      8 6 | l z p . * 4 1 9                             ",
"                                                                        1 ` j O . o 7 2 2                               ",
"                                                    g.y.u.              8 5 * X . * 4 $                                 ",
"                                                  g.y.=.;.4.              8 @ X @ 4 2 9                                 ",
"                                                  a.>.Q.x.u                 0 O , 0                                     ",
"                                                  y.;.F.b.e                   ;                                         ",
"                                            XX X/.6.$.A x.- p.                ;                                         ",
"                                              (.S.P.^.w.e e _..X              ;                                         ",
"                                              r.%.H.E.W.1.2.U.|.              >                                         ",
"                                            s.=.E B v.E.K.Y.K.A.;.          '.w.                                        ",
"                                            e./ @.E F J v.c.H.D R / :.3.3.i.[.OX                                        ",
"                                          r.) )     B J C +.M.j./ R R ^ ) =.d.].                                        ",
"                                          :.~       ^ &.Q.5.;.      / R Q E i x                                         ",
"                                        e.( ~         ^ 9.q.:.            ! <                                           ",
"                                        3.~ ~         @.7.n.<.).            d                                           ",
"                                        _ ~ !       U.F $.S.I ~.            c                                           ",
"                                        >.W Q       C Z.m.m.H.^.            r                                           ",
"                                        oXf.;.    e.! M D.E.R.M.            -                                           ",
"                                        OX[.{.    :.^ u c.T.R.N.          O.c                                           ",
"                                        [.'.}.  3.) R S K z.G.A           O.                                            ",
"                                              `.F +.b M.@.P Z.b           v                                             ",
"                                              !.A.P.D.I.-.8.&.^           0                                             ",
"                                              3.#.N D.I.@.0.5.(           :                                             ",
"                                              :.^ b B.N ^ 0.<.W           <                                             ",
"                                            :._ ^ L D.B W 7.<.W           :                                             ",
"                                          3.) _ =.E H N.B D $.R           ;                                             ",
"                                        t.:._ _ _ W R M v.J y R           ;                                             ",
"                                        :._ _ ) ) ~ R R N m.G m           <                                             ",
"                                        _ _ ( ~ ~ ) _ ) ~ V F.L.        -                                               ",
"                                      ) ( W R R ~ ( ( ~ ~ R V H         -                                               ",
"                                      / / Q Q ^ / / ^ Q ^ Q ^ /                                                         ",
"                                                                                                                        ",
"                                                                                                                        ",
"                                                                                                                        "
};
