/* XPM */
static char *enemy_8_removebg_preview__1_1705333616[] = {
/* columns rows colors chars-per-pixel */
"60 60 197 2 ",
"   c None",
".  c #250914",
"X  c #290A17",
"o  c #260918",
"O  c #2C0A1B",
"+  c #340D1D",
"@  c #2A101D",
"#  c #29072E",
"$  c #2C092D",
"%  c #2B0C24",
"&  c #340C24",
"*  c #390D21",
"=  c #340A2A",
"-  c #3C0C2B",
";  c #2C1C25",
":  c #2F1B28",
">  c #331524",
",  c #321826",
"<  c #31102C",
"1  c #3E142B",
"2  c #331B2C",
"3  c #3B1B2C",
"4  c #2D0732",
"5  c #2C0A32",
"6  c #310736",
"7  c #340936",
"8  c #390A36",
"9  c #340738",
"0  c #340A39",
"q  c #3A0A3C",
"w  c #2D1236",
"e  c #2E1639",
"r  c #2E193B",
"t  c #371037",
"y  c #3C1635",
"u  c #32143A",
"i  c #331B3E",
"p  c #3A1338",
"a  c #312528",
"s  c #3A202F",
"d  c #2F273F",
"f  c #2E2133",
"g  c #3C2434",
"h  c #372A3E",
"j  c #3B2C3B",
"k  c #38253C",
"l  c #4A0E1B",
"z  c #551118",
"x  c #5F111A",
"c  c #511F2D",
"v  c #410D37",
"b  c #440D3C",
"n  c #40103A",
"m  c #43193B",
"M  c #451F34",
"N  c #6E1C24",
"B  c #412333",
"V  c #492739",
"C  c #412F39",
"Z  c #582031",
"A  c #542739",
"S  c #463037",
"D  c #593937",
"F  c #543939",
"G  c #764826",
"H  c #66443B",
"J  c #68493F",
"K  c #6E4336",
"L  c #734634",
"P  c #724932",
"I  c #7D4B34",
"U  c #734D3A",
"Y  c #794735",
"T  c #7D5435",
"R  c #755B38",
"E  c #3D0A41",
"W  c #3A1241",
"Q  c #341F40",
"!  c #3B1B43",
"~  c #371641",
"^  c #352342",
"/  c #332C45",
"(  c #352F49",
")  c #3C2B46",
"_  c #36324B",
"`  c #3A344C",
"'  c #39394E",
"]  c #3C3043",
"[  c #3B3652",
"{  c #3E3956",
"}  c #3F3B58",
"|  c #430C45",
" . c #460C4A",
".. c #4A0C4D",
"X. c #490C45",
"o. c #401746",
"O. c #44174A",
"+. c #49114A",
"@. c #431D4B",
"#. c #4B1C43",
"$. c #4C0C50",
"%. c #4C1352",
"&. c #4D1B55",
"*. c #43244D",
"=. c #402B4B",
"-. c #582C41",
";. c #433241",
":. c #4D3C44",
">. c #47394C",
",. c #503B46",
"<. c #543749",
"1. c #4B2054",
"2. c #4F2A5A",
"3. c #50285A",
"4. c #433B54",
"5. c #4A3D53",
"6. c #423D5A",
"7. c #4B3E5A",
"8. c #4F315A",
"9. c #4E414C",
"0. c #514042",
"q. c #50404C",
"w. c #5F4746",
"e. c #44425D",
"r. c #4E425F",
"t. c #514250",
"y. c #57545F",
"u. c #5F555E",
"i. c #694E47",
"p. c #754B40",
"a. c #735245",
"s. c #785445",
"d. c #67405B",
"f. c #624B54",
"g. c #6C5A54",
"h. c #4B4565",
"j. c #4B4C64",
"k. c #4E4A68",
"l. c #52466B",
"z. c #554B65",
"x. c #5A5274",
"c. c #5F5679",
"v. c #674660",
"b. c #6F4C62",
"n. c #7C526F",
"m. c #7E5874",
"M. c #A52729",
"N. c #C6272A",
"B. c #804B2F",
"V. c #8A4C2B",
"C. c #95592E",
"Z. c #9D5A29",
"A. c #814F3B",
"S. c #835334",
"D. c #8B5532",
"F. c #865A38",
"G. c #8F5934",
"H. c #945C33",
"J. c #935631",
"K. c #A55D2A",
"L. c #B25D27",
"P. c #8E613E",
"I. c #966133",
"U. c #9B6538",
"Y. c #B36D2D",
"T. c #B86B2A",
"R. c #BB732D",
"E. c #BE7B2E",
"W. c #A06839",
"Q. c #A76634",
"!. c #AB7334",
"~. c #C46F27",
"^. c #CA7927",
"/. c #C3742B",
"(. c #C37C2B",
"). c #CB7424",
"_. c #8A594A",
"`. c #935C40",
"'. c #8D6141",
"]. c #906243",
"[. c #9D6F53",
"{. c #8F7557",
"}. c #9E7450",
"|. c #A66740",
" X c #BB7D40",
".X c #87576E",
"XX c #875B70",
"oX c #8B5B77",
"OX c #876F67",
"+X c #856379",
"@X c #CC9037",
"#X c #C8933E",
"$X c #A68140",
"%X c #AF864A",
"&X c #BE8F46",
"*X c #946686",
"=X c #927387",
/* pixels */
"                                                                                                                        ",
"                                                                                                                        ",
"                                                                                                                        ",
"                                                                                                                        ",
"                                                                                                                        ",
"                                                                                                                        ",
"                                                                                                                        ",
"                                                                                                                        ",
"                                                                        *.~     !                                       ",
"                                                                        5 ) *.  !   2.                                  ",
"                                                                        w   W w ^ ^ 8.                                  ",
"                                                                        r Q 6 4 9 w =.^                                 ",
"                                                                          W 8 6 E 5 i e u   W &.                        ",
"                                                                  &.&.  &...E 8 +.q     r   0 ..&.                      ",
"                                                                  %.&.  $. .9 n y & u   )   ~  .%.                      ",
"                                                                  &.  &...E 6 8 + 3 8 # ~ 1.  9 O.                      ",
"                                                                  2.3.$...6 # & > V y 4 q $.$.9 u                       ",
"                                                                  @.$.$...9 & & - m B p 4 E ..! u                       ",
"                                                                @.5 q $.$.9 & * v +.B m | 9 0 0 5 0                     ",
"                                                                O.4 4 E ..9 & * X.+.g m $.q 5 # $                       ",
"                                                                  5 # # E 9 + + v m g t  .q W r r                       ",
"                                                                  5 # 4 4 q = O + 1 m E ..E  .&.                        ",
"                                                                    5 # # | | + O + b $.| 9 $.$.!                       ",
"                                                                      W 9  .#.c + X l ..q 9 | E *.                      ",
"                                                                    &...E  .A M.z . & | 6 # 5 w                         ",
"                                                                    %...q +.Z N.x . O 8 4 # e                           ",
"                                                                    W E 4 | B N l . & 6 # #                             ",
"                                                    x.l.l.            5 # 6 n + . O 8 5 w r                             ",
"                                                  c.h.5.<.e.            5 5 < X o % u                                   ",
"                                                  x.7.S.V.j                   O 2                                       ",
"                                                  l.5.Q.Z.;                   > j                                       ",
"                                              &X[.f.,.K G ; y.                >                                         ",
"                                              OX`.Y.|.b.2 a $X#X              ,                                         ",
"                                              h.,.K./.W.i.w.!.@X              ,                                         ",
"                                            x.{ / S J.E.(.E.(.!.              3                                         ",
"                                            e.{   ` H P I V.T.H { j.        n.d.                                        ",
"                                          k.{ [     :.L H ` T g./ ` 6.e.e.z.oX=X                                        ",
"                                          6._       ` ,._.9.e.    _ / ` [ 4.v.m.                                        ",
"                                        h.[ _         ` i.a.6.      ' / _ _ k g                                         ",
"                                        6._ _         { w.F.>.{.          _ 3                                           ",
"                                        6./ _       %XR 0.P.F.].            B                                           ",
"                                        h.` _       ].(.I.I.Y.].            V                                           ",
"                                        *X.X7.    j.` P T.^.^.U             3                                           ",
"                                        *X.X*X    e.' j Z.).^.J.            :                                           ",
"                                        .XXX    j.{ _ F C.K.~.S.          <.B                                           ",
"                                        +X=X  }.9.( j U ,.Y L.D           -.                                            ",
"                                               XI.T P U.5.p.Y ;.          A                                             ",
"                                              u.i.S.Y.W.>.s.5.[           3                                             ",
"                                              e.[ h J.F.` s.t._           ,                                             ",
"                                              6.` U I.S _ a.t._           g                                             ",
"                                            6.} _ D J.I C J ,._           3                                             ",
"                                          e.{ } { _ j I S.K ) /           >                                             ",
"                                        j.} } } } ( ^ h I J.j /           ,                                             ",
"                                        e.{ { { { ( / / j L H.U           2                                             ",
"                                        } 4.[ _ ( { 4.{ _ / I Q.        2                                               ",
"                                      { [ ( / / ( [ [ _ _ / h ;.        :                                               ",
"                                      ' ` _ _ _ ' ' ' ` ` _ _ '                                                         ",
"                                                                                                                        ",
"                                                                                                                        ",
"                                                                                                                        "
};
