/* XPM */
static char *enemy_7_removebg_preview__1_1705333597[] = {
/* columns rows colors chars-per-pixel */
"60 60 194 2 ",
"   c None",
".  c #260915",
"X  c #260918",
"o  c #2C0B1B",
"O  c #2C0917",
"+  c #330C1E",
"@  c #360B17",
"#  c #2B101C",
"$  c #2C0A23",
"%  c #29062E",
"&  c #2C092E",
"*  c #360C21",
"=  c #390D23",
"-  c #340B2B",
";  c #3A0C2A",
":  c #2C1C25",
">  c #2F1D29",
",  c #321524",
"<  c #371728",
"1  c #3B1728",
"2  c #351C2B",
"3  c #3C1D2D",
"4  c #351626",
"5  c #2D0732",
"6  c #2C0C33",
"7  c #310735",
"8  c #320936",
"9  c #340739",
"0  c #340A3A",
"q  c #3A093E",
"w  c #3A0937",
"e  c #2D1236",
"r  c #2F163A",
"t  c #351531",
"y  c #3B1534",
"u  c #381931",
"i  c #32143A",
"p  c #38103E",
"a  c #321A3C",
"s  c #3A1C36",
"d  c #3A202F",
"f  c #332628",
"g  c #2F283F",
"h  c #2E2034",
"j  c #3D2433",
"k  c #372A3D",
"l  c #3B2C3B",
"z  c #38253B",
"x  c #3F303E",
"c  c #470E1A",
"v  c #541018",
"b  c #5D1019",
"n  c #511F2B",
"m  c #410B3E",
"M  c #40103F",
"N  c #441A3D",
"B  c #451F34",
"V  c #6D1C23",
"C  c #422334",
"Z  c #402F38",
"A  c #482539",
"S  c #562537",
"D  c #473036",
"F  c #563837",
"G  c #553A39",
"H  c #79482B",
"J  c #65433C",
"K  c #6C4B3D",
"L  c #6A463B",
"P  c #734633",
"I  c #7D4B34",
"U  c #754C38",
"Y  c #7E5434",
"T  c #77503A",
"R  c #765C39",
"E  c #3D0B42",
"W  c #3A1744",
"Q  c #351A40",
"!  c #3B1B43",
"~  c #3F1C48",
"^  c #3C2145",
"/  c #332C45",
"(  c #3A2E42",
")  c #3D2549",
"_  c #352F49",
"`  c #352242",
"'  c #383347",
"]  c #36324B",
"[  c #3A344C",
"{  c #39394E",
"}  c #3B3652",
"|  c #3E3A56",
" . c #3F3B59",
".. c #430B45",
"X. c #480C47",
"o. c #460B49",
"O. c #4A0C4D",
"+. c #481246",
"@. c #44154A",
"#. c #421C4B",
"$. c #481A4F",
"%. c #431044",
"&. c #4D0B51",
"*. c #4C1653",
"=. c #4C1B53",
"-. c #42254D",
";. c #5A2C42",
":. c #4D3B43",
">. c #4D3E4C",
",. c #433549",
"<. c #513B45",
"1. c #553748",
"2. c #472050",
"3. c #492453",
"4. c #502258",
"5. c #443B54",
"6. c #4B3D53",
"7. c #413D5A",
"8. c #4B3E5A",
"9. c #4E414C",
"0. c #514042",
"q. c #50414D",
"w. c #5F4648",
"e. c #434057",
"r. c #43415D",
"t. c #4F425F",
"y. c #5C545E",
"u. c #684F49",
"i. c #664C42",
"p. c #744B40",
"a. c #735246",
"s. c #7C5642",
"d. c #674758",
"f. c #6C5A55",
"g. c #4B4464",
"h. c #494962",
"j. c #52466B",
"k. c #554A63",
"l. c #5C5274",
"z. c #674560",
"x. c #6E4C61",
"c. c #7D526F",
"v. c #7E5970",
"b. c #7E5577",
"n. c #5F616B",
"m. c #A82629",
"M. c #C7272A",
"N. c #8A4928",
"B. c #874D2C",
"V. c #99592B",
"C. c #814D32",
"Z. c #8B5532",
"A. c #865A38",
"S. c #875739",
"D. c #945D33",
"F. c #925631",
"G. c #A55C2A",
"H. c #B15C26",
"J. c #8E613D",
"K. c #956133",
"L. c #9F6C3F",
"P. c #9A6235",
"I. c #B36B2C",
"U. c #BE6F2A",
"Y. c #BC732C",
"T. c #BF7A2E",
"R. c #A16837",
"E. c #A66633",
"W. c #AB7730",
"Q. c #AA703B",
"!. c #C46E27",
"~. c #CA7926",
"^. c #C47728",
"/. c #C37B2B",
"(. c #CB7424",
"). c #8A5949",
"_. c #955E41",
"`. c #8F6343",
"'. c #93795B",
"]. c #A76740",
"[. c #BA7D41",
"{. c #A7785C",
"}. c #A07652",
"|. c #87576E",
" X c #895B74",
".X c #8A6F66",
"XX c #85637A",
"oX c #CD9039",
"OX c #AF8548",
"+X c #A68445",
"@X c #BE8E47",
"#X c #C79544",
"$X c #8D6F84",
"%X c #946586",
/* pixels */
"                                                                                                                        ",
"                                                                                                                        ",
"                                                                                                                        ",
"                                                                                                                        ",
"                                                                                                                        ",
"                                                                                                                        ",
"                                                                                                                        ",
"                                                                                                                        ",
"                                                                      @.W   a r                                         ",
"                                                                    =...^   e                                           ",
"                                                                    o.!   p a   !   r e                                 ",
"                                                                  @.9 a i ~ ^ i 8 ^ #.6                                 ",
"                                                                  W 8 ` e   e % 6 a 3.-.                                ",
"                                                                    e i r a % & 6 & 0 z   $.                            ",
"                                                                    r a a 6 % - , $ % % 6 E =.                          ",
"                                                                    ~ ( & % % - + < 6 % 5 9 &.*.                        ",
"                                                                  =.*.-.5 7 % + = A u % % 5 E =.                        ",
"                                                                  *.4.  8 ..; + ; N C t % % 5                           ",
"                                                                  =.  e E o.; = m +.j s 9 5 6 Q                         ",
"                                                                  $.e 5 o.X.; = w ..C N o.0 5 5                         ",
"                                                                  W % q O.7 o + - < j +.&.o.5 % i                       ",
"                                                                #.5 9 O.X.5 $ o * 1 < ..&.O.0 5 a                       ",
"                                                                @.5 q ..q % - o o = ; q &.O.O.E                         ",
"                                                                  6 % 5 5 w N n @ o ; ..&.o.E @.                        ",
"                                                                  e % % 5 %.S m.v . * O.&.E 8                           ",
"                                                                    6 % 8 %.n M.b . o X.&.E a                           ",
"                                                                      6 5 E C V c . - O.O.0                             ",
"                                                    l.j.j.              6 7 N + . o q &.@.Q                             ",
"                                                  l.g.5.<.8.              e $ . . $ !                                   ",
"                                                  l.8.S.N.l                 s o 2                                       ",
"                                                  j.5.E.V.:                   , l                                       ",
"                                              @X{.d.G P H : n.                ,                                         ",
"                                              .X_.Y.].x.h f +X#X              4                                         ",
"                                              g.<.G.U.L.i.i.W.oX              4                                         ",
"                                            l.| g D F.Y./././.Q.              3                                         ",
"                                            r.|   ' J P I B.I.J } h.        c.z.                                        ",
"                                          g.| |     :.P J [ s.f./ [ | r.r.k. X%X                                        ",
"                                           .'       { <.).9.e.    ] / [ } 7.z.v.                                        ",
"                                        g.} ]         { u.a.7.      { ] ] ] z j                                         ",
"                                        7.] {         e.w.A.0.'.          ' 2                                           ",
"                                        7._ ]       OXR 0.J.Y `.            C                                           ",
"                                        t.[ ]       A./.K.K.I.].            A                                           ",
"                                        %X|.8.    h.' P Y.~.^.K             3                                           ",
"                                        %X|.%X    r.[ l V.~.~.Z.            >                                           ",
"                                        |. X    h.7._ G F.H.!.C.          1.C                                           ",
"                                        XX$X  }.q.' l U :.I H.F           ;.                                            ",
"                                              [.K.Y U P.6.p.P ,.          S                                             ",
"                                              y.J Y Y.R.,.a.>.}           3                                             ",
"                                              r.] l F.S.[ a.q.]           ,                                             ",
"                                              7.[ T P.Z [ a.6._           j                                             ",
"                                            r. .] G F.I Z J >._           <                                             ",
"                                          r.| |  ._ l I S.P ( /           ,                                             ",
"                                        h. .|  . ._ / z I Z.l /           4                                             ",
"                                        r.| |  .| _ / / l I D.U           2                                             ",
"                                        7.| } ] _ |  .| [ ( I D.        >                                               ",
"                                      | [ _ / / _ | [ ] _ _ ( l         >                                               ",
"                                      { [ [ ] [ [ } [ { [ { ] {                                                         ",
"                                                                                                                        ",
"                                                                                                                        ",
"                                                                                                                        "
};
