/* XPM */
static char *enemy_6_removebg_preview__1_1705333532[] = {
/* columns rows colors chars-per-pixel */
"60 60 190 2 ",
"   c None",
".  c #260915",
"X  c #2B0A19",
"o  c #310C1E",
"O  c #360B17",
"+  c #2A101B",
"@  c #2D0B23",
"#  c #29072F",
"$  c #2D0C2F",
"%  c #340D21",
"&  c #3A0D23",
"*  c #350A2B",
"=  c #3D0C2B",
"-  c #2B1C24",
";  c #2E1D2A",
":  c #321524",
">  c #341927",
",  c #361C2D",
"<  c #3C1C2D",
"1  c #3C102C",
"2  c #2D0732",
"3  c #2C0B33",
"4  c #330737",
"5  c #320A34",
"6  c #35093A",
"7  c #3B0B3C",
"8  c #36073A",
"9  c #2F1337",
"0  c #2D1538",
"q  c #371630",
"w  c #3C1A34",
"e  c #34153C",
"r  c #311A3C",
"t  c #3E1838",
"y  c #3A1934",
"u  c #33232D",
"i  c #3D2334",
"p  c #34263D",
"a  c #30283F",
"s  c #3C2D3B",
"d  c #460E1B",
"f  c #521017",
"g  c #5B101A",
"h  c #521F2A",
"j  c #430D36",
"k  c #420B3E",
"l  c #40113F",
"z  c #431A3C",
"x  c #451E35",
"c  c #6D1B24",
"v  c #412625",
"b  c #5A212F",
"n  c #432536",
"m  c #49263A",
"M  c #542739",
"N  c #42343D",
"B  c #4D363A",
"V  c #523537",
"C  c #5A3C36",
"Z  c #543738",
"A  c #55393A",
"S  c #563B36",
"D  c #663E37",
"F  c #5A403E",
"G  c #7E482F",
"H  c #654236",
"J  c #65433B",
"K  c #6B4339",
"L  c #634A3C",
"P  c #6E4839",
"I  c #6D4431",
"U  c #7A4D34",
"Y  c #744938",
"T  c #784838",
"R  c #775139",
"E  c #79533C",
"W  c #3D0B42",
"Q  c #3B1344",
"!  c #351C41",
"~  c #3B1A45",
"^  c #3E1C48",
"/  c #312240",
"(  c #332C45",
")  c #352E49",
"_  c #3D3345",
"`  c #36314B",
"'  c #39344C",
"]  c #3A394F",
"[  c #343246",
"{  c #3A3652",
"}  c #3E3A56",
"|  c #3F3A58",
" . c #420C46",
".. c #490D47",
"X. c #460C4A",
"o. c #4A0C4D",
"O. c #431445",
"+. c #44144A",
"@. c #4A124B",
"#. c #431C4C",
"$. c #49194F",
"%. c #481A44",
"&. c #4C0B50",
"*. c #4D1453",
"=. c #4D1A53",
"-. c #45204F",
";. c #5C2D44",
":. c #413144",
">. c #483540",
",. c #45394B",
"<. c #4C3E4C",
"1. c #443849",
"2. c #573047",
"3. c #543E47",
"4. c #4A2354",
"5. c #4A2851",
"6. c #4E2A59",
"7. c #423A53",
"8. c #423D5A",
"9. c #4D3F58",
"0. c #473E60",
"q. c #4A3E61",
"w. c #4E404F",
"e. c #58434D",
"r. c #4F4150",
"t. c #44425D",
"y. c #6D4A42",
"u. c #624D49",
"i. c #61404C",
"p. c #734E44",
"a. c #765246",
"s. c #7F5D41",
"d. c #7A554A",
"f. c #69425D",
"g. c #7D5451",
"h. c #776956",
"j. c #484961",
"k. c #4A4664",
"l. c #534B66",
"z. c #544869",
"x. c #594C73",
"c. c #5B5474",
"v. c #5C5479",
"b. c #674560",
"n. c #724F6E",
"m. c #7D536F",
"M. c #7E5971",
"N. c #AA2629",
"B. c #C72729",
"V. c #8E4E2E",
"C. c #914B22",
"Z. c #9C5C2D",
"A. c #98552A",
"S. c #8D5532",
"D. c #895C3B",
"F. c #925732",
"G. c #975D32",
"H. c #98622E",
"J. c #9E6636",
"K. c #93643B",
"L. c #9C6F33",
"P. c #A6652E",
"I. c #AB652C",
"U. c #AD6B2F",
"Y. c #B46C2A",
"T. c #BB6927",
"R. c #B8702C",
"E. c #BF792E",
"W. c #A36436",
"Q. c #AC7737",
"!. c #BA7137",
"~. c #C16C24",
"^. c #C77827",
"/. c #C0722A",
"(. c #CD7926",
"). c #895D40",
"_. c #845742",
"`. c #8C674B",
"'. c #996941",
"]. c #B3774A",
"[. c #86566B",
"{. c #8A5B76",
"}. c #89667C",
"|. c #AC8039",
" X c #C68B3C",
".X c #C7923C",
"XX c #BD8344",
"oX c #C6A250",
"OX c #886084",
"+X c #966786",
/* pixels */
"                                                                                !                                       ",
"                                                                                                                        ",
"                                                                                        #.+.                            ",
"                                                                                        !  .#.                          ",
"                                                                                          ^ +.                          ",
"                                                                                  !         ^                           ",
"                                                                                  r 0           4.                      ",
"                                                                                    0           6.                      ",
"                                                                /                                                       ",
"                                                                                                                        ",
"                                                                      $.^     r                                         ",
"                                                                    =. .~   9 9                                         ",
"                                                                    @.Q   Q 2 3 W -.~ e                                 ",
"                                                                  =.8 9 e 6 6 7 @.7  .Q   4.                            ",
"                                                                  O.5 2 8 o.W * 1 * .. .6  .*.                          ",
"                                                                  ! 5 8 o.&.X.* % < o.o. .X.&.=.                        ",
"                                                                    +.o.o.&.k o : n %.&.&. . .=.                        ",
"                                                                    *.&.&.&.j o @ 1 n @.&.&.W 9                         ",
"                                                                  #.&.&.&.o.= & k O.n z o.&.X.3                         ",
"                                                                  W o.&.&...& & ..@.i w W X.W 3                         ",
"                                                                  W o.&.o. .% & j z x 7 W 4 2 # e                       ",
"                                                                ^ 5 X.&.o.8 @ X & 1 < o.&.W 2 # r                       ",
"                                                                Q 3 8 o.o.8 7 + X O * 7 &.X.2 3                         ",
"                                                                  # 2 W 8 2 w h O X : 5 X.&.7 e                         ",
"                                                                  9 # 2 4 $ b N.f . % 7 &.X.5                           ",
"                                                                    3 # 2 6 b B.g . %  .&. .r                           ",
"                                                                      3 2 Q x c d . * o.&.6                             ",
"                                                      x.v.              3 4 w o . X W @.+.!                             ",
"                                                    x.0.0.l.              9 @ . X * $.                                  ",
"                                                  v.9.e.J _                 , X r 5.                                    ",
"                                                  x.r.W.C.u                   : s                                       ",
"                                                  z.1.S.A.;                   :                                         ",
"                                              XX].D.p.i.v - h.oX              >                                         ",
"                                                p./.]._._ N Q..X              >                                         ",
"                                              k.:.U T.E.J.s.Q. X              ,                                         ",
"                                            c.} ' s T Z.R.T.T._.8.          m.b.                                        ",
"                                            t.{   ] F I D D W.u.( ] 8.t.j.l.{.+X                                        ",
"                                          l.} }     ' D _.7.e.    [ ( ' { { b.M.                                        ",
"                                          8.'         1.d.u.7.      ] ) ) ) p i                                         ",
"                                        k.{ '         { u.E 7.            1.,                                           ",
"                                        t.) _         ,.3.K.L `.            n                                           ",
"                                        8.) '       |.L.L D.J.'.            m                                           ",
"                                        8.) _       A I.R.Y./.).            i                                           ",
"                                        OXn.t.    j.' V I.(.^.R             ;                                           ",
"                                        +X{.}.    8.' s Z.~.(.V.          2.n                                           ",
"                                        {.[.}.  t.{ ) J D V.T.D           ;.                                            ",
"                                              ].y.B B D.,.D.A.B           M                                             ",
"                                              `.J.U.P.W.7.p.3.'           w                                             ",
"                                              t.<.C P.J.7.a.r.{           :                                             ",
"                                              | ` B F.C ' a.<.`           i                                             ",
"                                            8.| ` T P.A ) y.<.)           >                                             ",
"                                          8.} 8.| :.T F.S K ,.)           :                                             ",
"                                        j.| | | | ) a V Z.U a (           :                                             ",
"                                        t.} } | } ` ( ( C S.H N           ,                                             ",
"                                        | } { ` ` } | } ` A P.W.        ;                                               ",
"                                      } ' ) ( ( ) { { ` ` ) Z P         ;                                               ",
"                                      { ' ' ' ' ] ] ' ' ' ' ' ]                                                         ",
"                                                                                                                        ",
"                                                                                                                        ",
"                                                                                                                        "
};
