/* XPM */
static char *enemy_4_removebg_preview__1_1705333459[] = {
/* columns rows colors chars-per-pixel */
"60 60 195 2 ",
"   c None",
".  c #260915",
"X  c #2A0A17",
"o  c #270918",
"O  c #2C091B",
"+  c #330D1E",
"@  c #360B17",
"#  c #29072E",
"$  c #290A2F",
"%  c #330C22",
"&  c #3A0D24",
"*  c #350A2A",
"=  c #390B2E",
"-  c #2C1B25",
";  c #2E1B29",
":  c #331424",
">  c #311825",
",  c #3D152B",
"<  c #331C2B",
"1  c #3B1D2C",
"2  c #2D0633",
"3  c #2C0C33",
"4  c #310736",
"5  c #340A33",
"6  c #340739",
"7  c #350A3A",
"8  c #390A3C",
"9  c #3A0B32",
"0  c #2D1236",
"q  c #2E1538",
"w  c #2E1B3B",
"e  c #3B1D34",
"r  c #32133B",
"t  c #38123F",
"y  c #351B3E",
"u  c #3B1333",
"i  c #312229",
"p  c #3D2434",
"a  c #31293F",
"s  c #3D2E3C",
"d  c #342538",
"f  c #4A0E1B",
"g  c #551019",
"h  c #5F111A",
"j  c #511F2C",
"k  c #420D35",
"l  c #430C3C",
"z  c #45193D",
"x  c #481B3F",
"c  c #421E30",
"v  c #6F1C25",
"b  c #412233",
"n  c #492639",
"m  c #452338",
"M  c #582131",
"N  c #54263A",
"B  c #4B353A",
"V  c #40333D",
"C  c #523536",
"Z  c #5C3C36",
"A  c #563738",
"S  c #553A3A",
"D  c #563A36",
"F  c #5C4035",
"G  c #6C412F",
"H  c #6B4335",
"J  c #684837",
"K  c #64433B",
"L  c #69443A",
"P  c #624137",
"I  c #7B4C33",
"U  c #724939",
"Y  c #7A4B3E",
"T  c #734532",
"R  c #745335",
"E  c #3D0B41",
"W  c #3C1444",
"Q  c #3F1A48",
"!  c #381A43",
"~  c #332C45",
"^  c #352F49",
"/  c #322240",
"(  c #36324A",
")  c #39334C",
"_  c #3C394E",
"`  c #3A3146",
"'  c #3B3652",
"]  c #373950",
"[  c #3E3A56",
"{  c #3F3A58",
"}  c #430B45",
"|  c #490C46",
" . c #460C4A",
".. c #4B0C4E",
"X. c #431345",
"o. c #4B1346",
"O. c #4B1B45",
"+. c #43144B",
"@. c #4A114B",
"#. c #431B4B",
"$. c #491A4F",
"%. c #4D0B51",
"&. c #4C1453",
"*. c #43214C",
"=. c #562D43",
"-. c #443444",
";. c #4C3B44",
":. c #433A4E",
">. c #4B3B4A",
",. c #583D40",
"<. c #573F48",
"1. c #573F43",
"2. c #4B2157",
"3. c #443B53",
"4. c #4A3D52",
"5. c #423D5A",
"6. c #4A3D5B",
"7. c #4E414F",
"8. c #54434D",
"9. c #584448",
"0. c #44415C",
"q. c #454151",
"w. c #574658",
"e. c #514351",
"r. c #6C4D48",
"t. c #714D44",
"y. c #755349",
"u. c #735943",
"i. c #67405A",
"p. c #694758",
"a. c #71645E",
"s. c #474561",
"d. c #4B4A65",
"f. c #4D4A6A",
"g. c #4A4260",
"h. c #534C64",
"j. c #54486F",
"k. c #52446A",
"l. c #5B5474",
"z. c #5F577A",
"x. c #674560",
"c. c #714E6E",
"v. c #7C526F",
"b. c #605477",
"n. c #7F5971",
"m. c #A62729",
"M. c #C7272A",
"N. c #834B2D",
"B. c #8E4E2E",
"V. c #855129",
"C. c #9B5A2D",
"Z. c #9A5629",
"A. c #875A37",
"S. c #8D5935",
"D. c #88583A",
"F. c #935B34",
"G. c #9A5C31",
"H. c #A1592D",
"J. c #8B623F",
"K. c #986539",
"L. c #A5652E",
"P. c #A9642F",
"I. c #B86827",
"U. c #B4682A",
"Y. c #BE772D",
"T. c #BE782A",
"R. c #A36633",
"E. c #AC6B32",
"W. c #A36837",
"Q. c #AB7831",
"!. c #B17030",
"~. c #C46C24",
"^. c #C2742B",
"/. c #C97928",
"(. c #CC7826",
"). c #8A5847",
"_. c #985E40",
"`. c #8A6449",
"'. c #986142",
"]. c #997A44",
"[. c #936954",
"{. c #8B7358",
"}. c #9A7355",
"|. c #A06E40",
" X c #A87941",
".X c #AA7546",
"XX c #85556B",
"oX c #8A5A74",
"OX c #885E7B",
"+X c #8B6B7F",
"@X c #C7903B",
"#X c #C69646",
"$X c #C1A760",
"%X c #855E83",
"&X c #976886",
/* pixels */
"                                                                                                                        ",
"                                                                                                                        ",
"                                                                                                                        ",
"                                                                                                                        ",
"                                                                                &.@.!                                   ",
"                                                                    w         $.} 6 3                                   ",
"                                                                            $.} r q                                     ",
"                                                                            W 7                                         ",
"                                                                            t 2           2.                            ",
"                                                                          Q 6 0         #. .                            ",
"                                                                      &...%.7 2 w     q 0 t                             ",
"                                                                  ! @.%.%. .6 2 E  .+.8 3 /                             ",
"                                                                  q 6 E 8 6 6 } %.%.%...7 2 w                           ",
"                                                                    w 3 6 # 8 @.@.| ....6 # y                           ",
"                                                                      3 7 6 | .., = .. .2 # 0                           ",
"                                                                      E E | ..l + , ..E 2 # 2 0                         ",
"                                                                    W ......| & , n O... .8 2 $ *.+.                    ",
"                                                                    W ....%.l @ * z m o.%.%.8 3 W  .                    ",
"                                                                  ! ....%...k + l o.b x .. .7   Q }                     ",
"                                                                  3  .%...} & & | @.b z ..| 6     W                     ",
"                                                                  r 6 8 } 8 + & k X.b X.....W     t                     ",
"                                                                    q 3 8 } 5 X + , z ..%.| t #.$.                      ",
"                                                                        6 ..| : O + k ....8 2 7 *.                      ",
"                                                                      3 7 ..O.j @ O & | ..2 $                           ",
"                                                                    q 7  ...N m.g . % | E # w                           ",
"                                                                    3 } %.o.M M.h . O } 6 3                             ",
"                                                                    0 7 } 8 c v f . * 8 2 0                             ",
"                                                                      3 6 E u O X o 5 2 3                               ",
"                                                    l.j.j.              2 } 9 . o * 8 3 w                               ",
"                                                  b.k.6.4.g.              0 5 O 9 } 7 r                                 ",
"                                                  l.6.Y N.s                 p % e y                                     ",
"                                                  j.>.P.Z.<                   :                                         ",
"                                            $X#X[.w.-.G V.- h.                <                                         ",
"                                              }._.E._.p.d i K.#X              <                                         ",
"                                              f.9.U.^.).9.8.Q.@X              u                                         ",
"                                            l.{ ~ D C.^.^.!.T.R.q.          v.<.                                        ",
"                                            g.' _ ` J N.C.Z.I.J ( q.0.0.d.h.+X&X                                        ",
"                                          h.[ '     ;.I K -.Y a.] ~ ~ ) [ [ p.oX                                        ",
"                                          5.(       ) ,.).7.5.      _ ( ( ( d p                                         ",
"                                        f.' (         ) r.u.[             ` <                                           ",
"                                        0.( (         :.9.A.7.{.            b                                           ",
"                                        5.^ )        XJ S K.R `.            n                                           ",
"                                        5.^ (       F G.A.S.U.'.            p                                           ",
"                                        %Xc.3.    s.) C L.^./.D.            ;                                           ",
"                                        &XoX+X    5.) s Z.~.(.C.          =.m                                           ",
"                                        oXXX+X  0.[ ^ K U B.I.H           =.                                            ",
"                                              .XL -.B A.:.Y H.B           N                                             ",
"                                              `.K.E.L.W.3.t.,.)           1                                             ",
"                                              0.>.Z R.W.:.y.e.]           >                                             ",
"                                              5.) B F.F ) y.7.^           1                                             ",
"                                            5.{ ( U P.A ^ t.>.(           1                                             ",
"                                          0.{ { [ -.T F.D L >.^           >                                             ",
"                                        d.{ { [ { ^ / B C.I a ~           >                                             ",
"                                        0.{ { [ [ ^ ^ ~ Z S.P s           <                                             ",
"                                        { [ ' ( ^ { { [ ) S P.R.        <                                               ",
"                                      [ ' ( ~ ~ ^ ' ' ( ( ^ D U         ;                                               ",
"                                      ] _ ) ) ) _ ) ) ) ) ) ( ]                                                         ",
"                                                                                                                        ",
"                                                                                                                        ",
"                                                                                                                        "
};
