/* XPM */
static char *enemy_2_removebg_preview__1_1705333408[] = {
/* columns rows colors chars-per-pixel */
"60 60 188 2 ",
"   c None",
".  c #250914",
"X  c #290915",
"o  c #2B0A19",
"O  c #330D1F",
"+  c #360B17",
"@  c #2D0A24",
"#  c #2A072D",
"$  c #2E0928",
"%  c #340C23",
"&  c #3A0D24",
"*  c #360A2B",
"=  c #380B2C",
"-  c #2C1B24",
";  c #2F1B29",
":  c #331424",
">  c #311826",
",  c #3D152B",
"<  c #341B2C",
"1  c #3B1D2C",
"2  c #2D0732",
"3  c #2C0B33",
"4  c #310736",
"5  c #350A33",
"6  c #340B3A",
"7  c #3A0B3D",
"8  c #330739",
"9  c #2D1336",
"0  c #2E1B3C",
"q  c #3B1A34",
"w  c #32133B",
"e  c #321A3C",
"r  c #381535",
"t  c #34242D",
"y  c #3D2535",
"u  c #31273E",
"i  c #31293F",
"p  c #3C2D3D",
"a  c #372337",
"s  c #3E303A",
"d  c #4A0E1B",
"f  c #561018",
"g  c #5F111A",
"h  c #511F2D",
"j  c #420D34",
"k  c #420C3C",
"l  c #42153D",
"z  c #45193D",
"x  c #461E34",
"c  c #6E1C25",
"v  c #452825",
"b  c #58212F",
"n  c #412333",
"m  c #49263A",
"M  c #462338",
"N  c #522737",
"B  c #44343B",
"V  c #4D363A",
"C  c #523537",
"Z  c #5C3C36",
"A  c #563739",
"S  c #553A3A",
"D  c #593D3A",
"F  c #663E38",
"G  c #693F34",
"H  c #5C4035",
"J  c #6B4235",
"K  c #65443C",
"L  c #684139",
"P  c #624A3C",
"I  c #624137",
"U  c #7A4E33",
"Y  c #724939",
"T  c #764838",
"R  c #7A533A",
"E  c #3D0B42",
"W  c #3C1344",
"Q  c #391844",
"!  c #361D41",
"~  c #332C45",
"^  c #3D2F40",
"/  c #352F49",
"(  c #36324A",
")  c #39334C",
"_  c #3A384E",
"`  c #383347",
"'  c #3B3652",
"]  c #3D3955",
"[  c #3F3A58",
"{  c #420B46",
"}  c #490C46",
"|  c #460B4A",
" . c #4A0C4D",
".. c #45114A",
"X. c #49124A",
"o. c #451E4E",
"O. c #461645",
"+. c #4C0C50",
"@. c #4B1352",
"#. c #4B1C53",
"$. c #461C50",
"%. c #501253",
"&. c #42274E",
"*. c #592C42",
"=. c #443443",
"-. c #42354A",
";. c #443A4B",
":. c #4B3B4A",
">. c #543946",
",. c #4C2256",
"<. c #423A52",
"1. c #413D5A",
"2. c #4F3F58",
"3. c #4C3F57",
"4. c #613F4B",
"5. c #473E60",
"6. c #4A3F62",
"7. c #52424F",
"8. c #58404C",
"9. c #5B4341",
"0. c #44425D",
"q. c #4E415F",
"w. c #514351",
"e. c #604842",
"r. c #614C4A",
"t. c #6E4A44",
"y. c #724D43",
"u. c #755349",
"i. c #7A5745",
"p. c #67405B",
"a. c #7D5553",
"s. c #75695D",
"d. c #464760",
"f. c #4D4B66",
"g. c #4C4764",
"h. c #554B6C",
"j. c #564965",
"k. c #5A4E74",
"l. c #5B5574",
"z. c #5E557A",
"x. c #674660",
"c. c #7C536F",
"v. c #7E5874",
"b. c #A7262A",
"n. c #C7272A",
"m. c #8E4E2E",
"M. c #934E23",
"N. c #9A5B2B",
"B. c #804A31",
"V. c #815238",
"C. c #8A5D3E",
"Z. c #895736",
"A. c #935A32",
"S. c #9D5D33",
"D. c #A0552B",
"F. c #9B6433",
"G. c #94643C",
"H. c #9B7034",
"J. c #A5662E",
"K. c #AB652D",
"L. c #AF6B2B",
"P. c #BB6A28",
"I. c #BB712C",
"U. c #A26533",
"Y. c #A36837",
"T. c #AD6B30",
"R. c #A87030",
"E. c #A97E3B",
"W. c #B97136",
"Q. c #C26C24",
"!. c #C07026",
"~. c #CD7926",
"^. c #C4782B",
"/. c #C1752A",
"(. c #875742",
"). c #8C6848",
"_. c #8B644B",
"`. c #AF6B41",
"'. c #A97343",
"]. c #B57B41",
"[. c #86566B",
"{. c #885C76",
"}. c #856578",
"|. c #C68B3A",
" X c #C8923B",
".X c #AF8041",
"XX c #C7A557",
"oX c #946586",
/* pixels */
"                                                                                                                        ",
"                                                                                                                        ",
"                                                                                                                        ",
"                                                                                                                        ",
"                                                                                    O.Q                                 ",
"                                                                                  ! 6 e       ,.                        ",
"                                                                            $.              #...                        ",
"                                                                          #...                w                         ",
"                                                                          #.o.                                          ",
"                                                                                                                        ",
"                                                                  &.X.          9 9             0 e                     ",
"                                                                &.Q ..      e w 3 # 9                                   ",
"                                                                &.    ,.} 7 3 # 7 # 4 6                                 ",
"                                                                    ,.+. .8 E 7 { 7 { { E                               ",
"                                                                    +.+.| E  .X., = }  .{ ..                            ",
"                                                                    @.+.| E  .k % , X.+.| { +.                          ",
"                                                                      +.| { } j & M O. .7 E +...                        ",
"                                                                      %.{ { k O & z M z 4 | +.|                         ",
"                                                                      +.E 7 j O k X.n 1 6 +. .&.                        ",
"                                                                    W { 2 # % & } X.y r E | E                           ",
"                                                                    3 7 # # O O j z n r 4 8 e                           ",
"                                                                    9 4 2 # * o & , z 7 # 9                             ",
"                                                                      3 E 2 5 @ o O k 4 # 6                             ",
"                                                                      ..| 6 q h + X & 5 { E                             ",
"                                                                      +.+.7 N b.f . % k +.{                             ",
"                                                                      +.+...b n.g . o |  .W                             ",
"                                                                      .. .X.x c d . * | E                               ",
"                                                      k.z.              E  .l O . o k  .w                               ",
"                                                    h.6.5.h.            w E = X o * | E e                               ",
"                                                  z.6.8.K -.              9 @ X $ W ..W                                 ",
"                                                  k.w.S.M.t                 a : <                                       ",
"                                                  g.;.A.N.- 0.                >                                         ",
"                                              ].`.(.y.r.v - s.XX              >                                         ",
"                                              j.y.!.W.a.^ B E. X              >                                         ",
"                                            l.[ =.U P.I.G.R R.|.              1                                         ",
"                                            0.] ( p U S.I.P.!.V.<.          c.p.                                        ",
"                                          f.] '   ) D J J F U.e.~ ' 0.0.0.j.}.oX                                        ",
"                                          1.(       -.F (.<.7.    ( ~ ( ] <.x.v.                                        ",
"                                        g.' (         -.i.r.1.      _ ( ( / a y                                         ",
"                                        1.( )         ] r.R <.            ` <                                           ",
"                                        1.( (         ;.:.G.Y ).            n                                           ",
"                                        2.) (       .XH.P C.F.).            m                                           ",
"                                        oXv.2.      H T.I.L./.(.            y                                           ",
"                                        oX{.{.    d.` C K.~.~.U             ;                                           ",
"                                        {.[.}.    1.) p N.Q.~.A.          *.M                                           ",
"                                                0.' / I T m.P.G           *.                                            ",
"                                              '.K =.B Z.;.y.D.V           N                                             ",
"                                              _.U.T.J.Y.<.t.9.)           n                                             ",
"                                              0.:.Z U.Y.;.u.w.)           >                                             ",
"                                              1.( V A.H ) u.7./           1                                             ",
"                                            1.1./ T K.A / t.7.(           1                                             ",
"                                          0.[ <.1.=.J A.S L :.~           >                                             ",
"                                        f.[ [ [ ] / ~ C N.U ~ ~           >                                             ",
"                                        0.[ [ ] [ / ~ ~ Z Z.Z B           <                                             ",
"                                        1.] ' ( / [ 1.] ) S K.U.        <                                               ",
"                                      [ ) / ~ ~ / ' ' ( / / S Y         ;                                               ",
"                                      ] _ ) ` ) _ ' _ ) ) _ ` _                                                         ",
"                                                                                                                        ",
"                                                                                                                        ",
"                                                                                                                        "
};
