/* XPM */
static char *skeleton__1_1705342488[] = {
/* columns rows colors chars-per-pixel */
"60 60 145 2 ",
"   c None",
".  c #191915",
"X  c #191917",
"o  c #1A1A16",
"O  c #1A1A17",
"+  c #1A1A18",
"@  c #1B1B18",
"#  c #1B1B19",
"$  c #1C1C19",
"%  c #1C1C1A",
"&  c #1D1D1B",
"*  c #1E1E1D",
"=  c #1F1F1D",
"-  c #1F1F1E",
";  c #20201E",
":  c #20201F",
">  c #202020",
",  c #232321",
"<  c #262729",
"1  c #292A2E",
"2  c #2B2C31",
"3  c #2F3137",
"4  c #353533",
"5  c #383836",
"6  c #3A3937",
"7  c #3A3A37",
"8  c #32333A",
"9  c #3A3A38",
"0  c #3B3B39",
"q  c #373942",
"w  c #3D3F4B",
"e  c #4A4A49",
"r  c #4C4C4B",
"t  c #424554",
"y  c #464959",
"u  c #474B5B",
"i  c #494C5D",
"p  c #535351",
"a  c #585857",
"s  c #5B5B5A",
"d  c #444A64",
"f  c #4A4E60",
"g  c #4F5367",
"h  c #505468",
"j  c #696968",
"k  c #5F6688",
"l  c #646A87",
"z  c #71789A",
"x  c #71789B",
"c  c #757CA0",
"v  c #777EA4",
"b  c #7980A6",
"n  c #7980A7",
"m  c #7981A7",
"M  c #7A81A7",
"N  c #7A81A8",
"B  c #7691E8",
"V  c #7692E8",
"C  c #7792E8",
"Z  c #7892E8",
"A  c #7A94E9",
"S  c #7B95E9",
"D  c #8188B1",
"F  c #8189B2",
"G  c #848CB7",
"H  c #8E97C6",
"J  c #9099CA",
"K  c #939DCE",
"L  c #9BA5DA",
"P  c #9CA6DB",
"I  c #9DA7DD",
"U  c #9DA8DD",
"Y  c #9FA9DF",
"T  c #819AEC",
"R  c #839BEC",
"E  c #849BED",
"W  c #869DED",
"Q  c #869EED",
"!  c #9BA7E4",
"~  c #9BADF5",
"^  c #9CADF5",
"/  c #9DAEF7",
"(  c #9DAFF7",
")  c #A1ACE4",
"_  c #A3AEE7",
"`  c #A1AEEE",
"'  c #A5B0E9",
"]  c #A5B0EA",
"[  c #A7B2ED",
"{  c #A1B1F7",
"}  c #A7B4F6",
"|  c #ABB6F2",
" . c #A9B6F5",
".. c #AAB7F7",
"X. c #ADB8F5",
"o. c #ADB9F6",
"O. c #AEBAF7",
"+. c #A3B4FB",
"@. c #A4B4FB",
"#. c #A6B5FB",
"$. c #A7B6FB",
"%. c #A7B5FC",
"&. c #AFBBF9",
"*. c #ABB9FC",
"=. c #ABB9FD",
"-. c #ACB9FC",
";. c #ACBAFC",
":. c #ADBAFC",
">. c #AEBBFC",
",. c #AFBBFC",
"<. c #AFBCFC",
"1. c #AFBCFD",
"2. c #B0BBF9",
"3. c #B0BBFA",
"4. c #B0BCFA",
"5. c #B0BCFB",
"6. c #B0BCFC",
"7. c #B0BDFC",
"8. c #B0BCFD",
"9. c #B0BDFD",
"0. c #B1BDFD",
"q. c #B2BEFD",
"w. c #B3BEFD",
"e. c #B3BFFD",
"r. c #B2BEFE",
"t. c #B3BFFE",
"y. c #B2BEFF",
"u. c #B3BFFF",
"i. c #B3C0FF",
"p. c #B4C0FD",
"a. c #B5C1FD",
"s. c #B4C0FF",
"d. c #B4C1FF",
"f. c #B5C1FF",
"g. c #B7C3FE",
"h. c #B8C4FE",
"j. c #B9C5FE",
"k. c #BAC6FE",
"l. c #BBC7FE",
"z. c #BCC8FE",
"x. c #BDC9FE",
"c. c #BFCBFF",
"v. c #C0CCFF",
"b. c #C1CDFF",
"n. c #C2CEFF",
/* pixels */
"                                                                                                                        ",
"                                                                                                                        ",
"                                                                                                                        ",
"                                                                                                                        ",
"                                                      q.q.q.q.q.q.                                                      ",
"                                                q.q.q.q.a.a.h.a.a.q.q.q.                                                ",
"                                            q.q.q.a.h.c.n.n.n.n.n.h.q.q.q.q.                                            ",
"                                        q.>.>.q.a.h.n.n.n.n.n.n.n.n.h.q.q.>.>.q.                                        ",
"                                        1.%.1.q.h.n.n.n.n.n.n.n.n.n.n.g.q.1.$.1.                                        ",
"                                      q.>.%.1.q.c.n.n.n.n.n.n.n.n.n.n.z.q.1.%.>.q.                                      ",
"                                      q.>.%.q.q.h.n.n.n.n.n.n.n.n.n.n.c.q.q.$.&.q.                                      ",
"                                    q.q.1.1.q.q.h.n.n.n.n.n.n.n.n.n.c.g.q.q.1.q.q.q.                                    ",
"                                    q.q.q.q.q.q.q.h.n.n.n.n.n.n.n.n.h.q.q.q.q.q.q.q.                                    ",
"                                    q.q.q.q.q.q.q.q.a.c.c.n.n.c.c.a.q.q.q.q.q.q.q.q.                                    ",
"                                  q.q.q.q.q.q.q.q.q.q.q.a.a.a.q.q.q.q.q.q.q.q.q.q.q.q.                                  ",
"                                  q.q.q.q.a.a.a.q.q.q.q.q.q.q.q.q.q.q.q.a.a.a.q.q.q.q.                                  ",
"                                  q.q.i.[ G v J &.q.q.q.q.q.q.q.q.q.q.3.J v G [ q.q.q.                                  ",
"                                  q.i.P y > & < l o.q.q.q.q.q.q.q.q.o.l < & > y I q.q.                                  ",
"                                  q.o.h o @ @ @ : N u.q.q.u.u.q.q.q.N * @ @ @ o g &.q.                                  ",
"                                  a.K < > r a 9 o t | q.u._ _ u.q.| t o 9 a r > < K a.                                  ",
"                                  a.m & s p 9 j 4 2 I a.| g g | a.I 2 5 j 9 p s * m a.                                  ",
"                                  i.z : e * o 5 6 1 I a.m : : v a.L 1 9 6 @ * e * x i.                                  ",
"                                  +.D * & & & & @ q _ 4.i o o i 3.' q @ * % * @ * D %.                                  ",
"                                  / ) u > @ & o 3 c 3.&.k d d k 1.&.c 3 @ @ @ > u ) (                                   ",
"                                  T { ! x w 8 i H o.q.q...} } ..q.q.o.H f 8 w x Y { T                                   ",
"                                    W =.q.` ! ..q.q.q.q.q.u.u.u.q.q.q.q...! ` q.=.Q                                     ",
"                                      ~ q.>.>.%.>.q.q.q.q.q.4.u.q.q.q.>.%.=.>.q.~                                       ",
"                                    C C   q.q.q.q.q.q.q.q.q.q.q.q.q.q.q.q.q.q.  Z C                                     ",
"                                      Z           q.q.q.q.q.q.q.q.q.q.          C                                       ",
"                                      C           q.q.q.q.q.q.q.q.q.q.          C                                       ",
"                                      C           q.    q.    q.    q.          C                                       ",
"                                                                                                                        ",
"                                        C                                     C                                         ",
"                                        C C                                 C C                                         ",
"                                            C                             C                                             ",
"                                                                                                                        ",
"                                                  C                 C                                                   ",
"                                                                                                                        ",
"                                                  q.      q.q.      q.                                                  ",
"                                                  q.q.q.q.q.q.q.q.q.q.                                                  ",
"                                                  q.      q.q.      q.                                                  ",
"                                                  q.q.q.q.q.q.q.q.q.q.                                                  ",
"                                                          q.q.                                                          ",
"                                                    <.1.        <.1.                                                    ",
"                                                    Z A         A C                                                     ",
"                                                  C C C C C C C C C C                                                   ",
"                                                  Z     C C C C     C                                                   ",
"                                              q.q.A C C C     C C C A q.q.                                              ",
"                                          q.q.                            q.q.                                          ",
"                                                                                                                        ",
"                                        q.                                    q.                                        ",
"                                        q.                                    q.                                        ",
"                                          q.                                q.                                          ",
"                                          q.                                q.                                          ",
"                                          Q                                 Q                                           ",
"                                      C C C                                 C Z C                                       ",
"                                                                                                                        ",
"                                                                                                                        ",
"                                                                                                                        ",
"                                                                                                                        "
};
