/* XPM */
static char *stones__3___1_1705341965[] = {
/* columns rows colors chars-per-pixel */
"60 60 27 1 ",
"  c None",
". c #8192A5",
"X c #8292A5",
"o c #8293A5",
"O c #8393A5",
"+ c #8394A5",
"@ c #8394A6",
"# c #8494A6",
"$ c #8495A6",
"% c #8595A6",
"& c #8596A6",
"* c #8696A6",
"= c #8697A6",
"- c #8797A6",
"; c #8797A7",
": c #8897A7",
"> c #8898A7",
", c #8998A7",
"< c #8999A7",
"1 c #8A99A7",
"2 c #8A9AA7",
"3 c #8B9AA7",
"4 c #8B9AA8",
"5 c #8B9BA8",
"6 c #8C9BA8",
"7 c #8C9CA8",
"8 c #8D9CA8",
/* pixels */
"      8           88               88           888         ",
"    8888        8888888          88883       8888888888     ",
"   888883       888888888       88888*      8888888888888   ",
"   888883.     88888888888      88888*.    888888888888886  ",
"  8888883.    8888888888888    888843..    888888888888886  ",
"  888888*.    88888888888883   88883...   8888888888888886* ",
"  888883..   888888888888883   373*...   88888888888888888* ",
"  88888*..   888888888888884*   .@...   888888888888888866*.",
"  88883@.   8888888888888888*    ...    888888888888888888*.",
"   683...   8888888888888888*          8888888888888888886..",
"   **...    8888888888888888*.         8888888888888888843@.",
"    ...    88888888888888888*.         8888888888888888884. ",
"            8888888888888888*.         888888888888888888*. ",
"            8888888888888883..         388888888888888883.. ",
"            668888888888885*.           ;588888888888888*.. ",
"             3688888888883*..            .38888888888886@.  ",
"      8888   @.**;3*4*;*@@...   888888    .@*3418888868*..  ",
"    8888888   ..............   88888888    ...@**:3333*..   ",
"   88888888*      ......      888888885*      ...........   ",
"  888888886*                  888888888*          ......    ",
"  888888888@                  888888888*                    ",
"  888888883..                8888888888*.                   ",
"  88888884..                 8888888888*.          88       ",
"  8888888*..                  888888885*.        888888     ",
"  888884*..     888888888     888888883@.      88888888     ",
"  68884@..     88888888888    888888883@.    88888888883    ",
"  ****...     8888888888888    8488383..    888888888884*   ",
"   .....     88888888888884*   ;3333*...   8888888888888@   ",
"     .      888888888888888@    @......   88888888888884@   ",
"            888888888888888*     ....     8888888888888*.   ",
"           8888888888888888*.            8888888888877;..   ",
"  8883     8888888888888888@.            888888888883*...   ",
" 88883.   88888888888888883@.            8888888484;@...    ",
" 88843.   88888888888888883.      8888   368888843*...      ",
" 8884@.   8688888888888877@.   88888888   *;3433*....       ",
"8886*..    388888888888873..   88888886*   .@......         ",
"688*..     .*688888888887:..  888888888*    .....           ",
" *....      ..*3588888841..   888888883@                    ",
" ....         ..@@*33333*..   888888883.                    ",
"                ..........    88888883..        888888888   ",
"      8888888      ......    88888884*..     8888888888884  ",
"     8888888888               888883@..    888888888888883  ",
"     88888888888              48883...    8888888888888888@ ",
"    8888888888888             @***...    88888888888888888* ",
"   888888888888888             .....     88888888888888888* ",
"   888888888888885                      888888888888888888*.",
"  88888888888888883                     888888888888888888@.",
"  88888888888888843        8888         888888888888888884@.",
" 888888888888888884@     88888888       888888888888888884@.",
" 888888888888888888@    88888888888     88888888888888888*. ",
" 888888888888888888*   8888888888888    68888888888888888*. ",
"8888888888888888888@    8888888888888    4888888888888883.. ",
"8888888888888888777@    88888888888888    38888888888888*.  ",
" 888888888888888773.    888888888888883   *388888888888*..  ",
" 88888888888888877*.     6888888888888*    *38888888884..   ",
"  8888888888888811@.     *;48888888884*.    @38688888*...   ",
"  *38888888888533O..      ..:33888887*..     @368773*...    ",
"   ..***;;;;***....         ...**;;*@..       .**;@....     ",
"    ..............            .........        ......       ",
"        ......                    ..             ..         "
};
