/* XPM */
static char *dollar__1_1704823560[] = {
/* columns rows colors chars-per-pixel */
"60 60 161 2 ",
"   c None",
".  c #DB6604",
"X  c #DD6B03",
"o  c #DD6F0E",
"O  c #DF7206",
"+  c #DE7513",
"@  c #E17404",
"#  c #E77E01",
"$  c #E27C0C",
"%  c #E17F21",
"&  c #E78001",
"*  c #E88203",
"=  c #EA8A07",
"-  c #E98608",
";  c #EA8A0B",
":  c #EE9307",
">  c #EC930B",
",  c #ED980F",
"<  c #F09706",
"1  c #F29C06",
"2  c #F09708",
"3  c #F39E09",
"4  c #E48716",
"5  c #EB8E13",
"6  c #EC9117",
"7  c #EE9C11",
"8  c #EC941B",
"9  c #ED991E",
"0  c #F29F14",
"q  c #F3A10E",
"w  c #EFA015",
"e  c #EDA11B",
"r  c #F2A314",
"t  c #F4AA13",
"y  c #F3A61B",
"u  c #F3AC1C",
"i  c #F6B016",
"p  c #F4B11D",
"a  c #E38727",
"s  c #E58822",
"d  c #E38728",
"f  c #E3892B",
"g  c #EC9720",
"h  c #EE9A23",
"j  c #ED9E2A",
"k  c #F09F25",
"l  c #E38A3B",
"z  c #E79539",
"x  c #E99D3E",
"c  c #EFA02D",
"v  c #F4A721",
"b  c #F4AB23",
"n  c #F0A22C",
"m  c #F4AC2A",
"M  c #F4B521",
"N  c #F6BC24",
"B  c #F5B22C",
"V  c #F5BE29",
"C  c #EEA433",
"Z  c #F2A633",
"A  c #F3AB35",
"S  c #F3AD3B",
"D  c #F6B334",
"F  c #F5B33C",
"G  c #F6BA3C",
"H  c #F7C127",
"J  c #F7C22C",
"K  c #F8C429",
"L  c #F9CB2D",
"P  c #F7C235",
"I  c #FACD32",
"U  c #F7C438",
"Y  c #FCD734",
"T  c #FDD835",
"R  c #FCD73B",
"E  c #FDD93C",
"W  c #E48D43",
"Q  c #E89642",
"!  c #EA9B43",
"~  c #E6974E",
"^  c #EA9F49",
"/  c #E79951",
"(  c #ECA245",
")  c #EFA847",
"_  c #EAA34F",
"`  c #EEAB4A",
"'  c #F1AC46",
"]  c #F1AE4E",
"[  c #F6B647",
"{  c #F6BC44",
"}  c #F5B649",
"|  c #F6BA4B",
" . c #EAA45E",
".. c #EFB55B",
"X. c #F0B755",
"o. c #F4BC54",
"O. c #F1BA5C",
"+. c #EEB263",
"@. c #F1BE65",
"#. c #F7C643",
"$. c #F8C642",
"%. c #FACC44",
"&. c #F7C04D",
"*. c #F8C34F",
"=. c #FCD544",
"-. c #FDDB45",
";. c #FDDC4C",
":. c #F7C056",
">. c #F8C554",
",. c #F7CA57",
"<. c #F9CA55",
"1. c #F5C25B",
"2. c #F7CA5D",
"3. c #FACE5A",
"4. c #FBD550",
"5. c #FDDD53",
"6. c #F9D15D",
"7. c #FDDE5B",
"8. c #FDE05E",
"9. c #F6C764",
"0. c #F8C663",
"q. c #F7C863",
"w. c #F9CB64",
"e. c #F7CC6C",
"r. c #F8CB6C",
"t. c #FAD364",
"y. c #FCDC64",
"u. c #FAD46C",
"i. c #FCDC6A",
"p. c #F5CD76",
"a. c #F6CF79",
"s. c #FAD474",
"d. c #FBDC72",
"f. c #F6D07A",
"g. c #FAD57A",
"h. c #FAD97D",
"j. c #FDE165",
"k. c #FEE269",
"l. c #FDE474",
"z. c #FDE57B",
"x. c #F8D580",
"c. c #FBDC83",
"v. c #FADD8E",
"b. c #F9DC92",
"n. c #F7D998",
"m. c #F8DB9B",
"M. c #FDE583",
"N. c #FDE886",
"B. c #FCE48B",
"V. c #FDE98C",
"C. c #FCE693",
"Z. c #FDEA94",
"A. c #FBE399",
"S. c #FEEC9A",
"D. c #FEEDA4",
"F. c #FEEEAB",
"G. c #FEF0AD",
"H. c #FEF1B3",
"J. c #FEF3BE",
"K. c #FEF3C3",
"L. c #FEF4C9",
/* pixels */
"                                                S.S.Z.Z.Z.Z.Z.F.L.L.L.L.                                                ",
"                                          S.Z.N.z.k.8.5.5.;.l.D.F.F.H.J.K.L.L.                                          ",
"                                    S.Z.z.k.;.E T Y Y Y Y 7.Z.S.S.S.S.S.S.D.H.J.K.D.                                    ",
"                                S.V.l.;.E Y Y T T T Y Y 8.Z.S.S.S.S.S.S.S.S.S.Z.k.l.V.S.                                ",
"                              V.k.-.T Y Y T T T T Y Y 8.Z.S.S.S.S.S.S.S.Z.S.V.5.Y Y -.k.Z.                              ",
"                          S.z.;.E Y Y T T T T T T Y j.Z.S.S.S.S.S.S.S.S.S.Z.5.Y Y Y T T ;.V.K.                          ",
"                        V.k.E Y T T T T T Y T T Y %.9.1.} ' [ } o.r.h.V.Z.8.Y T Y T Y T ;.V.H.L.                        ",
"                      N.8.T Y T T T T T T Y N w > = & & & # # # # # ; 9 m p I T T Y Y -.V.S.S.Z.Z.                      ",
"                    N.-.Y Y T T Y Y T L p > * # # # & * - ; 5 5 ; 5 ; * * * 2 u L T ;.V.S.S.N.-.5.G.                    ",
"                  z.-.T Y T T T T Y N = * # # * * ; g c A F [ ' [ [ [ F S k 8 ; > B M.S.S.N.-.-.z.S.K.                  ",
"                N.-.Y T T Y Y Y L 0 * * # * - 9 C [ [ [ [ [ [ [ [ [ [ | [ [ [ ' n 8 Z c.N.-.R z.S.S.D.J.                ",
"              N.-.Y T T Y T T N = # # # * 9 A [ | } [ [ [ [ [ [ [ [ [ [ [ [ [ [ [ [ Z c V -.z.S.S.S.S.D.K.              ",
"            V.8.Y T T T T T N - # & & 5 A [ [ [ [ [ [ [ [ o.:.| [ [ [ [ [ [ [ [ [ [ } ' n <.S.S.S.S.S.Z.G.L.            ",
"            k.T Y T T T T N - & & * 9 F [ [ [ [ [ [ [ [ [ g.l.y.[ [ [ [ [ [ | [ [ [ [ [ [ [ s.S.S.S.S.S.S.H.            ",
"          M.-.Y T T Y T H = & # * h [ [ [ [ [ [ [ [ [ [ [ t.k.y.| [ [ [ [ [ [ [ [ [ [ [ [ [ o.c.S.Z.S.S.Z.D.G.          ",
"          5.Y Y T Y T I > # & * j [ [ [ [ [ [ [ [ [ [ [ [ 6.k.y.| [ [ [ | [ [ [ [ [ [ [ [ [ [ o.C.S.S.S.S.l.8.          ",
"        l.E Y T T T Y r # * # h [ [ [ [ [ [ [ [ [ [ | >.<.y.k.y.<.*.[ [ [ [ [ [ [ [ [ [ [ [ [ F >.S.S.S.l.E E l.        ",
"        5.Y T T T T N * # # 6 [ [ [ [ [ [ [ [ [ | r.i.y.k.k.j.k.k.l.v.0.[ [ [ [ } { [ [ F m r 3 r g.S.l.E Y Y ;.        ",
"      l.E Y T T T Y 0 # * ; F [ [ [ [ [ [ [ [ | c.z.k.k.k.k.k.j.z.D.H.F.r.[ [ [ [ [ [ b r 3 3 3 < G z.E Y T Y -.Z.      ",
"      5.Y Y T T T N * # # Z [ [ [ [ [ [ [ [ [ g.M.y.k.k.k.k.k.l.F.H.H.D.l.| [ [ [ b 0 3 3 3 3 3 3 3 %.T T Y E l.F.      ",
"      -.Y T T T Y 0 # # 6 [ [ [ [ [ [ [ [ [ o.l.k.k.k.j.j.2.1.b.H.H.D.l.l.h.[ m 0 1 3 3 3 3 3 3 3 3 D -.Y E l.S.D.      ",
"    j.E T T T T K - & * Z [ [ [ [ [ | [ [ [ <.k.j.k.k.j.X.l W / n.D.l.k.S.D.D 1 3 1 3 3 3 3 3 3 3 3 r 4.E l.Z.S.Z.Z.    ",
"    5.Y T T T T p # & 5 [ [ [ [ [ [ [ [ [ [ 3.k.k.k.k.y.^ ( ) Q +.l.l.S.D.S.G 3 3 3 3 3 3 3 3 3 1 1 3 <.z.S.S.Z.7.5.    ",
"    -.Y T T T Y r # * n [ [ [ [ [ [ [ [ [ [ 3.k.k.y.i.d.} [ [ [ ` i.C.A.Z.Z.&.1 3 3 3 3 3 3 3 3 q q 1 | F.S.Z.7.T -.    ",
"    R T T Y T 4.8 # - S [ [ [ | [ { [ [ [ [ >.k.k.j.z.D.r.[ [ [ ' z d a a d 6 3 1 1 q 1 3 3 q 3 3 3 1 m F.Z.7.Y T E     ",
"    T Y T T j.h.5 # 5 [ [ [ [ [ [ } } [ } [ | k.k.l.D.H.D.0.[ [ k @ X X X X - 3 q q 1 1 3 3 1 3 3 3 1 u A.j.T Y T R     ",
"  U T T T 8.Z.g.- # h [ [ [ [ [ [ [ [ [ [ [ ) 2.l.D.H.H.D.l.6.{ r < < 2 < < 3 3 1 q 3 q 3 q 3 3 3 3 3 r i.E Y T T Y U   ",
"  J Y R 8.Z.S.e.- # j [ [ [ [ [ [ [ [ [ [ [ ) _ A.H.H.D.l.k.V.C.s.G t 3 3 3 3 3 1 1 3 3 3 1 3 3 3 3 1 q t.-.Y T T T J   ",
"  N Y 7.Z.S.S.e.# * A [ [ [ [ [ [ [ [ [ [ [ [ Q  .m.D.l.k.N.S.S.S.Z.s.m 1 q 1 1 q 1 1 q 3 3 3 3 3 3 1 q t.-.T T T Y N   ",
"  M 7.Z.S.S.S.e.* * S [ [ | [ [ [ [ [ | [ [ [ [ Q ~ ..t.N.S.S.S.S.S.S.N.D 1 1 q 1 q q 1 3 q 3 3 3 3 1 q u.-.T T T Y M   ",
"  [ C.S.S.S.S.s.- - S | [ [ [ [ [ [ [ [ [ [ [ [ [ Q l s ( a.S.S.S.S.Z.S.N.B 1 1 1 1 1 1 3 3 q 3 3 3 1 q u.-.T T Y Y u   ",
"  ' Z.S.S.S.S.h.- - S [ [ [ [ [ | [ [ [ [ [ [ [ [ [ 9 @ . o z a.S.S.S.S.S.3.q 1 q q 1 q 3 3 1 3 3 3 3 r d.-.T T Y Y u   ",
"  Z B.S.S.S.Z.N.8 * S [ [ [ [ [ [ [ [ [ [ | [ [ | B r 3 < # . + p.S.S.S.z.T t q q 1 1 q 1 1 q 1 3 3 1 u l.E Y T T L 0   ",
"  g c.S.S.S.S.Z.j & A [ [ [ [ [ [ [ [ | [ 0.i.i.c.h.s.u 1 1 : # x S.S.l.E Y i , 1 q 1 q q 1 1 q 1 q 1 D z.T T T T L >   ",
"    e.S.S.S.S.S.} # C [ [ [ [ [ [ [ [ [ [ :.l.Z.S.S.S.D < q 3 < C S.z.E Y Y i 1 1 q 1 1 q 1 1 q q 1 q *.k.T Y T T H     ",
"    o.S.S.S.S.Z.#.* g [ [ | [ [ | [ [ [ [ o.Z.D.S.S.S.2.3 3 3 3 { l.E Y T Y t 1 q 1 1 q 1 1 q 1 1 1 q s.7.Y T T T u     ",
"    C Z.S.S.V.5.I 2 5 [ [ [ [ [ | [ [ [ [ ] b.S.S.S.S.Z.>.b y D y.E Y T T I , q q 1 1 q q q 1 q 3 3 m M.-.Y T T Y 7     ",
"    5 c.S.Z.5.Y E u - S [ [ | [ [ [ [ [ [ C ) S.S.S.S.S.S.V.B.l.E Y T Y E { > 3 1 1 q 1 1 1 1 1 3 3 >.l.Y Y T T L ;     ",
"    & o.Z.5.Y Y T L = n [ [ [ [ [ [ [ [ F 0 $ @.S.S.S.S.S.S.z.E Y T Y E 6.a : 3 q 1 q 1 1 q q 1 3 y z.5.Y Y T T u &     ",
"      h ;.Y Y Y T T u 8 [ [ [ [ [ [ [ [ v 3 = + ..C.S.S.S.l.E T Y E E >.f & 3 3 q 1 1 q 1 1 q 1 3 >.z.E Y T T I ,       ",
"      * N T Y T Y Y =.9 Z [ [ [ [ [ [ F 3 3 3 # X f O.h.d.E Y Y I V c + @ 2 3 3 1 q q 1 q q 1 1 B M.5.Y T Y T N *       ",
"      # , Y T T T -.V.r.g [ [ [ [ [ [ v 3 3 3 2 = X . + 4 I T M $ X X @ 2 3 3 3 1 1 1 1 1 1 1 q u.l.T Y T T Y 7 #       ",
"        & N T Y ;.V.S.S.} n [ [ [ [ F 3 3 3 3 3 3 : = O - I T p @ # = 3 3 3 3 3 q 1 1 q q 3 q *.V.-.Y T T T N &         ",
"        # > L ;.V.S.S.N.-.b [ [ [ [ y 3 3 3 3 3 q q 1 , q I -.#.: 3 3 3 3 3 3 3 1 q q 1 1 q G V.5.Y Y Y T L > #         ",
"          & b N.S.S.N.-.-.i.1.[ [ F 3 3 q 1 1 q 1 q 1 q 3 e Z C q 3 3 3 3 3 3 3 3 3 3 3 1 G N.y.T T T T Y r &           ",
"          & - 9.S.N.-.E z.S.C.r.[ b 3 3 1 q 1 1 q 1 1 1 < X . # 3 3 3 3 3 3 3 3 3 3 1 3 $.B.k.T Y T T T N - &           ",
"            # 5 u.-.E z.S.S.S.S.g.b 1 1 1 q 1 q q 1 q 1 1 = = : 3 3 q 1 3 3 3 3 3 1 t 3.V.8.Y Y T Y T K = &             ",
"              # 6 I z.S.S.S.S.S.S.c.D q 1 1 1 q 1 1 q 1 q 1 q 1 q 3 3 3 3 3 3 1 3 D h.N.5.Y Y Y T T L > #               ",
"              & # 9 c.S.S.S.S.S.S.S.S.g.m q 1 1 3 3 3 3 3 3 1 q 3 3 3 1 1 3 3 b t.B.l.-.Y Y T T T L , # #               ",
"                & & h h.S.S.S.S.S.S.S.z.7.<.D y 3 1 1 1 1 1 q 1 1 1 3 3 y G u.N.z.-.Y Y T Y T T K , & &                 ",
"                  & # 8 p.S.Z.S.S.S.z.E Y E 8.y.g.w.{ D b y u b b G *.u.c.N.k.;.E Y T T Y T T N > & &                   ",
"                    & # ; o.C.S.S.l.E Y T Y T l.D.G.F.N.l.d.z.h.z.z.l.8.;.R T T T T T Y T Y u = & &                     ",
"                      & # * j s.l.E T T Y E l.Z.S.Z.8.T E E E E E T Y Y Y T T T T T T Y K , * & *                       ",
"                        * * # ; y L Y T E l.S.S.Z.8.Y Y Y Y T Y Y Y Y T T T T T T Y L r = # # &                         ",
"                          * * # & = w K i.S.S.Z.8.T T T T T T T T T T T T Y T Y H r = & # * *                           ",
"                              * & & & - j o.s.7.Y T T T T T T T T T Y Y I K u , - # & & &                               ",
"                                  * * & # # - > 7 u p N H K K H H p u 7 > * & & & * *                                   ",
"                                      & * # * # # # & * * * * * * * & & # & & & &                                       ",
"                                          * * * * * & & # # # # # # * * * & *                                           ",
"                                                * & & * * * * * * * * &                                                 "
};
