/* XPM */
static char *door__1_1704823871[] = {
/* columns rows colors chars-per-pixel */
"60 60 69 1 ",
"  c None",
". c #875948",
"X c #8A5C4A",
"o c #8E604C",
"O c #92634E",
"+ c #966651",
"@ c #9B6B54",
"# c #9F6F59",
"$ c #9F705A",
"% c #A06F52",
"& c #A47354",
"* c #A67A57",
"= c #AD7F53",
"- c #A1715A",
"; c #A77760",
": c #AA7A63",
"> c #AE825C",
", c #B58C5C",
"< c #B38363",
"1 c #B98A63",
"2 c #BD9361",
"3 c #C28D51",
"4 c #C19159",
"5 c #CD9E5B",
"6 c #CFA05C",
"7 c #D5A056",
"8 c #DFA750",
"9 c #DFA952",
"0 c #D2A45D",
"q c #DEAE5E",
"w c #E5AC53",
"e c #E5AE5A",
"r c #EEB450",
"t c #EEB957",
"y c #E4B35C",
"u c #F0B753",
"i c #F0B957",
"p c #C29364",
"a c #C79F65",
"s c #CA9A63",
"d c #C1966A",
"f c #C99F6D",
"g c #C9A266",
"h c #CDA668",
"j c #D3A464",
"k c #D5B16A",
"l c #DBB66E",
"z c #E5B564",
"x c #E7B864",
"c c #E2BD6F",
"v c #E1BE70",
"b c #FFC14F",
"n c #FFC352",
"m c #FFC758",
"M c #FFCA5D",
"N c #EEC061",
"B c #FFCE62",
"V c #F8CF6C",
"C c #FFD165",
"Z c #FFD46B",
"A c #FFD86F",
"S c #E4C073",
"D c #E8C474",
"F c #EDCB75",
"G c #FFD770",
"H c #FFDA74",
"J c #F3D278",
"K c #FFDE7B",
"L c #FFE07D",
/* pixels */
"                         HKKKZBKLLL                         ",
"                      ZHKLKLKZZKLLLLKL                      ",
"                    ZHKLLLLLKBZHLLLLLLLL                    ",
"                  CGKLLLLLLLKZZKLLLLLLLLKL                  ",
"                 ZHKLLLLLLLLKBZKLLLLLLLLLLL                 ",
"                ZHLLLLLLLLLLKZZKLLLLLLLLLLLL                ",
"               mHLLLLLLKLLLLKBBKLLLLKLLLLKLKZ               ",
"              mBZKLLLKLLKFka2=>1glFKLLKLKLKZCZ              ",
"             CGZBZKLKLKv2@X++XX+@@*2vKLLLKZCZKL             ",
"            BZKKZCZKLF,+@Oo$-@@;--@+O,FLKZBZKLKL            ",
"           BZKLLKZCZc*.O-$@*:#@::::-O.*cZCZKLKLLK           ",
"           CGLLKLKZq&+X#:-@-:@@;::::#o+&qZKLKLLLL           ",
"          BZKKLLKLS&@#@$:-+;;@#:::::$@#@&SLLLLLLLL          ",
"          CGLLLLLJ>+--@#:$@;:@@;::::##--+>JLLLLLLL          ",
"          CHLKLLKg@#:;@-:-@;:@#:::::-@;:$+gLLLLLLL          ",
"         BZKLLLLF*@-:;@-::*:;#@;::::#@;:;@&FLLLLLLK         ",
"         CALLLLLg+$:::@-:::::@@:::::-#:::@@gLLLLLLL         ",
"         CHLLLLJ>+#-:-@-:::::#@:::::-@*:;@+>JLLLLLL         ",
"       mCBZAGGAC02@#::@-::::*#@:::::-@-:-@37CHAAGGZZB       ",
"      bmCCMCCCCCCt&#:-@#:::::@@:::::#@::@%rmMCBCCBBBCC      ",
"      bnmmmmmmmmmt&@:;@#:::::@@:::::#@;:@&rbnmmmmmmmmm      ",
"      nbbnnbbbbnbw&%:;@-:::::@@:::::#@;:@%rubbbbnnnnnb      ",
"       bmMMBBBBBy&@-:;@#:::::@@:::::-@;:-@&wnMBBBMMBB       ",
"       bnBBBMBBCq@@*:;@#:::::@@:::::#@::;#@8nBBBBBBBB       ",
"       nbnnnnnnn8@-::;@%:::::@#:::::-@;::#@9bnnnnbnnn       ",
"       nmmmMBMMi3@-::;@-:::::--;::::-@;::-@3ummMMMMMn       ",
"        BCKKKKLh@@;::;@-::::dFFd::::#@;::*@+6CHLKKKK        ",
"        CCKKLLLh+-:::;+-:::<DLLD<:::%@;:::&+6CHLLLLL        ",
"        BCKHHLLh@-:::;@-::<rGLLHe<::-@;:::;@5CGHHKKL        ",
"        BZHCZLLh+-:::;@-::euVLLVne::#@;:::-+5CHZCKLL        ",
"        BCKCZKLh@-:::;+-:sBedDS2eMp;-@;:::;+5CGZCKLL        ",
"        BZHCZLKh@;:::;@-:jCd::::sBj:#@::::-@5CHZBKLL        ",
"        BCKCZKLh@-::::@#:jBs:::;sCj:#@-:::-@5CGZCKKL        ",
"        BZHCZKLh@-:::;@-;pBx:::<zVp:-@::::-+5CHZCHLL        ",
"        BZHCZLLh+-:::;@#::zBxsszBz::#@::::-@5CHZCKLK        ",
"        BCHZZLLh@;:::;@-::<zBCCBz1::-@;:::-#5CHZCKLL        ",
"        CCKCCKLh@-:::;@#:::<ds5p::::-@;:::-+5CAZCKKL        ",
"        BZHCZLLh@-:::;@-::::;@@:::::-@;::<-@6BAZCHLL        ",
"        CCHCZLLh@-:::;@#:::::@#;::::-@-:::-+6CHACKLL        ",
"        CCHCZLLh@-:::;@#:::::@@:::::#@::::&+6CAZCKLL        ",
"        BCHCZKLh@-::::@#::::;##;::::#@*:::-@5CGZCKKL        ",
"        CCKCZKLh@-:::;@-:::::@@:::::#@::::-@5CHZCKLL        ",
"        BCKCZLLh+-:::;@#::::;@#;::::-@::-$-@5CGZCKLL        ",
"        BCHCZLLh@;:::;@-:::::#@;::::-+-:@#-@5ZHZCHLL        ",
"        CZHCZKLh@-:::;@&::::;@#:::::$@-:@@-+6BAZCKKL        ",
"        MZHCZKLh+;:::;@-::-::@@:::::$@::@#-@5CHZCKLL        ",
"        CCLCZLLh+-:::;@-:-@-:#@:::::$@*:@&-+6CHZCKLL        ",
"        CZHAHLLh@-:::;@-:-#-:@@:::::$@;:@#$+6CAHGKLL        ",
"        BZHLLLLh+#$$$@O+-@O@#++#;---+O#-++@+5CHKKLLL        ",
"        BZKLLKLh+@@@@+.O++.++.X+@@@@X.O+XX@@0CHKLKLL        ",
"      @:psfffff1;-;-;;#$--#----;-;-;---*----1sfffff2::      ",
"     @@;:;::;::::::::::::::::::::::::::::::::;::;::::::     ",
"     @@-::::::::::::::::::;:;:;:::::::::;:;::;:::::::::     ",
"     @@---#%##-#####@$$#--------@#-@---#------#-####;##     ",
"     @@@@@@@@@@@@@@@@@@@@@@@@@@@@@@@@@@@@@@+@@@@@@@@@@@     ",
"   @:::-;:-;:-;;;;;;;;;;;;;;;-;;;:;;;;;;;;;;;;;;;;;;;;:::   ",
"  @@;:::::::::::::::::::::::::::::::::::::::::::::::::::::  ",
"  @@;:::::::::::::::*:::::::::::::::::::::::::::::::::::::  ",
"  @@@&#######@%%####&#######%###-@@--%-@-@#@-%-@####%#####  ",
"  @O+@+@+@+@@@@+@+@+@++++@+@+@+@@+@@++@+@@@@+@++@+@+@++++@  "
};
