/* XPM */
static char *door__1_1704843658[] = {
/* columns rows colors chars-per-pixel */
"60 60 218 2 ",
"   c None",
".  c #212326",
"X  c #222426",
"o  c #232426",
"O  c #252525",
"+  c #262524",
"@  c #242526",
"#  c #242527",
"$  c #252527",
"%  c #252627",
"&  c gray15",
"*  c #262627",
"=  c #262727",
"-  c #272727",
";  c #282727",
":  c #282827",
">  c #292827",
",  c #2A2826",
"<  c #2B2826",
"1  c #272728",
"2  c #272828",
"3  c #282828",
"4  c #292828",
"5  c #292928",
"6  c gray16",
"7  c #2A2928",
"8  c #2B2928",
"9  c #2B2A28",
"0  c #2B2A29",
"q  c #2C2A28",
"w  c #2D2A28",
"e  c #2C2B29",
"r  c #2D2B29",
"t  c #2D2C29",
"y  c #2F2D29",
"u  c #2E2C2A",
"i  c #2F2C2A",
"p  c #332D29",
"a  c #302D2A",
"s  c #322E2B",
"d  c #322F2B",
"f  c #342E29",
"g  c #352E29",
"h  c #34302C",
"j  c #36312C",
"k  c #37322C",
"l  c #38302A",
"z  c #39302A",
"x  c #39312A",
"c  c #38332D",
"v  c #3D362E",
"b  c #3F382F",
"n  c #353636",
"m  c #373737",
"M  c #433D2C",
"N  c #4C3A2D",
"B  c #413930",
"V  c #463D31",
"C  c #483E32",
"Z  c #493E32",
"A  c #50482F",
"S  c #4E4234",
"D  c #554736",
"F  c #5C4C38",
"G  c #5E4D39",
"H  c #6C4B32",
"J  c #604E39",
"K  c #604F3A",
"L  c #605432",
"P  c #6D5F35",
"I  c #62503A",
"U  c #63503A",
"Y  c #64513B",
"T  c #68543C",
"R  c #6F583E",
"E  c #795134",
"W  c #7B5234",
"Q  c #735B3F",
"!  c #796737",
"~  c gray28",
"^  c #494949",
"/  c #565656",
"(  c gray34",
")  c #5A5A5A",
"_  c #5B5B5B",
"`  c #745C40",
"'  c #765E40",
"]  c #7B6142",
"[  c #7C6242",
"{  c #7D6343",
"}  c #7F6443",
"|  c #656565",
" . c #686868",
".. c #8C5B37",
"X. c #925E37",
"o. c #935F38",
"O. c #945F38",
"+. c #976138",
"@. c #986138",
"#. c #996138",
"$. c #8A753A",
"%. c #947C3C",
"&. c #A3673A",
"*. c #A4673A",
"=. c #A5683A",
"-. c #A7693B",
";. c #AF6D3C",
":. c #B6713D",
">. c #B9723D",
",. c #806544",
"<. c #826644",
"1. c #846745",
"2. c #856845",
"3. c #8A6B47",
"4. c #8E6E48",
"5. c #917049",
"6. c #93724A",
"7. c #96734A",
"8. c #97744B",
"9. c #98754B",
"0. c #9B774C",
"q. c #9C784C",
"w. c #9E794D",
"e. c #A27C4E",
"r. c #C87A40",
"t. c #CB7B40",
"y. c #CF7D41",
"u. c #D07E41",
"i. c #D17E41",
"p. c #D27F41",
"a. c #AC9040",
"s. c #AF9241",
"d. c #B59842",
"f. c #A88050",
"g. c #A98150",
"h. c #AA8151",
"j. c #AB8251",
"k. c #B08653",
"l. c #B18653",
"z. c #B08753",
"x. c #B28753",
"c. c #BA8C56",
"v. c #BC8E56",
"b. c #BE9057",
"n. c #D58142",
"m. c #C29258",
"M. c #C49359",
"N. c #C7965A",
"B. c #C7975B",
"V. c #CF9B5C",
"C. c #D19C5D",
"Z. c #D59F5E",
"A. c #D6A05F",
"S. c #D7A05F",
"D. c #DEA561",
"F. c #E0A762",
"G. c #E3A863",
"H. c #E5AA64",
"J. c #E6AB64",
"K. c #E9AD65",
"L. c #EAAE65",
"P. c #EBAE65",
"I. c #EDB066",
"U. c #EEB166",
"Y. c #F0B167",
"T. c #F1B267",
"R. c #F1B368",
"E. c #F3B468",
"W. c #F5B568",
"Q. c #F5B569",
"!. c #F6B669",
"~. c #F7B769",
"^. c #F8B769",
"/. c #F9B86A",
"(. c #F9B96A",
"). c #FAB96A",
"_. c #FFBA69",
"`. c #FCBA6B",
"'. c #FDBB6B",
"]. c #FFBB6A",
"[. c #FEBB6B",
"{. c #FFBB6B",
"}. c #FFBB6C",
"|. c #FEBC6C",
" X c #FFBC6C",
".X c #FEBD6C",
"XX c #FFBD6C",
"oX c #FFBE6C",
"OX c #FFBE6D",
"+X c #FFBF6D",
"@X c #FFBC6E",
"#X c #FFBD6E",
"$X c #FFBD70",
"%X c #F1C84D",
"&X c #F4CA4E",
"*X c #FFC06E",
"=X c #FFC076",
"-X c #FFC37C",
";X c #AFAFAF",
":X c gray69",
">X c #B6B6B6",
",X c #FFC887",
"<X c #FFD19A",
"1X c #FFD19B",
"2X c #FFD19C",
"3X c #FFD29C",
"4X c #FFDBB1",
"5X c #FFE3C2",
"6X c #FFE9D0",
"7X c #FFEAD2",
"8X c #FFF1E0",
"9X c gray94",
"0X c #F1F1F1",
"qX c #F4F4F4",
"wX c gray96",
"eX c gray98",
"rX c #FBFBFB",
"tX c white",
/* pixels */
"        - - - - - - - - - - ; - - - - - - - - - - - - - - - - - ; - - - - - ; - -                         - 1 -         ",
"        - 3 f x l l g l l l l l l l l l l l l l l l l l l l l l l x l l l x g = -                 - - - - - 1 -         ",
"        - w X.>.:.:.:.:.:.:.:.:.:.:.:.:.:.:.:.:.:.:.:.:.:.:.:.:.:.:.:.:.:.>.X.w -       - - - 1 - - h S ] ] 3 <         ",
"        - w &.p.p.p.p.p.p.p.p.p.p.p.p.p.p.p.p.p.p.p.p.p.p.p.p.p.p.p.p.p.y.r.O.w - - - - - 3 k D ] f.C.I..XN.i 1         ",
"        - w &.y.t.-.@.@.@.@.@.+.@.@.@.@.@.@.@.@.@.@.@.@.@.@.@.@.O.@.@...H N p - - 3 v F 1.k.Z.R.(.oXoXoXoXN.e 1         ",
"        - w &.n.;.x ; + + + + - + + + + + + + + + + + + + + + + + - ; ; - 3 B Y 4.c.D.!.}.oXoX}.oX}.}.}.oXN.i 1         ",
"        2 w &.p.=.w n |  . . . . . . . . . . . . . . . . . . . . .| n 1 ` M.F.^.oXoXoXoX}.}.oXoX}.}.oX}.oXN.e 2         ",
"        - < &.p.*.; ( 9XeXeXeXeXeXeXeXeXeXeXeXeXeXeXeXeXeXeXeXeXeXqX) - j.oXoX}.}.}.}.}.oX}.}.}.}.oX}.oXoXN.i -         ",
"        - w &.p.=.< ( qXtXtXtXtXtXtXtXtXtXtXtXtXtXtXtXtXtXtXtXtXtXqX_ - j.oX{.{.oX{.{.{.}.oXoX}.}.}.oX}.oXB.0 1         ",
"        - w &.p.=.< ( qXtXtXtXtXtXtXtXtXtXtXtXtXtXtXtXtXtXtXtXtXtXqX_ - k.oX{.2X5X-X{.{.}.}.}.}.oX}.oX}.oXN.a 1         ",
"        - w &.p.=.< ( qXtXtXtXtXtXtXtXtXtXtXtXtXtXtXtXtXtXtXtXtXtXqX) o k.oXoX7XtX<X{.{.oX}.}.oX}.oX}.}.oXB.i 1         ",
"        - w &.p.=.< ( qXtXtXtXtXtXtXtXtXtXtXtXtXtXtXtXtXtXtXtXtXtXqX) - k.oX$X7XtX2X{.}.oX}.}.oX}.}.}.oXoXN.i 1         ",
"        - w &.p.=.< ( qXtXtXtXtXtXtXtXtXtXtXtXtXtXtXtXtXtXtXtXtXtXqX_ - k.$X$X7XtX2X{.{.oX}.}.}.oX}.}.oX$XN.0 1         ",
"        - w &.p.=.< ( qXtXtXtXtXtXtXtXtXtXtXtXtXtXtXtXtXtXtXtXtXtXqX_ - k.oXoX7XtX2X{.{.}.}.oX}.oX}.}.oXoXN.f 1         ",
"        - w &.p.=.< ( qXtXtXtXtXtXtXtXtXtXtXtXtXtXtXtXtXtXtXtXtXtXqX) o k.oXoX7XtX<X{.{.}.oX}.oX}.}.}.}.oXB.0 1         ",
"        - w &.p.=.< ( qXtXtXtXtXtXtXtXtXtXtXtXtXtXtXtXtXtXtXtXtXtXqX_ - k.oXoX7XtX<X{.{.}.oX}.}.}.oXoX}.oXB.0 1         ",
"        - w &.p.=.< ( qXtXtXtXtXtXtXtXtXtXtXtXtXtXtXtXtXtXtXtXtXtXqX_ - j.oXoX7XtX2X{.{.}.oX}.}.}.}.}.oXoXN.i 1         ",
"        - w &.p.=.< ( qXtXtXtXtXtXtXtXtXtXtXtXtXtXtXtXtXtXtXtXtXtXqX_ - k.oXoX7XtX2X{.}.}.oX}.oXoXoX}.}.oXN.i 1         ",
"        - w &.p.=.< ( qXtXtXtXtXtXtXtXtXtXtXtXtXtXtXtXtXtXtXtXtXtXqX) + k.oX$X7XtX<X{.{.}.}.oX}.}.}.oX}.oXB.0 1         ",
"        - w &.p.=.< ( qXtXtXtXtXtXtXtXtXtXtXtXtXtXtXtXtXtXtXtXtXtXqX) o k.oXoX4X8X,X{.{.oX}.}.}.}.oX}.}.oXB.f 1         ",
"        - w &.p.=.< ( qXtXtXtXtXtXtXtXtXtXtXtXtXtXtXtXtXtXtXtXtXtXqX_ - k.oX}.$X=X{.{.}.oX}.}.oX}.}.oX}.oXB.0 1         ",
"        - w &.p.=.< ( qXtXtXtXtXtXtXtXtXtXtXtXtXtXtXtXtXtXtXtXtXtXqX_ - k.oX}.}.{.{.}.oXoX}.}.oXoX}.oX}.oXN.e 3         ",
"        - w &.p.=.< ( qXtXtXtXtXtXtXtXtXtXtXtXtXtXtXtXtXtXtXtXtXtXqX) - k.oXoX}.{.}.}.}.}.}.}.}.}.oX}.}.oXB.i 1         ",
"        - w &.p.=.< ( qXtXtXtXtXtXtXtXtXtXtXtXtXtXtXtXtXtXtXtXtXtXqX) - k.oX}.}.oXoXoX}.}.oXoX}.}.}.}.oXoXN.i 1         ",
"        - w &.p.=.< / qXtXtXtXtXtXtXtXtXtXtXtXtXtXtXtXtXtXtXtXtXtXqX_ - j.oX}.oX}.oXoX}.}.oXoXoXoX}.}.oXoXN.w 1         ",
"        - w &.p.=.< / qXtXtXtXtXtXtXtXtXtXtXtXtXtXtXtXtXtXtXtXtXtXqX_ - k.oX}.oX}.}.}.}.}.}.}.oXoX}.}.oXoXB.w 1         ",
"        - w &.p.=.< / qXtXtXtXtXtXtXtXtXtXtXtXtXtXtXtXtXtXtXtXtXtXqX) o k.oXoX}.oX}.oX{.oXoX(.(.oXoX}.}.oXB.e 3         ",
"        - w &.p.=.w ( qXtXtXtXtXtXtXtXtXtXtXtXtXtXtXtXtXtXtXtXtXtXqX) - k.oXoX}.oX}.{.}.R.h.R T 8.H.}.}.oXB.e 3         ",
"        - w &.p.=.< / qXtXtXtXtXtXtXtXtXtXtXtXtXtXtXtXtXtXtXtXtXtXqX_ - j.oX}.}.}.oX}.!.<.5 = = - G G.oXoXN.i 1         ",
"        - w &.p.=.< / qXtXtXtXtXtXtXtXtXtXtXtXtXtXtXtXtXtXtXtXtXtXqX_ - k.oXoXoX}.}.oXv.i y $.s.S o 5.oX$XN.i 1         ",
"        - w &.p.=.w ( qXtXtXtXtXtXtXtXtXtXtXtXtXtXtXtXtXtXtXtXtXtXqX) - k.$X}.}.oXoX!.1.o 3 L %Xd.= G /.oXN.i -         ",
"        - w &.p.*.; ( qXtXtXtXtXtXtXtXtXtXtXtXtXtXtXtXtXtXtXtXtXtXqX) - k.*X}.}.!.f.G w = < P &Xa.= Y /.oXN.i -         ",
"        - w &.p.=.< ( qXtXtXtXtXtXtXtXtXtXtXtXtXtXtXtXtXtXtXtXtXtXqX_ - k.oXoXoXV.a 1 b e w ! %.M - w.oXoXN.a 1         ",
"        - w &.p.=.< ( qXtXtXtXtXtXtXtXtXtXtXtXtXtXtXtXtXtXtXtXtXtXqX) - k.oX}.}.R.q.h.D.8.a # . 3 ` I.oXoXN.w 1         ",
"        - w &.p.=.< ( qXtXtXtXtXtXtXtXtXtXtXtXtXtXtXtXtXtXtXtXtXtXqX) - k.oX}.}.}.oXoXoX(.M.3.1.k.R.}.}.oXB.w 1         ",
"        - w &.p.=.< ( qXtXtXtXtXtXtXtXtXtXtXtXtXtXtXtXtXtXtXtXtXtXqX) - k.oX}.oX}.}.}.}.oX}.oXoXoX}.}.oXoXB.0 1         ",
"        - w &.p.=.< ( qXtXtXtXtXtXtXtXtXtXtXtXtXtXtXtXtXtXtXtXtXtXqX) - j.oX}.}.oX}.}.}.}.}.}.oXoX}.}.}.oXN.i -         ",
"        - w &.p.=.< ( qXtXtXtXtXtXtXtXtXtXtXtXtXtXtXtXtXtXtXtXtXtXqX) - k.oXoX}.}.}.oXoX}.oX}.}.}.}.oX}.oXN.i 1         ",
"        - w &.p.=.< ( qXtXtXtXtXtXtXtXtXtXtXtXtXtXtXtXtXtXtXtXtXtXqX_ - k.oXoX}.}.oX}.}.oX}.oX}.}.oX}.oXoXB.i 1         ",
"        - w &.p.=.< ( qXtXtXtXtXtXtXtXtXtXtXtXtXtXtXtXtXtXtXtXtXtXqX_ - k.oX}.oX}.}.oX}.}.}.oX}.}.oX}.}.oXN.i 1         ",
"        - w &.p.=.< ( qXtXtXtXtXtXtXtXtXtXtXtXtXtXtXtXtXtXtXtXtXtXqX) - k.oXoX}.oX}.}.oX}.}.}.oX}.oX}.}.oXB.a 1         ",
"        - w &.p.=.< ( qXtXtXtXtXtXtXtXtXtXtXtXtXtXtXtXtXtXtXtXtXtXqX) o k.oX}.}.oX}.}.oX}.oX}.}.}.oX}.oXoXB.w 1         ",
"        - w &.p.=.< ( qXtXtXtXtXtXtXtXtXtXtXtXtXtXtXtXtXtXtXtXtXtXqX) - k.$X}.oX}.}.}.}.oX}.oX}.}.}.oX}.oXB.0 1         ",
"        - w &.p.=.< ( qXtXtXtXtXtXtXtXtXtXtXtXtXtXtXtXtXtXtXtXtXtXqX) - k.oX}.oX}.oXoX}.}.}.oX}.oX}.}.}.oXB.0 1         ",
"        - w &.p.=.< ( qXtXtXtXtXtXtXtXtXtXtXtXtXtXtXtXtXtXtXtXtXtXqX_ - k.oXoX}.}.oXoX}.}.}.oX}.}.}.oXoXoXN.i -         ",
"        - w &.p.=.< ( qXtXtXtXtXtXtXtXtXtXtXtXtXtXtXtXtXtXtXtXtXtXqX) - k.*XoX}.}.}.}.}.oX}.oX}.oX}.}.}.oXN.i -         ",
"        - w &.p.=.< ( qXtXtXtXtXtXtXtXtXtXtXtXtXtXtXtXtXtXtXtXtXtXqX) - k.$XoX}.oX}.}.oX}.oX}.}.oX}.}.}.oXB.i -         ",
"        - w &.p.=.< ( qXtXtXtXtXtXtXtXtXtXtXtXtXtXtXtXtXtXtXtXtXtXqX) - j.oX}.}.oX}.}.oX}.}.}.oX}.}.oXoXoXN.i -         ",
"        - w &.p.=.< ( qXtXtXtXtXtXtXtXtXtXtXtXtXtXtXtXtXtXtXtXtXtXqX) - j.oXoX}.}.}.oXoX}.}.oX}.}.oX}.}.oXB.w 1         ",
"        - w &.p.=.< ( qXtXtXtXtXtXtXtXtXtXtXtXtXtXtXtXtXtXtXtXtXtXqX) - k.oX}.oXoX}.}.}.}.oX}.}.}.}.oX}.oXB.i 1         ",
"        - w &.p.=.< ( qXtXtXtXtXtXtXtXtXtXtXtXtXtXtXtXtXtXtXtXtXtXqX_ - k.oX}.oXoX}.}.}.}.}.oXoXoXoX}.}.oXN.i 1         ",
"        - w &.p.=.< ( qXtXtXtXtXtXtXtXtXtXtXtXtXtXtXtXtXtXtXtXtXtXqX_ - k.oX}.}.}.}.oXoXoX}.}.}.}.}.}.oXoXN.i 1         ",
"        - w &.p.=.< ( qXtXtXtXtXtXtXtXtXtXtXtXtXtXtXtXtXtXtXtXtXtXqX) - k.oXoXoXoX}.}.}.}.}.}.oX}.oXoX}.oXB.w 1         ",
"        - w =.n.-.< ( qXtXtXtXtXtXtXtXtXtXtXtXtXtXtXtXtXtXtXtXtXtXqX) - k.oX}.}.}.oXoX}.oXoX}.}.}.}.}.}.oXB.i 1         ",
"        - w E #.E < ^ :X>X>X>X>X>X>X>X>X>X>X>X>X>X>X>X>X>X>X>X>X>X:X^ 1 9.L.!.}.oX$XoX}.}.}.oXoXoX}.}.oXoXN.i 1         ",
"        - 3 3 3 2 < 3 3 3 3 3 3 3 3 e 3 3 3 3 3 e 3 3 3 3 3 3 3 3 3 3 3 a V G ] 9.c.Z.L.!.oXoXoXoX}.}.oXoXN.i 1         ",
"          3 - - - 2 - - - - - - 3 3 - - - - - - - - - - - - - - 3 1 ; 3 - - o - o 3 k C G { w.v.Z.L.!.oX*XN.i 1         ",
"                                                                                2 - - 1 o - - 3 k C K } e.6.w 2         ",
"                                                                                            - - - - 1 o - 3 2 -         ",
"                                                                                                      1 - - 2 -         "
};
