/* XPM */
static char *monster__1_1704824607[] = {
/* columns rows colors chars-per-pixel */
"60 60 126 2 ",
"   c None",
".  c #000000",
"X  c #0A0600",
"o  c #0E0800",
"O  c #040608",
"+  c #040A0C",
"@  c #0B0B0C",
"#  c #150B00",
"$  c #1A0F00",
"%  c #1C1100",
"&  c #000F11",
"*  c #001A1E",
"=  c #131414",
"-  c #171819",
";  c #1A1A1B",
":  c #211200",
">  c #2D1A00",
",  c #321C00",
"<  c #3C1E00",
"1  c #372000",
"2  c #3B2200",
"3  c #031C20",
"4  c #002126",
"5  c #242626",
"6  c #2C2C2C",
"7  c #242E34",
"8  c #263136",
"9  c #422200",
"0  c #4A2500",
"q  c #452900",
"w  c #4D2C00",
"e  c #502F00",
"r  c #533100",
"t  c #593500",
"y  c #5F3800",
"u  c #6B3600",
"i  c #633A00",
"p  c #6A3E00",
"a  c #6D4100",
"s  c #704200",
"d  c #7D4A00",
"f  c #004F59",
"g  c #1A4F56",
"h  c #00505B",
"j  c #20535A",
"k  c #5D6F71",
"l  c #676767",
"z  c #6A6A6A",
"x  c #727272",
"c  c #814100",
"v  c #8B4600",
"b  c #834E00",
"n  c #964C00",
"m  c #8B5200",
"M  c #925500",
"N  c #9F5300",
"B  c #975900",
"V  c #9A5B00",
"C  c #AA5600",
"Z  c #A05E00",
"A  c #AC5A00",
"S  c #B05900",
"D  c #A36000",
"F  c #AB6500",
"G  c #AF6800",
"H  c #BE6100",
"J  c #B66C00",
"K  c #BB6E00",
"L  c #BE7000",
"P  c #C56400",
"I  c #D46B00",
"U  c #DA6E00",
"Y  c #C47400",
"T  c #C97400",
"R  c #CB7800",
"E  c #D77500",
"W  c #DC7000",
"Q  c #D47D00",
"!  c #D97F00",
"~  c #E67600",
"^  c #E97600",
"/  c #EC7C00",
"(  c #F77E00",
")  c #F87F00",
"_  c #DC8200",
"`  c #E18500",
"'  c #E68800",
"]  c #ED8C00",
"[  c #F78000",
"{  c #F98400",
"}  c #F18E00",
"|  c #FB8C00",
" . c #F69200",
".. c #FF9701",
"X. c #FF9801",
"o. c #1EB1C4",
"O. c #20AFC1",
"+. c #21B0C2",
"@. c #2AB7C9",
"#. c #35B6C6",
"$. c #4FCBDB",
"%. c #50CCDC",
"&. c #969696",
"*. c #959A9B",
"=. c #9D9E9E",
"-. c #B3B3B3",
";. c #B8B7B7",
":. c #BCBBBB",
">. c #9DDFE7",
",. c #BAE7ED",
"<. c #BCE8ED",
"1. c #CECECD",
"2. c #D0CFCF",
"3. c #C1D7DA",
"4. c #D4D2D2",
"5. c #D8D6D6",
"6. c #D9D8D7",
"7. c #D9D8D8",
"8. c #DDF2F5",
"9. c #E3E2E2",
"0. c #E2F2F4",
"q. c #E6F6F8",
"w. c #F3F5F5",
"e. c #F8F7F6",
"r. c #F8F8F7",
"t. c #F9F8F8",
/* pixels */
"                                                  . . . . . . . . . .                                                   ",
"                                            . . . . . X # % % # o . . . . .                                             ",
"                                        . . . # q d F Y Q _ ` _ R F b w % . . .                                         ",
"                                    . . . , m Q  .X...X.X.X.X.X.X.X.X. .! M 9 X . .                                     ",
"                                  . . > B ' X.X.X...X.........X.....X.......] A 9 . . .                                 ",
"                              . . X a _ X.X.X...........X.........X............./ v $ . .                               ",
"                            . . % Z  .X.X...........X.....X...X...................| H < . .                             ",
"                          . . : L X.X.X.X...X.....X...............X...X.........X...| I 0 . .                           ",
"                        . . : Y ........X.....X.......X.....X.........X.X.X...........| U 0 . .                         ",
"                        . # K X.......X...] ` ` ] ..X.X...............] ` _ ] ..X.......| I < . .                       ",
"                      . X M X.....X. .L i , $ % , i K  .X.....X. .Y p , % $ , i J  .......{ S : .                       ",
"                    . . t  .....X.' p o . @ - ; @ . o i ` X.X.' p # . @ ; ; @ . X i ` ....| ( v . .                     ",
"                    . % Q X...X.' w . = z -.4.4.;.x ; . w ' ' r . = z -.4.4.;.x ; . q ` X...{ ~ 9 .                     ",
"                  . . d ....X. .p . 6 -.w.e.w.8.w.e.:.6 . i a . 5 -.e.e.w.8.w.w.:.6 . i  .....( C o .                   ",
"                  . : _ X...X.L o = -.w.w.w.3.#.%.<.t.:.; . . = -.e.w.w.3.#.%.<.t.:.; X J X...{ ^ 9 .                   ",
"                . . a ........a . l w.w.9.x 5 3 h o.<.e.x . . z w.w.9.x 5 3 h o.,.e.x . i  ...| ( n . .                 ",
"                O X L X...X. .2 O -.w.>.k . . O . f $.w.:.@ O -.w.>.k . O . . h %.w.:.@ > ] ....( I : .                 ",
"                . , ' ..X.X.` : = 2.0.@.4 . 8 8 . * O.8.5.; = 1.0.@.4 . 7 8 . * O.8.5.; $ _ ....[ ( 0 .                 ",
"                . i ......X.` : = 2.0.@.4 . 7 8 O * +.8.6.; = 1.q.@.4 . 7 8 . * +.8.7.; $ _ X...| ( c . .               ",
"              . . M X.....X.} 2 O &.=.j & . . O . + g *.=.@ O &.=.j & . O . . & g *.=.@ > ] X...| ( A . .               ",
"              . . J X.........s . @ O . X # % % # X . . @ . . @ O . X # % % # X . O @ . i X.......) P o .               ",
"              . # R X.......X.Y # o w m L Q ` _ _ L M w # X X o q m K Q _ _ _ L m w o o J X..... .) I $ .               ",
"              . # Q X.....X.X. .Y Y  .X.X.X.X.X.X.X.X. .Y J K Y  .X.X.X.X.X.X.X.X. .Y L  .X...X...( I : .               ",
"              . % _ X.....X.....X.X.X.........X.X.X...X.X.X.X.X.....X.....X...X...X.X.X.X.X.......( U : .               ",
"              . % _ X........... .] X.X...........X.....X...X...X................... .] ....X...| ( U : .               ",
"              . % _ X......... .t e ] X...X...........X...............X...X...X...} t r ] ........[ U : .               ",
"              . # _ X.} ] X.X.] : # T X.X.X.X.X.X.X.X.X.X.X.X.X.X.X.X.X.X...X.X.X.Q # : ` X.......) U : .               ",
"              . % _  .t e ] X. .y . r R ` ` ` _ _ _ ` ` ` _ ` ` _ ` ` _ ` ` _ ` R t . r  .X..... .) U : .               ",
"              . % _ ' : # _ X.X.R : . # % % % % % % % % % % % % % % % % % % % % # . % Y ..........( U : .               ",
"              . $ _ ' % $ _ X...X.R y : % % % % % % % $ % % % % % % % % % % % $ : t Y X......... .( U : .               ",
"              . % _ ' : $ _ X...X.X. .' _ ` ` ` _ ` ` ` _ ` _ ` _ ` ` ` _ ` ` ` '  .X.X.......} } ( U : .               ",
"              . % _ ' : # _ X.X.X.X.X.X.X.X...X.X.X.X.X.X.X.X.X.X.X...X.X.X.X.X.X.X...X.....} t w ~ U : .               ",
"              . $ _ ' : % _ X.X.X.....X.......X.....X...X.....X...X.......X...X.........X.X.` : # I U : .               ",
"              . % _ ' : # _ X.X.........X...........................X...........X.....X...X.' : # I U : .               ",
"              . $ _ ' : # _ X...X...X.....X...X.....X...X...X.............X.........X...X.X.' : $ I U : .               ",
"              . $ _ ' : # _ X.....................X.............X...X.......X...........X.X.' : # I U : .               ",
"              . % _ ' : % _ X.X.X...............X.........X.X...........X...X.....X...X.X.X.` : $ I U : .               ",
"              . % _ ' : # _ X.X.......X.X...X.......X...........X.X...X...............X.X.X.' : # I U : .               ",
"              . % _ ' : # _ X.X...............X.X...............X.X.X...X.........X.X.X.X.X.' % # I U : .               ",
"              . % _ ' : # _ X...X...X.X.............X...X...X...X.X.........X.X.} ` } X.X.X.' : $ I U : .               ",
"              . $ _ ' : $ _ X.X.X.} ` } X.X.....X.....X..................... .Z 2 : 2 V  ...} t w ~ U : .               ",
"              . % _ ' % $ _ X. .D 2 % 2 V  ...............X...X......... .{ C o O O . X V X... .] ) U : .               ",
"              . $ _  .t e ] { N o . . . X B X.X.........X...X.X.........{ ^ < . .     . 1 ] ......) U : .               ",
"              . $ _ X.} ] { ^ 2 . .     . 1 ] X...X.X...X.} ` } X.......) U : .       . % _ X... .( U : .               ",
"              . $ _ ......( U : .       . % _ X.......| Z 2 : 2 D  .....[ U % .       . % _ X.....( U : .               ",
"              . $ _ ......( U : .       . $ _ X.....{ N o . . . o F .. .[ U : .       . $ _ X.] ] ( U : .               ",
"              . $ _ ......( U : .       . $ _ ....{ ~ 2 . .   . . 9 } ..( U : .       . % _  .t w ~ U : .               ",
"              . $ _ ......( U : .       . $ ! ....) U : .       . $ _ ..( U : .       . % _ ' : $ I U : .               ",
"              . $ _ X.] ] [ U : .       . X F X...) S X .       . % _ ..( U : .       . $ _ ' : $ I U : .               ",
"              . % _  .t w ~ U : .         . > G E A > . .       . $ ! ..( U : .       . % _ ' : # I W : .               ",
"              . % _ ' : # I W : .         . . X $ X . .         . $ _ ..( U : .       . # Q ' : # I I $ .               ",
"              . % _ ' : # I W : .             . . . .           . $ _ ..( U : .       . . b ` : # I v . .               ",
"              . # Q ' : # I I $ .                               . $ ! ..[ U : .         . # s $ # u # .                 ",
"              . . b ` : $ I v . .                               . $ _ ..[ U : .           . . . . . . .                 ",
"                . # s $ o u # .                                 . $ _ ..( U : .             . . . .                     ",
"                . . . . . . . .                                 . $ _ ..( U : .                                         ",
"                    . . . .                                     . # Y ..{ P # .                                         ",
"                                                                . . e T P 0 . .                                         ",
"                                                                  . . # # . .                                           ",
"                                                                    . . . .                                             "
};
