/* XPM */
static char *monster__1_1704900702[] = {
/* columns rows colors chars-per-pixel */
"60 60 59 1 ",
"  c None",
". c #3E8BFF",
"X c #418CFF",
"o c #4790FE",
"O c #4D93FE",
"+ c #5296FD",
"@ c #5598FE",
"# c #5B9BFD",
"$ c #619EFC",
"% c #64A0FD",
"& c #6CA4FB",
"* c #74A9FB",
"= c #7AADFA",
"- c #7FB1FB",
"; c #85B3FA",
": c #8AB6FA",
"> c #8EB9F9",
", c #9ABCF7",
"< c #90B7F8",
"1 c #95BBF9",
"2 c #9ABFF8",
"3 c #9FC2F7",
"4 c #9CC2FB",
"5 c #A4C3F7",
"6 c #ABC6F6",
"7 c #ADCAF6",
"8 c #A2C5FC",
"9 c #A4C8FF",
"0 c #ABCCFF",
"q c #B3CDF6",
"w c #B9CFF5",
"e c #B2CEF8",
"r c #B7D0F6",
"t c #BED4F5",
"y c #B5D0F9",
"u c #BCD7FF",
"i c #C2D6F5",
"p c #C5D8F5",
"a c #CCDCF4",
"s c #C6DCFD",
"d c #C8DDFC",
"f c #D1DFF4",
"g c #CDE1FF",
"h c #D4E1F4",
"j c #DAE4F5",
"k c #DFE8F6",
"l c #D4E5FF",
"z c #DEEBFF",
"x c #E4EAF5",
"c c #EBEEF4",
"v c #E4EEFE",
"b c #E9EFF9",
"n c #E6F0FF",
"m c #ECF3FD",
"M c #F5F5F4",
"N c #F8F6F4",
"B c #F2F6FD",
"V c #F6F8FD",
"C c #FCFDFE",
/* pixels */
"                         ooXXXX...o                         ",
"                      VC:.ooO++OO....o                      ",
"                    4ouCd>8rtiptr5>&+.o.                    ",
"                  lCg-dkhhhhhhhhhhhfr>#o.o                  ",
"                 X&VCkhhhhhhhhhhhhhhhht>#XXX                ",
"               o.O8mjhhhghhhhhhhhhhhhhhfq=OXX               ",
"              o.#umhhhhhhhhhhhhhhhhhhhhhht<+XX              ",
"             o.$lmhhhhhhhhhhhhhhhhhhhhhhhht2$XX             ",
"            o.$lBhhhhhhhhhhhhhhhhhhhhhhhhhht,$..            ",
"            .+gVhhhhhappahhhhhhhhhhaiiphhhhhw,+.X           ",
"           XoyCjhhh7;$@@%-7fhhhhh7=$++$=6fhhf6<OX           ",
"          XX:Vbhha;o.o++o.o-ihhp-o.o++O.o=ihha6=XX          ",
"          .#zVhhp*.+>pkjp1+.&pa*.+>ajja<+.&ihhw,#X          ",
"         o.9Cbhh;.#pMMNNNMa%.=-.$pMMNMMMa$.=fhp6:XX         ",
"         X#nVhhqOOpNMMxhxMMa@XX+iMNcxhxMMa+o6hfw,#X         ",
"        oX1Cmhh;.>MNc2##;hMM2..>MMc3$#;hMM,.=fhi6=XX        ",
"        oOgCjhf%opNc,.XX.;xNaOXpNc,XXXX;xNao#phf61OX        ",
"        .%mMhhp@OhNh$X&&X#fMj#+jNh$X&&X#hMx++thhq5$X        ",
"        .:CBhhp@+hNj#X%&X#hNx@OjNh$X&&X#hNx++thhi5*XX       ",
"       o.0Cxhhf%oyr;+XXoXO;qrOXqw;O.XXXO;qqO#ahhp5;XX       ",
"       oogCkffh-.Oo.oO+++o.XoXXOXXXO++Oo.XO.=fhha5<oX       ",
"       oOlCjahhqOo&>7tptt71&oooo&<qtiitq<&OO7hhha6,OX       ",
"       .+zChhhhherhhhhhhhhhfq77qfhhhhhhhhfw7fhhha6,oX       ",
"       o@nCjhhhhhhhhhhhhhhhhhjhhhhhhhhhhhhhhhfhha6,+X       ",
"       X@nVjhhhhaahhhhhhhhhhhhhhhhhhhhhhhfaahhhha6,OX       ",
"       .+nCjhhhh*&ahhhhhhhhhhhhhhhhhhhhhha**phhhf6,+X       ",
"       X@nVhphhp#owhhhhhhhhhhhhhhhhhhhhhhtO+phhha6,OX       ",
"       .@nV=*phh=.*wiiiiiiiiiiiiiipipiiiw*.*fhhha6,+X       ",
"       X@nm#+thhw+.O++++++++@+++++++++++O.+qhfhha6,OX       ",
"       .@nm#Othhhw=+++++++++++++++++++++@*qhhhhhf6,+X       ",
"       X@nc$+thhhhhpiiiaiiiiiiiipiipiiiipfhhfhhpp6,OX       ",
"       .@bm++thhhhhhhhhhhhhhhhhhhhhhhhhhhhhhhhf*&5,+X       ",
"       .@nm@+thhhhhhhhhhhhhhhhhhhhlhhhhhhhhhhhp+o,,OX       ",
"       X@nm#+thhhhhhhhhhhhhhhhhhhhhhhhhhhhhhhhp@o,,+X       ",
"       X@nm#+thhhhhhhhhhhhlhhhhhhghhhhhhghhhhhp+o,,+X       ",
"       .@nm#+thhhhhhhhhhhhhhhhhhhhhhhhhhhhhhhhp@O1,OX       ",
"       X+nm#Othhhhhhhhhhhghhhhhhhhhhhhhhhhhhhhp+O,,OX       ",
"       X@nm#Othhhhhhhhhhhhhhhhhhhhhhhhhhhhhhhhp@o1,+X       ",
"       .@nm#+thhhhhhhhhhhhhhhhhhhhhhhhhhhhhhhhp+O,,+X       ",
"       X@nm#Ophhhhhhhhhhhhhhhhhhhhhhhhhhhthhhhp+o1,OX       ",
"       X@nm@+thhhaiahhhhhhhhhhhhfhhfhfa5$+%4hha*&5,OX       ",
"       .@nm@+thh3%@$4fhhhhhhhhhhhhhhaq;X...o2hhap6,OX       ",
"       X@nV=&t7;o.X.X2hhhhhhhhhhhhhhq,#Xo  .#ahha6,+X       ",
"       X@nChaq3#XX  X$phhhhhhapahhhf6,OX   X+thha6,OX       ",
"       .@vCja62+X   .+ihhhfa3%@$5fha6,OX   X+thha6,+X       ",
"       X@bCja62OX   X+ihhaq;oXX.o5ha6,OX   .+thap6,OX       ",
"       .@vCja6,OX   .+iffq,#XX X.%af62O.   X+ta=&5,OX       ",
"       X@vChf6,+X   XOiff6,+X   X+if62+X   .+ip+o,,+X       ",
"       X@nChp6,+X   XX6hp6:XX   .+tf6,+.   X+tp+O,,+X       ",
"       .+nV=&32OX    X#66:+XX   .+if6,+.   X+ip@o1,OX       ",
"       X@nm@o1,OX    o.oOXXX    X+ta6,O.   Xotp@O,1OX       ",
"       .@nm#o,,+X      .XXX     .+tf6,+.   XX>p@O1=XX       ",
"       X+zm#o,1OX               X+tf6,+.    Xo;+o&oX        ",
"       XX9m#o1=XX               .+ta6,+.     X.XXXXX        ",
"        X+1#o&oX                X+th6,O.      XXXX          ",
"        XXXXXXXX                .+ta6,+.                    ",
"          XXXX                  Xora6<oX                    ",
"                                XX*6<$XX                    ",
"                                 XXooXX                     ",
"                                  XXXX                      "
};
