/* XPM */
static char *tiles__1_1705164294[] = {
/* columns rows colors chars-per-pixel */
"60 60 147 2 ",
"   c None",
".  c #533F67",
"X  c #5B3F66",
"o  c #36545F",
"O  c #39565E",
"+  c #3C5C5B",
"@  c #3D5D57",
"#  c #3F6059",
"$  c #3F6157",
"%  c #274166",
"&  c #2A4267",
"*  c #2E4961",
"=  c #274269",
"-  c #284268",
";  c #2E4B6C",
":  c #344366",
">  c #3E4167",
",  c #314F65",
"<  c #314168",
"1  c #3D4269",
"2  c #304E69",
"3  c #355261",
"4  c #3A5460",
"5  c #315169",
"6  c #2B4673",
"7  c #2C4A74",
"8  c #2D4B7A",
"9  c #304A7D",
"0  c #2D507D",
"q  c #445D5D",
"w  c #4A6D4F",
"e  c #4E744D",
"r  c #51764C",
"t  c #547C4B",
"y  c #426456",
"u  c #466A53",
"i  c #496D52",
"p  c #4C655A",
"a  c #4E6859",
"s  c #546E57",
"d  c #516B58",
"f  c #4B7051",
"g  c #5C7554",
"h  c #5F7853",
"j  c #577056",
"k  c #637C52",
"l  c #474067",
"z  c #4C4067",
"x  c #43456B",
"c  c #4C4269",
"v  c #424868",
"b  c #54476D",
"n  c #5E476D",
"m  c #66486E",
"M  c #8D3D67",
"N  c #943D67",
"B  c #C43A67",
"V  c #CD3A66",
"C  c #D23A67",
"Z  c #D83967",
"A  c #8D4D73",
"S  c #924E74",
"D  c #9B4F75",
"F  c #A55076",
"G  c #AB5177",
"H  c #B15178",
"J  c #D7557C",
"K  c #DE567D",
"L  c #E3567D",
"P  c #F2587F",
"I  c #67963E",
"U  c #69973E",
"Y  c #6D9C3C",
"T  c #709F3A",
"R  c #75A637",
"E  c #72A239",
"W  c #76A836",
"Q  c #5B8546",
"!  c #5E8944",
"~  c #598248",
"^  c #578048",
"/  c #618C43",
"(  c #748D4B",
")  c #659240",
"_  c #77904A",
"`  c #7B9549",
"'  c #688250",
"]  c #94AE3F",
"[  c #9BB53C",
"{  c #9EB83C",
"}  c #A2BC3A",
"|  c #BFD92F",
" . c #AAC437",
".. c #A7C138",
"X. c #ACC637",
"o. c #B3CD33",
"O. c #BBD531",
"+. c #C4DE2D",
"@. c #C6E02D",
"#. c #C8E22C",
"$. c #859F45",
"%. c #87A144",
"&. c #88A244",
"*. c #92AC40",
"=. c #314C83",
"-. c #344F8B",
";. c #2C5383",
":. c #2D5689",
">. c #2E5A8E",
",. c #36528D",
"<. c #2E5C93",
"1. c #375294",
"2. c #395495",
"3. c #39579B",
"4. c #3C589D",
"5. c #30629C",
"6. c #3E5BA4",
"7. c #3066A1",
"8. c #3268A5",
"9. c #336DAD",
"0. c #346FB1",
"q. c #3572B5",
"w. c #3574B9",
"e. c #3779BE",
"r. c #405CA7",
"t. c #425EAC",
"y. c #4360AF",
"u. c #4562B4",
"i. c #4765B9",
"p. c #4966BD",
"a. c #367DC5",
"s. c #387DC4",
"d. c #387EC8",
"f. c #4C6AC5",
"g. c #4E6CCA",
"h. c #FE5A81",
"j. c #3981CD",
"k. c #3A85D1",
"l. c #3B88D7",
"z. c #3C8BDB",
"x. c #3D8EE0",
"c. c #3E91E5",
"v. c #3F96EC",
"b. c #4098EF",
"n. c #419CF5",
"m. c #429FF9",
"M. c #43A2FF",
/* pixels */
"        % % % - % - - - - - - - - - - - - - - - - - & & & % % % % % - % - - % % % % & & - - - % - - - - - & % %         ",
"    % ;.9.s.s.s.s.s.s.s.s.s.e.j.j.e.e.j.s.a.s.s.s.j.5.> A N N N l -.6.r.r.6.6.r.r.r.r.6.r.6.6.6.r.r.r.r.6.r.6.1.8 -     ",
"  - - 9.M.M.M.M.M.M.M.M.M.M.M.M.M.M.M.M.M.M.M.M.M.M.j.l C Z Z Z X 3.g.g.g.g.g.g.g.g.g.g.g.g.g.g.f.g.g.g.g.g.g.f.,.- &   ",
"  8 4.7 q.M.M.M.M.M.M.M.M.M.M.M.M.M.M.M.M.M.M.M.M.M.a.l V Z Z C X 6.g.g.g.g.g.g.g.g.g.g.g.g.g.g.g.g.g.g.g.f.f.,.0 s.;.  ",
"% 2.g.r.7 q.m.M.M.M.M.M.M.M.M.M.M.M.M.M.M.M.M.M.M.M.s.l V Z Z C X 3.f.g.g.g.g.g.f.g.f.g.g.g.g.g.g.g.g.g.g.p.=.;.z.M.0.- ",
"% r.g.g.r.7 9.m.M.M.l.9.9.9.9.9.8.j.m.M.M.M.M.M.M.M.a.l V Z Z C X 3.g.f.g.g.g.f.g.f.6.1.2.2.1.1.2.y.g.g.i.=.:.b.M.M.e.- ",
"% r.g.g.g.t.7 9.M.j.; y u u u u u * q.m.M.M.M.M.M.M.s.. V Z Z C X 3.g.g.g.g.g.g.f.2., u u u u u @ 7 t.y.9 <.b.M.M.M.j.- ",
"% r.g.g.g.g.t.7 <.7 t W U U Y Y R I * q.v.M.M.M.M.M.e.z V Z Z C n 3.g.g.g.g.g.f.2.5 ) R Y Y Y Y R t ; 7 8.n.M.m.M.M.e.- ",
"% r.g.g.g.g.g.2.& t R y 4 4 4 4 O U ) 2 q.v.M.M.M.M.a.z V Z Z C X 3.g.g.g.g.f.2., ) U O 3 4 4 3 u E r = j.M.M.M.M.M.a.% ",
"& r.g.g.g.g.t.7 t R y p *. .X. .' o I ) 5 q.M.M.M.M.a.z V Z Z C X 3.g.g.g.f.2., I I o '  . . .[ p y E t 7 k.M.M.M.M.s.- ",
"% r.g.g.f.f.9 w E q p  .#.#.#.#.O.' o Y ! 7 c.M.M.M.j.l V C C C X 3.g.g.g.i.; / I o ' | #.@.#.#. .p p E f <.v.M.M.M.s.- ",
"% r.g.g.f.f.8 I ~ q  .#.+.#.+.@.@.O.j u E 5 z.M.M.M.s.: . X X n : 3.g.g.g.u., T u g O.@.@.@.+.@.#. .4 ! ! :.M.M.M.M.a.- ",
"% r.g.g.g.p.9 ! ^ d +.+.@.@.#.+.@.#._ $ T 5 x.M.M.M.s.1 A D S S x 3.g.g.g.y.5 T # ` #.@.@.@.@.+.@.| a ~ ! :.M.M.M.M.e.- ",
"% 6.g.g.g.f.8 ! t d +.@.@.@.+.#.@.#._ $ Y 5 z.M.M.M.a.b P P h.P m 3.g.g.g.u.3 T # ` #.@.@.@.@.+.@.| a ~ ! :.v.M.M.M.j.- ",
"% r.g.g.g.p.9 ! ^ s +.@.+.@.+.+.@.#._ $ T 5 z.M.M.M.a.b P h.h.P m 3.g.g.g.u.2 T # ` #.@.@.@.@.@.@.| a ~ ! :.v.M.M.M.j.& ",
"& r.g.g.g.f.9 I Q 4 } #.@.@.+.@.@.O.s u E 5 z.M.M.M.a.b P h.h.h.m 3.g.g.g.y.2 E u j O.@.@.@.@.#.#.{ 4 / ! ;.M.M.M.M.e.& ",
"% r.g.g.g.g.9 w E u p } @.@.#.@.O.g O Y Q 7 b.M.M.M.a.b P h.h.h.m 3.g.g.g.u.; ! Y 4 h O.#.#.#.#...q i R i <.v.M.M.M.s.- ",
"& r.g.g.g.g.y.7 e E y p ] } } { g O Y / 5 w.M.M.M.M.a.b P P h.P m 3.g.g.g.g.3., / Y o h { { { ] + u E e 0 z.M.M.M.M.s.- ",
"% r.g.g.g.g.g.y.7 e E i 3 o 4 3 $ Y ! * <.n.M.M.M.M.e.b P h.h.h.m 3.g.g.f.g.g.1.* / Y + 3 4 o 3 f E e 8 l.M.M.M.M.M.s.- ",
"& 6.g.g.g.g.g.g.y.7 e R E T T Y R ! ; ,.7 e.M.M.M.M.s.b P h.h.P m 3.g.g.g.g.p.;.8 5 ! W T T T T W f 0 l.M.M.M.M.M.M.a.% ",
"% r.f.g.g.g.g.g.g.y.7 @ y y y y $ ; 4.f.r.6 s.M.M.M.d.b P h.h.h.m 3.g.g.f.p.;.>.c.w.; $ u $ $ $ @ 0 z.M.M.M.M.M.M.M.j.% ",
"& r.g.g.g.g.g.g.g.g.u.4.3.3.3.3.2.8.g.g.g.4.8 j.M.M.a.c J L L K n 3.g.g.p.9 >.v.M.M.j.q.q.q.q.q.w.x.M.M.M.M.M.M.M.M.e.& ",
"& r.g.g.g.g.g.g.g.g.g.g.g.g.g.g.g.g.g.g.g.g.2.9 z.v.<.* v v v v : =.p.i.9 <.v.M.M.M.M.M.M.M.M.M.M.M.M.M.M.M.M.M.M.M.j.& ",
"& r.g.g.g.g.g.g.g.g.g.f.g.g.g.g.g.g.g.g.g.g.f.,.;.:.# ) I I I I ) @ =.9 <.n.M.M.M.M.M.M.M.M.M.M.M.M.M.M.M.M.M.M.M.M.a.% ",
"& 6.g.g.g.g.g.g.g.g.g.g.g.g.g.g.g.g.g.g.g.g.g.i.= @ E / f f f f ! E # 7 z.M.M.M.M.M.M.M.M.M.M.M.M.M.M.M.M.M.M.M.M.M.a.% ",
"& 6.g.g.g.g.g.g.g.g.g.g.g.g.g.g.g.g.g.g.g.g.f.=.# E ~ 3 g k k g 3 ^ E @ <.v.M.M.M.M.M.M.M.M.M.M.M.M.M.M.M.M.M.M.M.M.j.% ",
"& ,.6.6.6.6.6.8.6.6.6.6.6.6.6.6.6.6.6.6.6.6.=.# E ~ 3 &.+.@.+.+.&.3 ~ T + <.a.j.a.a.a.a.a.a.s.s.s.a.a.a.a.s.a.a.a.a.7.- ",
"- > l z l . . . l l l = x b b b b c b b b c * ) ! 3 &.+.@.@.@.#.@.&.3 ! ) * c b b b b b b b b v & . . l z l l c . . > % ",
"% M C V V V V V V V B . F L h.L h.h.h.K P J v I f g +.#.@.+.@.+.@.+.g f U 1 K P P P P P P P P G l B V V V V V V V C M & ",
"% N Z Z C Z Z Z Z Z V . G h.h.h.h.h.h.h.h.K v I f k #.+.@.@.+.#.@.@.k w I v L h.h.h.h.h.h.h.h.G c V Z Z Z Z Z Z Z Z N & ",
"- N Z Z Z Z C Z C Z B . G h.h.h.h.h.h.h.h.K v ) f k @.#.@.@.@.@.#.@.' f I v L h.h.h.h.h.h.h.h.H . B Z Z C Z Z Z Z Z N - ",
"% N C V V V V V V B B . F h.h.K h.K h.h.h.K v ) f g +.@.+.@.@.+.@.+.g f I v J P P P P P P P h.F l B C V V V V V V C M % ",
"% 1 z c z c c . l c l & x b b b b b b b b c & I ! 4 %.@.#.+.#.#.+.&.3 / ) ; c b b b b b b b b 1 & . c c . . 1 x . x 1 = ",
"- 7.d.d.d.a.a.d.a.a.a.a.d.d.s.j.a.a.a.a.a.j.<.# T ~ 3 %.+.+.+.+.&.o ~ T @ =.6.6.6.6.6.6.6.6.6.6.r.6.6.6.6.6.6.6.6.6.-.= ",
"& s.M.M.M.M.M.M.M.M.M.M.M.M.M.M.M.M.M.M.M.M.v.<.# T ^ 3 g k k g 3 ~ R + 9 p.g.g.g.g.g.g.g.g.g.g.g.g.g.g.g.g.g.g.g.g.6.= ",
"- a.M.M.M.M.M.M.M.M.M.M.M.M.M.M.M.M.M.M.M.M.M.e.= # T ! f i e i / T + 7 =.p.g.f.g.g.g.g.g.g.g.g.g.g.g.g.g.g.g.g.g.g.6.= ",
"- a.M.M.M.M.M.M.M.M.M.M.M.M.M.M.M.M.M.M.M.M.z.8 2.=.@ I I I U I I + <.z.>.=.f.g.f.g.g.f.g.g.g.g.g.g.g.g.g.g.g.g.g.g.r.- ",
"& s.M.M.M.M.M.M.M.M.M.M.M.M.m.M.M.M.M.M.M.c.;.,.f.f.;.; v x v v & <.v.M.x.;.2.f.g.g.g.g.g.g.g.g.g.f.g.f.g.g.g.g.g.g.r.= ",
"- s.M.M.M.M.M.M.M.v.j.7.5.5.5.5.5.w.n.M.v.<.=.f.g.g.6.c J L L J b s.M.M.M.l.8 3.g.f.3.,.-.,.:.-.-.r.g.g.g.g.g.g.g.g.t.= ",
"- a.M.M.M.M.M.M.M.d.; i e e e e w 3 8.n.8.8 p.g.g.g.6.b P P h.P b s.M.M.M.M.a.7 6.1.3 e e r e f w 2 r.g.g.g.g.g.g.g.6.= ",
"- s.M.M.M.M.M.M.a.; ~ R ) ) ) ) T ) 4 ;.8 u.g.g.g.g.6.b L h.h.h.b a.M.M.m.M.M.0.= 4 I Y I ) ) ) E ~ ; r.f.g.f.g.f.g.r.- ",
"- s.M.M.m.M.M.s.; ~ T # 4 4 # 4 3 ) ) o ;.f.g.g.g.g.6.b h.h.h.L b a.M.M.M.M.n.8.4 U ) o O + q 4 @ E ~ ; r.f.g.g.g.g.r.% ",
"- s.M.M.M.M.s.; ~ E + s  .o.o.o.( * ) ) 3 1.f.f.g.g.6.b P h.h.h.b a.M.M.M.n.8.3 U ) , ( o.o.o...d q R t 2 r.g.g.g.g.6.% ",
"- s.M.M.M.n.:.r E # s o.#.#.+.#.+.( 4 ) I ; u.g.g.g.6.c P h.h.P b a.M.M.M.x.2 ) ) 3 ( | @.@.@.#.o.d @ R f =.f.g.g.g.r.- ",
"- s.M.M.M.n.;./ ~ q o.@.+.@.@.+.@.+.g y T , i.g.g.g.6.b P h.h.P b a.M.M.M.z.3 E y k +.@.+.@.@.+.+.o.O Q ! 9 f.g.g.g.r.% ",
"- s.M.M.M.n.;./ ^ a +.+.@.@.@.@.@.#._ y Y ; u.g.g.g.6.b P h.h.P b a.M.M.M.z.5 T y ` @.@.@.@.+.#.+.+.a ~ ! 9 f.g.g.g.r.- ",
"- s.M.M.M.n.:.! ^ a +.+.@.@.@.@.@.@._ y T , u.g.g.g.6.1 S F F D v s.M.M.M.z.5 E y _ #.@.@.@.@.@.#.| a ~ ! 8 f.g.g.g.r.% ",
"- s.M.M.M.n.:./ ^ a +.@.+.@.@.@.@.#.( y Y , u.g.g.g.6.; . . . . & j.M.M.M.x.5 ) y ` #.+.@.@.@.+.+.| a ~ ! 9 f.f.g.g.r.& ",
"- s.M.M.M.n.;.I / 4 [ #.#.+.@.+.@.o.p i E , u.g.g.g.8.. B C C B . a.M.M.M.z.5 E u a o.#.@.@.@.@.#.*.4 / ! 8 f.g.g.g.r.% ",
"- s.M.M.M.M.<.y R f 4 [ #.#.#.#.o.s @ E t 7 p.g.g.g.r.. V Z Z C l a.M.M.M.c.7 ~ T + s o.#.#.#.#.*.q f R $ ,.f.g.g.g.r.% ",
"- s.M.M.M.M.z.;.i R f 4 $.*.*.*.d @ E ~ ; 6.f.g.g.g.6.z V Z Z V z a.M.M.M.M.s.; Q E # s *.*.*.R q f W u 8 i.g.g.g.g.6.- ",
"- s.M.M.m.M.M.0.% i R r O O O o y E ~ ; 6.g.g.g.g.g.6.z V C Z V z a.M.M.M.M.M.e.; Q Y $ 3 4 + 3 r R a = 2.g.g.g.g.g.6.- ",
"- s.M.M.M.M.s.8 1.7 u E E E E E W t ; r.f.g.f.g.g.g.6.z V Z Z V c a.M.M.M.M.M.M.e.; ~ W T T E E E u ;.9.7 3.g.g.f.g.r.- ",
"- s.M.M.M.s.7 4.g.u.8 o + + + O O ; 6.g.g.g.g.g.g.g.6.l V Z Z V z a.M.M.M.M.M.M.M.a.; o + + @ @ o ;.x.M.s.7 3.g.g.g.r.- ",
"% s.M.m.s.7 4.f.g.g.p.6.6.6.r.6.r.y.g.g.g.g.g.g.g.g.6.z V Z C V z a.M.M.M.m.M.M.M.m.l.a.a.a.j.a.d.v.M.M.M.e.7 6.g.g.6.% ",
"% 9.m.s.7 6.f.g.g.g.g.g.g.g.g.g.g.g.g.f.g.g.g.g.g.g.6.z V Z Z V z a.M.M.M.M.M.M.M.M.M.M.M.M.M.M.M.M.M.M.M.M.s.7 4.g.2.% ",
"  ;.q.7 4.g.g.f.g.g.g.g.g.g.g.g.g.g.g.g.g.g.g.g.g.g.r.z V Z C C z s.M.M.M.M.M.M.M.M.M.M.M.M.M.M.M.M.M.M.M.M.M.s.7 2.8   ",
"  - - 2.g.g.g.g.g.g.g.g.g.f.g.g.g.g.g.g.g.g.g.g.g.g.r.z C Z Z C z j.M.M.M.M.M.M.M.M.M.M.M.M.M.M.M.M.M.M.M.M.M.M.q.% -   ",
"    - 8 2.6.r.6.6.r.r.r.r.r.r.r.r.r.r.r.r.r.r.r.r.r.,.> N N N M > 7.j.e.j.e.e.j.e.j.j.e.j.e.e.j.s.s.s.s.s.s.s.9.;.-     ",
"        % % % - % - - - % % % - % - % % % % % % % & % % % % % % - - - - - - - - & - - & % % % & & - - % - - % %         "
};
