/* XPM */
static char *wall__1_1704902654[] = {
/* columns rows colors chars-per-pixel */
"60 60 91 1 ",
"  c None",
". c #321D32",
"X c #321E32",
"o c #331E33",
"O c #341E34",
"+ c #341F34",
"@ c #351F35",
"# c #352035",
"$ c #372137",
"% c #372237",
"& c #382238",
"* c #382338",
"= c #392339",
"- c #3A243A",
"; c #3B253B",
": c #3C263C",
"> c #3D273D",
", c #3E273E",
"< c #3E283E",
"1 c #3F283F",
"2 c #3F293F",
"3 c #402940",
"4 c #412A41",
"5 c #412B41",
"6 c #422B42",
"7 c #432C43",
"8 c #442D44",
"9 c #452E45",
"0 c #462E46",
"q c #462F46",
"w c #472F47",
"e c #473047",
"r c #483048",
"t c #483148",
"y c #493149",
"u c #493249",
"i c #4A324A",
"p c #4A334A",
"a c #4B334B",
"s c #4B344B",
"d c #4C344C",
"f c #4C354C",
"g c #4D344D",
"h c #4D354D",
"j c #4D364D",
"k c #4E364E",
"l c #4E374E",
"z c #4F374F",
"x c #4F384F",
"c c #503850",
"v c #503950",
"b c #513951",
"n c #513A51",
"m c #523A52",
"M c #523B52",
"N c #533C53",
"B c #543D54",
"V c #553D55",
"C c #553E55",
"Z c #553F55",
"A c #563F56",
"S c #564056",
"D c #574057",
"F c #574157",
"G c #584158",
"H c #584258",
"J c #594259",
"K c #5A435A",
"L c #5A445A",
"P c #5B445B",
"I c #5B455B",
"U c #5C455C",
"Y c #5C465C",
"T c #5D465D",
"R c #5D475D",
"E c #5E485E",
"W c #5F495F",
"Q c #604A60",
"! c #604B60",
"~ c #614B61",
"^ c #624C62",
"/ c #624D62",
"( c #634D63",
") c #634E63",
"_ c #644E64",
"` c #644F64",
"' c #654F65",
"] c #655065",
"[ c #655165",
"{ c #665066",
"} c #665166",
/* pixels */
"}}}}}}}}}}}}}}}}}}}}}}}}}}}}})hhhhhhhhhhhhhhhhhhhhhhhhhha#oo",
"}}}}}}}}}}}}}}}}}}}}}}}}}}}}})chhhhhhhhhhhhhhhhhhhhhhhhs,ooo",
"}}}}}}}}}}}}}}}}}}}}}}}}}}}}')cdhhhhhhhhhhhhhhhhhhhhhhh7o.o@",
"}}}}}}}}}}}}}}}}}}}}}}}}}}}}})cdhhhhhhhhhhhhhhhhhhhhhh8#ooo4",
"}}}}}}}}}}}}}}}}}}}}}}}}}}}}}^cdhhhhhhhhhhhhhhhhhhhdhs*o.o,a",
"}}}}}}}}}}}}}}}}}}}}}}}}}}}}}'cdhhhhhhhhhhhhhhhhhhhhh*oo.*ah",
"}}}}}}}}}}}}}}}}}}}}}}}}}}}}})cdhhhhhhhhhhhhhhhhhhhh,oo.*ahd",
"}}}}}}}}}}}}}}}}}}}}}}}}}}}}}'hdhhhhhhhhhhhhhhha842*o.oo8hhh",
"}}}}}}}}}}}}}}}}}}}}}}}}}}}}}^cd88a8e888ahhhhhh4@o..o.o4hhhh",
"}}}}}}}}}}}}}}}}}}}}}}'}}}}}})c8ooo@##oo,hhhhhh4oo..oo,ahhhh",
"}}}}}}'TTLLLLTTLLLLTT)}}}}}}'(c8ooooooo.,shhhhh8oo@#*4ahahhh",
"}}}}}})vaahhahsahhshhW}}}}}}}'v8ooooooo.,hhhhhha48addhhhhhhh",
"}}}}}})vhaahahahshahh^'}}}}}}^ca77777777ehhhhhdhhhhhhhhhhhhh",
"}}}}}})vhhhhhhhhhhhahW}}}}}}}'hdhhhhhhhhhshhhhhhhhhhhhhhhhhh",
"}}}}}})vahhhhhhhhhhhh^}}}}}}}^vdhhhhhhhhhhhhhhhhhhhhhhhhhhhh",
"}}}}}})vhhhhhhhhhhhah^}}}}}}}'cdhhhhhhhhhhhhhhhhhhhhhhhhhhhh",
"}}}}}})xhhhsahshhhhahW}}}}}}})vdhhhhhhhhhhhhhhhhhhhhhhhhhhhh",
"}}}}}}}DCCCCCDCCCCDCC)}}}}}}})cdhhhhhhhhhhhhhhhhhhhhhhhhhhhh",
"}}}}}}}'}''}}}}''}}'})}}}}}}')cdhhhhhhhhhhhhhhhhhhhhhhhhhhhh",
"}}}}}}}}}}}}}}}}}}}}}}}}}}}}})cdhhhhhhhhhhhhhhhhhhhhhhhhhhhh",
"}}}}}}}}}}}}}}}}}}}}}}}}}}}}}^cdhhaaahahssaaasaaahhhhhhhhhhh",
"}}}}}}}}}}}}}}}}}}}}}}}}}}}}}'cdhhh2#**#********#8hhhhhhhhhh",
"}}}}}}}}}}}}}}}}}}}}}}}}}}}}}^cdhha,oo..oo..oo..o7hhhhhhhhhh",
"}}}}}}}}}}}}}}}}}}}}}}}}}}}}})cdhhh*oooo@ooo@oo.o4hhhhhhhhhh",
"}}}}}}}}}}}}}'^TTTWTTWTT^'}}})hhhhh,ooooooooooooo4hhhhhhhhhh",
"}}}}}}}}}}}}})vhhhhhhhhdC'}}})cdhha*ooooooooooooo4hhhhhhhhhh",
"L)'}}}}}}}}}})vhsshassddC'}}}^cdhhh,o.......o.ooo4hhhhhhhhhh",
"hvCW}}}}}}}}}]vhhhhhhhhhC'}}}'cdhha*ooooooooooooo4hhhhhhhhhh",
"ahshvL)'}}}}}'^WWWWWWWWW^'}}}^cdhhhee88e788888e87ahhhhhhhhhh",
"hahhhsxCW}}}}}}}}}}}}}}}}}}}})cdhhhhhhhhshhhhhhhhhahhhhhhhhh",
"GChaahhahvW}}}}}}}}}}}}}}}}}'^cdhhhhhhhhhhhhhhhhhhhhhhhhhhhh",
"}'^GvhahhsD}}}}}}}}}}}}}}}}}}'cdhhhhhhhhhhhhhhhhhhhhhhhhhhhh",
"}}}})LChhhv)}}}}}}}}}}}}}}}}}'hdhhhhhhhhhhhhhhhhhhhhhhhhhhhh",
"}}}}}}'GhshW}}}}}}}}}}}}}}}}')vdhhhhhhhhhhhhhhhhhhhhhhhhhhhh",
"}}}}}}}^hshD}}}}}}}}}}}}}}}}})cdhhhhhhhhhhhhhhhhhhhhhhhhhhhh",
"}}}}}}})Nhav)}}}}}}}}}}}}}}}''cdhhhhhhhhhh8ahhhhhhhhhhhhhhhh",
"}}}}}}}}GhhN)}}}}}}}}}}}}}}}})cdhhhhhdha8,@*ahhhhhhhhhhhhhhh",
"}}}}}}}})L)'}}}}}}}}}}}}}}}}})cdhhhhhhh,#ooo4hhhhhhhhhhhhhhh",
"}}}}}}}}}}}}}}}}}}}}}}}}}}}}}^hdhhhhhh8@oooo,hhhhhhhhhhhhhhh",
"}}}}}}}}}}}}}}}}}}}}}}}}}}}}})vhhhhhhh4ooo*4ahhhhhhhhhhhhhhh",
"}}}}}}}}}}}}}}}}}}}}}}}}}}}}}^cdhhhhhh#.o#ahhhhhhhhhhhhhhhhh",
"}}}}}}}}}}}}}}}}}}}}}}}}}}}}}'cdhhhhh8@.o,hhhhhhhhhhhhhhhhhh",
"}}}}}}}}}}}}}}}}}}}}}}}}}}}}})cdhhhhh2..o8hhhhhhhhhhhhhhhhhh",
"}}}}}}}}}}}}}}}}}}}}}}}}}}}}}^cdhhhhh#.o#hhhhhhhhhhhhhhhhhhh",
"}}}}}}}}}}}}}}}}WT'}}'}}}}}}})hdhhhh8@oo2hhhhhhhhhhhhhhhhhhh",
"}}}}}}}}}}}}}}}'vhNT'}'}}}}}})vdhhhh,ooo8hhhhhhhhhhhhhhhhhhh",
"}}}}}}}}}}}}}}}GhahhC}}}}}}}}'v  hha#oo#hhhhhhhhhhhhhhhhhhhh",
"}}}}}}}}}}}}}}}GhhahhL}}}}}}}}      ooo4hhhhhhhhhhhhhhhhhhhh",
"}}}}}}}}}}}}}}}}WDxssv'}}}}}}        oo8hhhhhhhhhhhhhhhhhhhh",
"}}}}}}}}}}}}}}}}}}DhhsG}}}}}}          hhhhhhhhhhhhhhhhhhhhh",
"}}}}}}}}}}}}}}}}]})xahx^}}}}           hhhhhhhhhhhhhhhhhhhhh",
"}}}}}}}}}}}}}}}}}}}GhahC}}              hhhhhhhhhhhhhhhhhhhh",
"}}}}}}}}}}}}}}}}}}})vhs                 shhhhhhhhhhhhhhhhhhh",
"}}}}}}}}}}}}}}}}}}'}Wh                  hhhhhhhhhhhhhhhhhhhh",
"}}}}}}}}}}}}}}}}}}}}}C                  hhhhhhhhhhhhhhhhhhhh",
"}}}}}}}}}}}}}}}}}}}}})                  hhhhhhhhhhhhhhhhhhhd",
"GDGLGGGGLGGLGGGGDGGLDL                 ,,,,2,,,,,,,2,,,,,,,4",
"hhssshhsssssshhshsssh                  ooooo..oooooo..oooo.o",
"hhhhhhhhhhhhhhhhhhhhs                  ooooooooooooooooooooo",
"hhhhhhhhhhhhhhhhhhhhh                 o@oooooooooooooooooooo"
};
