/* XPM */
static char *brick_wall__2___1_1704903672[] = {
/* columns rows colors chars-per-pixel */
"60 60 75 1 ",
"  c #020101",
". c #0C0504",
"X c #100705",
"o c #130906",
"O c #180A07",
"+ c #160B08",
"@ c #1B0C09",
"# c #210E0A",
"$ c #23110D",
"% c #2C140E",
"& c #30150E",
"* c #2E1711",
"= c #311610",
"- c #341A13",
"; c #3C1C14",
": c #451F16",
"> c #472016",
", c #492117",
"< c #442119",
"1 c #4C241A",
"2 c #56261A",
"3 c #58271A",
"4 c #50281E",
"5 c #5E291C",
"6 c #632C1F",
"7 c #692E1F",
"8 c #552A20",
"9 c #5A2D22",
"0 c #662E21",
"q c #692F21",
"w c #633125",
"e c #6C3122",
"r c #6C3629",
"t c #733324",
"y c #7A3727",
"u c #7E3826",
"i c #743A2C",
"p c #7E3A29",
"a c #813826",
"s c #843B2A",
"d c #8B3D2A",
"f c #903F2C",
"g c #8D412E",
"h c #96422E",
"j c #99442F",
"k c #824131",
"l c #8D4635",
"z c #954330",
"x c #9B4631",
"c c #904836",
"v c #9F4833",
"b c #954A38",
"n c #9D4E3B",
"m c #A64B35",
"M c #A94C36",
"N c #A44E39",
"B c #AE4F38",
"V c #A3513D",
"C c #AB533D",
"Z c #B3513A",
"A c #BB553D",
"S c #C1573E",
"D c #C2583F",
"F c #AD5641",
"G c #B35943",
"H c #BB5D46",
"J c #C55A41",
"K c #C95F45",
"L c #CA6046",
"P c #C36149",
"I c #CD654C",
"U c #D1664C",
"Y c #D2694F",
"T c #D56A50",
"R c #D96C51",
/* pixels */
"                                                            ",
"tte7555; -lccccccccccccccssstXXpccccccccccccccdsss* :tteq655",
"mmMjddd3 8TTTRTRTTRRRTTTYJJJB++PRRTTRRTRRTRRTTJJKJ: eMmMmddd",
"mmmhddd3 8TTTTTTTTTTTTTTUJAJB++HTTTTTTTTTTTTTUJAJJ2 eMmmxddd",
"mmmhddd3 8TTTTTTTTTTTTTTISAJBOOHTTTYTTTTTYTTTYJJDD, 0Mmmxddd",
"mmmhddd3 8TTTTTTTTTTTTTTUJSSN+OHTTTTTYTYTTYTYYJSDD1 qmmmmddd",
"mmmhddd3 8TTYTTYTTYk<iTTISSJB+@HTTTTYTTTTTTTTYHHDD1 eMmmxddd",
"mmmhddd3 4TYTTTTTYI; *PTUSSJM+OHYTTTTTTYYTTTTYJJDD, 7Mmmxddd",
"mmmjddd3 8TTTTTTTTTGcFYTUSSJMOOHTTTTTTTTTTTTTYJADD1 emmmvddd",
"mmmhddd3 4TTTYTTYTTRRTTTUSSDMOOHTTTTTTTTTYTTTYKJDD, 0mmmxddd",
"vvmdsss2 4IIIIIIIIYIIIIIKAAAm+@GIIIIPIIYIIIIIPGAAA, 6mvvjdss",
"%$%$###o X-------*------=*%*%  *--=---*-------**&%. +%$$####",
"   . . ..  . .                .            . . . . ..  .   .",
"VVVVVVVVVVVVVnzhzz= 3suppusupsspuast7qq: -nnVVVVVVFVFnVVNxhh",
"RRRTTTTRRRTTRTJDDJ, tMMMMMMMMMmMMmMjddd6 1RRPGITTTRTTTTRYDDD",
"YYYTTTTTTTTTTYJHSJ, tmmmmmmmmmmmMmmjddd9 1TG$.wTTTTTYTTTISDD",
"YTYTTYTYTTTTYYJDDDz5hmmmmmmmmmmmmmmjddd5 1IP<*kTTTTTTTTTUDSD",
"TTTTTTTTTTTTRYJDDSJZmmmmmmmmMmmmmmmjddd5 1TTIITTTYTTYTTTUSSD",
"TTTTTYTTTTYTTYJAAJAxmmmmmMmmmmmmMmmhddd5 1ITTTTYTTTTTTTTLDDD",
"TTYTTTTTITTTYYJSJS0OsMmmmmmmmmMmmmmhsdg5 1TTTTTTYTTTTTTTUDDD",
"TTTTTTTTTTTTTYJDSS: tMmmmmmmmmMmmmmjddg5 1YYTTTTTTTTYTTYISSS",
"TTTYTTTTRTTTTYJDSJ, tMmmmmmmmmmmmmmjddd3 1YYTTTYTTTTTTTRUDDD",
"PPPPPPPPPPPPPPAZZZ; 0xxxxxjjjxxxjjjduap4 <PPPPPPPPHPPPPPHZZZ",
"$$$$$$$$$$$$$$@@@#  .@O@@@@@@@@@@@@OOO+X .$$$$$$$$$$$$$$####",
"XX.X....  Xo.oXXXX++XXXXoXXXX  .XoXXoooo+ooXXXX.XX   ... .. ",
"GGGCmmm0 <GGGGGGGGGGHGGGCmmmgoonGGGGGGGGGGGGGGNmmm; 3hdddtty",
"TTTIDDJy 8TTTRTRRTTTTRTTUDDDB+@HRTTTTTTTRTTTRYJJJJ1 qBmMmddd",
"TTTPSDJy 8TTTTTTTTTTTTTTIDDDM+@HTTTTTYTTTTTTTYJSJA1 0mmmxddd",
"TTTKSDJy 8TTIi9nTl8kITTTIJSSBOOHTTTTTYTYTTTYTYJJDD, eMmmxddd",
"TTTKSDDy 8TTF+ 9Y< $KTTTISSJM+@HTTYTTTTTTTTTTYJADD1 0mmmxddd",
"TTTKSDJy 8TTInkHTFkVYTTYUSSSB+@HTTTYTYTTTYTTTYJSDD1 eMmmmddd",
"TTTKSSDy 8TTTTRTTTRRTYTYISSJM++HTTTTTTYTTTTTTYJSSD1 0Mmmxddd",
"TTTKAJJy 4TTTTTTYTTTTTTTIDDDMO@HTTTTTTTTTTTTTTJSJJ, 0mmmxddd",
"TTTLDJJy 8RTTYYRRYTTRTTRIJDDMO@HRTTTTTTTTTTRTTJJAJ1 qMMmmddd",
"GGGCmvm7 <GGGGGGGGGGGGGGCmmmgo+nGGGGGGGGGGGGGGNmNm; 3dgdsytt",
".oo..XX.  ooXXoXoo+OoXXXo.X..  .X.ooXXoo++XXXo..X.. ...... .",
"@@@@@@@@#@@@@@+Ooo  +$$$$$$$$$$$$$$#@##O .$$$$$$$$$$$$$$##@#",
"xxxjjjxjjjjjxzauuu% sPPPPPPPPPPPPPKGZZZt <HPPPPPPPPPPPPPJZZZ",
"mmmmmMmmmmmmmmhddd* lRTTTTTYTTTTTTTKJAJs 1TTTTTTTTTTYTTTIDDD",
"mmmmmmmmMmmmmmdsdd* lRTTTTTTTTTTTTTISJJs 1ITTTTTTTTYTTTTUDSD",
"mmMmmmmmmmmmmmgdds& lTTTYRTTTTTTTTTKSHJs 1YTTYTGwrHTTTTTLDSD",
"mmmmmmmmmmmmmmdddd& lTTTTYTYTYTTTTTKSJJs 1YTTTTk  cRTTYYUDSD",
"mmmmMmmmmmmmmmgddd% cTTTTTTTYTTTTTTKSSJa 1YTTTTPllPHFPYTUDSD",
"MmmmmmmmmmMmmvdddd& lRTTTTTYTTTTTTUKSSJs 1YYTTYTTRP* 1YTLDDD",
"mmmmmmmmmmMmmvfdds= lRTTTTTTTTTTTTTKSSJa 4ITTTTTTTIw-iYYUDDD",
"MMmMMMMMmmMMMmfdfd= cRTTTRTTTTTTTTTKSDJs <RTTTTRRTTTYRRRUDDD",
"usuasapssasaas77qq$ rVFVVFVVFVNFFHTKAxb0 -VFVFVVnVVnVVVVNzjj",
"        .                    . . -KK9           . .... .  . ",
"----%&&@ X--*-**--------=*=*$  =-wITl----;----&&&&X O$%%%###",
"IIIHAASt 4IIIIIIIIIIIIIIKAAAmO+GITRTYIIYIIIIIPAGAA: qmmxfsss",
"RTTKSSDu 8TTTTYTTTTTTTTTISJSMOOHTIGFITTTTYYTTYJJJS, qMmmmddd",
"TTTKSSJy 4TTTTTTTTTTTTTTUSASMO@HRF+ iTTTTTTTTYJHJG2 emmmjddd",
"TTTKSSJy 8TTTTTTTTTTTTTTUJSJB++HRG<-bTTTYTTTTUJSSS1 emmmmddd",
"TTTKSJJy 8TTTTTTYTTTTTTTKJSJM+@HRRTITYTTTTTYTUJSDS1 emmMxdsd",
"TTTKSJJy 8TIr8nTTTTTTITTUJHJBO+HTTTTTTTTTTTTTUJSDD1 eMmmmddd",
"TTTKSSSy 8TFX wTYTTTTTTTKSSJMO+HTTTTTTYTTTTTTTJGDS1 eMmmxddd",
"TTTKHSJy 8TINlHTTTTTTTTTIHJJBO+HTYTTTTTTTTTTTYKJDD2 eMmmmddd",
"TTTIJJJy 8RTRRRRTTTTRRRRIJJJB++KRRTRRRTRTRRTRTKHJD1 eMMMxddd",
"ccldsdd1 -ccccclcbcccccblsasrXopccccccccccccbcssss& >tetq565",
"                                                            "
};
