/* XPM */
static char *stones__1_1704822818[] = {
/* columns rows colors chars-per-pixel */
"60 60 33 1 ",
"  c None",
". c #8091A4",
"X c #8091A5",
"o c #8191A5",
"O c #8192A4",
"+ c #8192A5",
"@ c #8292A5",
"# c #8293A5",
"$ c #8393A5",
"% c #8394A5",
"& c #8494A5",
"* c #8495A5",
"= c #8595A6",
"- c #8596A6",
"; c #8696A6",
": c #8797A6",
"> c #8897A6",
", c #8898A6",
"< c #8998A6",
"1 c #8998A7",
"2 c #8999A7",
"3 c #8A99A7",
"4 c #8A9AA7",
"5 c #8B9AA7",
"6 c #8B9BA7",
"7 c #8C9BA7",
"8 c #8D9BA7",
"9 c #8C9CA7",
"0 c #8D9CA7",
"q c #8C9BA8",
"w c #8D9BA8",
"e c #8C9CA8",
"r c #8D9CA8",
/* pixels */
"                                                            ",
"                                                            ",
"      rrr         7r7w           r000        rerrrrrr       ",
"     errr3       rrrrrr7w       rrrr9=      rrrrrrrrrrr     ",
"    wrrr03      rrrrrrrrw9      9rrr0+     rrrrrrrrrrrrw    ",
"    wrrr73+    wrrrrrrrrr00    0rrr3=+    rrrrrrrrrrrrrr3   ",
"    rrrr0=+    rrrrrrrrrrr03   r0033++   rrrrrrrrrrrrrrr3   ",
"    rrrr3++   rrrrrrrrrrrrr3   797=+++   rrrrrrrrrrrrrrr3%  ",
"    rrrr:.+   rrrrrrrrrrrrr0=   %++++   0rrrrrrrrrrrrrrr3%  ",
"    00r3%+   rrrrrrrrrrrrrr3=   +++    rrrrrrrrrrrrrrrrr3%  ",
"    377+++   rrrrrrrrrrrrrrr=          rrrrrrrrrrrrrrrrr3+  ",
"    ==+.+    rrrrrrrrrrrrrrr3+         rrrrrrrrrrrrrrrrr=+  ",
"     +++    rrrrrrrrrrrrrrrr=+         rrrrrrrrrrrrrrrr0=.  ",
"            3rrrrrrrrrrrrrr0%+         rrrrrrrrrrrrrrrr3%+  ",
"             rrrrrrrrrrrrr03++         30rrrrrrrrrrrrrr:+   ",
"             30rrrrrrrrrrr3%+           =3rrrrrrrrrrrr3%.   ",
"              =33030777073+.+            %=7300rrrrrr0>++   ",
"      r000r    +%%%==+%++.++   rrrrrer    +%=33077r073++    ",
"    rrrrrrr0    ++..+..++++    wrrrrrr3     ++++=====+++    ",
"    rrrrrr00=                 7rrrrrrr3%      +++...+++     ",
"    rrrrrrr7%                 rrrrrrrr3%                    ",
"   rrrrrrrr3+                7rrrrrrr03+                    ",
"   rrrrrrr7=+                wrrrrrrrr9%                    ",
"   0rrrrr0=++                0rrrrrrrr3+        rwrrr       ",
"   rrrrr33++     w0r0rr0      rrrrrrrr3+      0rrrrrr7      ",
"   9rrr3=+.+    rrrrrrrrrr    0rrrrrrr=+     errrrrrr73     ",
"   ==>:%+++    rrrrrrrrrrr7    0rrr703++    rrrrrrrrrr>     ",
"    ++.++     rrrrrrrrrrrr7=   :3333%+.+   rrrrrrrrrrr3+    ",
"      ++     rrrrrrrrrrrrrr=    +%+++++   rrrrrrrrrrrr3+    ",
"             rrrrrrrrrrrrrr=+    ++++    rrrrrrrrrrrr7%+    ",
"            wrrrrrrrrrrrrrr=+            wrrrrrrrrrr3=++    ",
"   w0r7     rrrrrrrrrrrrrr7%+            rrrrrrrrr03%++     ",
"   rrr3%   0rrrrrrrrrrrrrr3%+            rrrrrrr03=+.+      ",
"  rrr03+   rrrrrrrrrrrrrrr3+     wrrrr   330rrr3>++.+       ",
"  we03++   33rrrrrrrrrrrre=.   rrrrrrr3   =333:%++++        ",
"  rr9=.+    30rrrrrrrrrrr3%+   rrrrrrr3    +.+..++          ",
"  33%++      =33rrrrrrr0r=.+  wrrrrrrr3+     ++             ",
"  ++.+        +%=3300rr03++   rrrrrrrr=+                    ",
"   ++          +++%%====+.+   rrrrrqr3%+          r770      ",
"        w0rr      ++...+++   7rrrrrr3=.+      qrrrrrrrrr    ",
"       wrrrrrre              rrrrr03=++    rerrrrrrrrrr03   ",
"      wrrrrrrrr7              0rr03=.+   0rrrrrrrrrrrrrr>   ",
"     rwrrrrrrrrr3             =33:+.+    rrrrrrrrrrrrrrrq+  ",
"     rrrrrrrrrrrr0             ++.++    rrrrrrrrrrrrrrrr3+  ",
"    rrrrrrrrrrrrrr3             +++     rrrrrrrrrrrrrrrr3%  ",
"    7rrrrrrrrrrrrr0                     rrrrrrrrrrrrrrrr3%  ",
"   0rrrrrrrrrrrrrr0=        rr         7rrrrrrrrrrrrrrrr3+  ",
"   wrrrrrrrrrrrrrrr=     w7rrrrr0      0rrrrrrrrrrrrrrrr=+  ",
"  0rrrrrrrrrrrrrrrr3+   3rrrrrrrrr      rrrrrrrrrrrrrrr0%+  ",
"  rrrrrrrrrrrrrrrrr3+   rrrrrrrrrrwr    0rrrrrrrrrrrrrr3%+  ",
"  rrrrrrrrrrrrrrrrr3+   wrrrrrrrrrrrw   33rrrrrrrrrrrrr:.   ",
"  9rrrrrrrrrrrrrrrr=+   rrrrrrrrrrrrrw   33rrrrrrrrrer3%+   ",
"  rrrrrrrrrrrrrrrr0=+    rrrrrrrrrrrr0    :0rrrrrrrrr3=.+   ",
"  90rrrrrrrrrrrrr03++    37rrrrrrrrrr3%    :0rrrrrr09=++    ",
"   30rrrrrrrrr00r3+.      %39rrrrrrr03+     =00rrr03%++     ",
"    =33377777033=%++       +%=330039=++      =3303=+.+      ",
"     ++%%+==+=+++.+         +++++=%++++       +=%+..+       ",
"      +++....+++++             +++.+++         ++++         ",
"                                                            ",
"                                                            "
};
