/* XPM */
static char *stones__2___1_1704903036[] = {
/* columns rows colors chars-per-pixel */
"60 60 43 1 ",
"  c None",
". c #390482",
"X c #3D0B84",
"o c #3F1085",
"O c #400F85",
"+ c #421486",
"@ c #441887",
"# c #461C88",
"$ c #481E89",
"% c #472089",
"& c #4A248A",
"* c #4E2B8C",
"= c #502D8C",
"- c #53348E",
"; c #55398F",
": c #573D90",
"> c #593D90",
", c #5B4392",
"< c #5E4B94",
"1 c #614D94",
"2 c #635396",
"3 c #655A97",
"4 c #685997",
"5 c #675E98",
"6 c #6A5D98",
"7 c #6C639A",
"8 c #6E6B9B",
"9 c #726C9C",
"0 c #74749E",
"q c #78779E",
"w c #757A9F",
"e c #7A7A9F",
"r c #777EA0",
"t c #7C7EA0",
"y c #7C83A1",
"u c #7E8CA3",
"i c #8186A2",
"p c #838CA4",
"a c #8594A5",
"s c #8995A6",
"d c #8798A6",
"f c #8B9AA7",
"g c #8D9CA8",
/* pixels */
"     ...         .....           .....        .......       ",
"    ..XX.       ..++X...        ...+O.      ...+@+OO....    ",
"   ..-e7+.     ..>tit4&X..     .X>0y9O.    ..&7tiptq4;+..   ",
"  ..1fgg6X.   ..-sggggs9&..    .&aggg<..  ..=igggggggfe-X.  ",
"  .#pffga&.   .@egfgggggi=..   .2gggg8X. ..#tgfgggggfggs>.. ",
"  .&ffggf:.  ..1ggggggggfi&.  ..9ggga<.. .+qggggggggggfgp$. ",
"  .=sgggs-.  .&pgggggggggg9X. .X9gdd8+. .X7gggggggggggggg1..",
"  .=sggfy#. ..6gggggggggggf:.  .,du7@....1fggggggggggggggrX.",
"  .&sggd5.. .&pggggggggggfgqO. .X-;X.. .%pgfggggggggfggggt+.",
"  .Oygfy&. ..4gggggggggggggs&.  ....  ..6gfggggggggggggggi+.",
"  ..<da2.. .Otgggggggggggggg1.        .@pgggggggggggggggftO.",
"   .X<<+.  .&sgggggggggggggg6..       .&sggggggggggggggggrO.",
"    ....   .*fggggggfggggggg7X.       .&sgfggggggggfggggf4..",
"     ..    .+ygfgfgggggggggg7..       .Xtgfgggggggggggggd:. ",
"           ..2gggggggggggggd<..       X.;sggggggggggggggy$. ",
"        ..  .@ygggfgggggggdu*.  .....  ..>pggggggggggggs7X. ",
"    ....... ..*ysffffffdddu<.. ..XOX... ..*9dgggggggggfu*.  ",
"   ..o-171+. ..$<57r0r0072*X. .X<ttq4&.. ..X*7ydgdgdgdd7X.  ",
"  ..:tfggf4.. ....XXX+XX.... ..,fggggp;..  ...+-28yyyy0$.   ",
"  .@igggfgf-.    .........   .#iggggggtX.    .....oo##X..   ",
"  .>fggggfg9..               .,gggggggs&.       .X......    ",
" ..7gggggggqX.              ..6gfgggggg:.         ...       ",
" .+tgggggff7X.              ..7gfgggggg<.       ......      ",
" .@igggggdu-.   .........    .2gggggggg<.     ...#<82+.     ",
" .+ifggffp<..  ..$;>>=#X..   .&pggggggg<.    ..+1iggg7X.    ",
" .X7ggffa1X.  ..1psgfspq,O.. .O7gfgggga,.   ..*tgggfgf,..   ",
"  .*ydsy,..  ..,sgggggggf9@.  .=agggffu*.  .X<pggfggfgt@.   ",
"  ..%2<%..  ..;agggggfgfgg7O. ..7gfdsu3X. .O4sggggggggg>.   ",
"   ......  ..&pgfggggggggga*.  .+7w03*X...X4ggfggggfggg7..  ",
"    ...    .+egsggggggggggg1.  ..XoX... ..,fgfggggggggg9X.  ",
"  .....   ..1gggggggggggggg6..   ....   .+igfggggggggfs3X.  ",
" ..@:&..  .@igggggggggggggg6..          .&sggggggfggda8+.   ",
" .*igy+.  .-fgggggggggggggf2.    .....  .#pgggggggfau3+..   ",
"..7ggg,.  .>gggggggggfggggf:.  ...X+@.. .X7gggggfda0-..     ",
".Otggd<.  .*fgsggggggggfggu&. ..&2rip1.. .+9dgfsaw,+..      ",
".@igdy&.  .X7ggggggggggggdro. .=pggggs:....+<8r7:+...       ",
".Oyfu,..   .+9fgggggggggfd<...X9ggggggtO.  ..XXX...         ",
"..<y,X.    ..O,tdgggggggfy@. .%pggggggd*.   .....   ..      ",
" .X+..  ..  ...+:7uafdfda<.. .:ggggggga=.      ..........   ",
"  ... ...........X+*,257<X.  .2gggggggr+.   ....O$-144>+..  ",
"     ..=471=O.............  ..4gggggfu,.. ...+-4epfgggfe$.  ",
"    ..=pggffe<O..    ....    .1gggfdu2X. ..&4ysfgggggggg9X. ",
"    .@egggggggq&..           .&pggdu<X. ..1pggggggggggggf=. ",
"   ..4ggggggfggi*..          ..>yuw;..  .-fgggggggggggggg6..",
"   .=pggggggggfgt@.           ..@%o..  .O0gfgggggggggfgggeX.",
"  .O9gggggggggggg6..           .....   .#pgggggggggggggggy+.",
"  .-sggggggggggggf=.      ......       .-sgggggggggggggggy+.",
" .O9gggggggggggggg7..   ...+*&@...     .1ggggggggggggggggy+.",
" .=fggggfgggggggggi#.  ..$6issp7&..    .>gggggggggggfggggwX.",
"..4ggggggggggfggggf:.  .&iggggggp1X.   .#igfggggggggggggg7X.",
".Xeggggfgggfggggggg2.  .<ggggggfgg7+.. ..1ggggggggggggggd,..",
".@igggggggggggggggg7.. .&sggggggggg9@.. .O0ggggggggggggsu&. ",
".Oigggggggggggggggg7.. .Xqgfgggggggg9+.  .&igfgggggggggf7.. ",
"..4gfggfgfggggggggg3..  .,fgggggggfgg9X. ..=pgfgggggggfy*.  ",
" .$pgfggggggggggggd:.   .Xeggggggggfgf>.  ..-pgfggggfdp,..  ",
" ..1ggggggggfggggdr@.    .&9sggfgggggg3..  ..=pggggfdu<X.   ",
"  XO6sffgfffddfday-..    ..X-8uffgfddu,.    ..*yffdar-..    ",
"   .X-38wryyyy08<%..       ...$:70yy0,o.     ..$7rr<+..     ",
"    ...XoooooooX...          ....XooX.X       ..XoX...      ",
"      ...........               ......          ....        "
};
