/* XPM */
static char *stones__2___1_1704823114[] = {
/* columns rows colors chars-per-pixel */
"60 60 74 1 ",
"  c None",
". c #000000",
"X c #060708",
"o c #070809",
"O c #0A0B0D",
"+ c #0D0F11",
"@ c #0F1112",
"# c #111315",
"$ c #141619",
"% c #16191C",
"& c #181B1E",
"* c #1B1E21",
"= c #1E2125",
"- c #1F2428",
"; c #202427",
": c #22262A",
"> c #262A2E",
", c #272C32",
"< c #292E33",
"1 c #2C3136",
"2 c #2E3439",
"3 c #31363B",
"4 c #33393E",
"5 c #353C42",
"6 c #383E43",
"7 c #3A4146",
"8 c #3C444B",
"9 c #3F4750",
"0 c #40474D",
"q c #42494E",
"w c #444C53",
"e c #484F55",
"r c #454F59",
"t c #485056",
"y c #4C555C",
"u c #4F585F",
"i c #50595F",
"p c #4D5762",
"a c #4F5964",
"s c #535C63",
"d c #545F6A",
"f c #566067",
"g c #57626C",
"h c #5B656D",
"j c #5A6572",
"k c #5D6974",
"l c #616C75",
"z c #626E79",
"x c #65717C",
"c c #6A757E",
"v c #667482",
"b c #6A7683",
"n c #6D7983",
"m c #6D7B8B",
"M c #717D87",
"N c #717E8B",
"B c #75828D",
"V c #78858F",
"C c #758493",
"Z c #798692",
"A c #7D8A95",
"S c #778798",
"D c #788798",
"F c #7C8C9C",
"G c #7F90A2",
"H c #808E99",
"J c #84929E",
"K c #8594A3",
"L c #8897A3",
"P c #8C9BA7",
"I c #8697A8",
"U c #8798A9",
"Y c #8D9CA8",
"T c #909FAB",
/* pixels */
"                                                            ",
"      ...        .....           ....        ........       ",
"    ..X%X.      ..@=&X...       ..#;O.      ..#;;&$o...     ",
"   ..#fHuX.    ..<BLHcq%..     .oiVJlo.    .OiAJLJAMs>X.    ",
"   .#cTYU8.    .%BTPPTTA7..    .3PYYU3.   .ohYTPPYYTTLf#.   ",
"   .2PYPYno.  ..fPPTYPPYPeX.  ..gYYPUw.  .XsPYPYYYYYPPYlo.  ",
"   .8YPYYB+.  .1JYPPYTPPPL6.. .XcYPIF=. ..wPYPYYYYYPYPYP8.  ",
"   .qTYYYvo. .ocTPYYYPPTPYA&. ..lYIF5....3JPPYYPYYYYYPPTbX. ",
"   .8PPYUw.  .4PYYPYYYYPYYTi.. .<Cb1.. .&VYPYPYYPPTPPTPPH$. ",
"   .2PYYZ*. .ocYPYYYPYYYYPPA$. ..#+.. ..sTYYYYYYTPTPPTPTJ=. ",
"   .$ZYIr.. .>LPYYYYYYYYYYYP4.  ....  .&HYPYYYYYYYPPPPPTK=. ",
"   ..8Fz@.  .tTPTPYPYYYYYYPTu.        .5PPYYYPYYYPPTTPPPF%. ",
"    ..*+.. ..hTPPPPTYYYYYYYYk..       .0YPYYYYYYYYYYYYPTMO. ",
"     ...   ..sTPPTPPYYYYYYYYl..       .3PYPYYYYPYYYYYYPYk.. ",
"            .1LPYYTPYYYYYYYYd..       .OnTPTYYYYYYYYYYYI8.  ",
"            .olYPYYPYYYYYYUI6.         .:VTPYYYYPYYYYYPA*.  ",
"      .....  .*BTYPYPUPPUPIv+. ....... ..=lPYYYYYYPYYYUd..  ",
"    ...#:<@....=jBFHGGKFDma$....=te5*X. ..o3zJYYYYYUPUF-.   ",
"   ..>hZLLc#. ...+%->>>=%+.....>ATYYJsO.  ..X-wkCHKIIGe..   ",
"   .&ATYYPYs..  ...........  .onTPPYPPq.    ...X@=,55<o.    ",
"   .eYPYYPYJ*.               .3PYYPYYYno.      ........     ",
"  .XbYPYYYPP5.               .sYPYYYYYA$.         ...       ",
"  .%HPYYYYPK1.              ..hYYYYYYYJ*.       .....       ",
"  .;LPYYYPUb+.   .......     .yTYYYYYYL:.     ...&80#.      ",
"  .=JYYYPUD,.. ..X&::&@...   .:JYYYYYYI:.    ..&sHTYc@.     ",
"  .@VYYPIC2..  .$lHLLHVl4o.. .XzYPYYPYF*.   .X6AYYYYYi..    ",
"  ..8IUIb,..  .#cYPYPYYTPl#.  .2PYYYPUN@. ..#fPPYPYPPJ;.    ",
"   .X2aw$..  .OkTPPTPYYPYThX. .XlYPUUF8....&bYTPYYYYPYs..   ",
"    ......  .XiYPPYYYYYYPYL<.  .%kmvp>....%nTPPPYYYYYYMO.   ",
"     ..    ..4LYPYYYYYYYYPYt.  ..X+o... .olYPPTPYPYYYYZ$.   ",
"   .....   .$VYYYYYYYYYYYYTh..   ....   .2LYPTYYYYPYPIvO.   ",
"  ..=5#.   .wYYYYPYYPYYYYYYh..          .tTPYPYYYPPIIm-.    ",
"  .8JYh.. .XzTPPYPYYYPYYYYYs..   .....  .5YYYYYYPPUKj*..    ",
" .ocTYH*. .XnYYPYYYYYYYPYPU8.  ...@*&.. .#MYYYTUIKm6o..     ",
" .&HYYF*. ..sTPYYYYYYPYYYYK>. .X3hVJH7....:MUUPKNr#..       ",
" .;JUIjX.  .&ZTPPYYYYYYYYYbO...6LTPPYH>. ..#8jd5#...        ",
" .%AUb%.   ..:MYPYYYYYYPYUw...ocTPYYPTh.. ........          ",
" ..wj*..    ..#wBIYYYYYPUC%. .;JYPYYYYC+.    ..   ....      ",
"  ..... .... ...@5dmFKIIG8.. .8YYYYPYPN+.     .....XoX..    ",
"   .. ...Oo........O%,35,o.  .yTYYPYPPp..  ....$<ehcMz4..   ",
"      .$hBBh4#... ........   .yYPYYUIv$. ...%7lAPYTTYTLq..  ",
"     .OlTYTTPVeO.            .6PYPPIb*....=fAYTPYYPYPPPJ:.  ",
"    ..0YYPYPPTPz$.           .#nYUIk%.. .>AYTPPPYYPPPYPTs.. ",
"    .*ATPYYPYPPPx#.          ..&ak8O.. .ocTYPTPPYYYTYYYTMo. ",
"   ..hTYYYYYYYPYTs..          ......   .>JYYPPYYTPPPYYYYH$. ",
"   .<JYPYYYYYYYPPL2.        .. ...     .tYYYTPYYPPTPYYPYL=. ",
"  .XlTYYYYYYYYYYPTzX.    ........     ..hTYYYPYYPTPPPTYYK=. ",
"  .>JYYYYYYYYYYYPPJ:.   ..&whhe;...   ..lTYYYYYYYYYTPPPPF&. ",
" ..sTPPTYYYPPTYYYYTt.  .oeAYTTTJs$..   .eTPPTPTPPTYYYYYYC+. ",
" .OBTPPPPPPTPPYPYYYz.. .>LTPPPPYTM:..  .&ATPTPPPPPPYYYPTz.. ",
" .*JYYTPPTYYTTPPYPTBO. .*JYYPPPPYYF2.. ..0PPPPTTYYYYYYPP8.  ",
" .=JYYYPYYYPPPPTYYYV#. .XcTPPTTPYPTH3.. .ofPPPPPYYYYPYUZ%.  ",
" .OMTPTPPYYYYYYYYYYNO.  .6PPYYPYYYPYH1.. .#xTYYYYYYPYPIy..  ",
" ..qPPTPYYYYYYYYYYYkX.  .OMTYYYYYYYPYB#.  .$bYYPYYYYPUv#.   ",
"  .@nTPPYYYYYYYYYUI8.    .>BYYYYPYYYPI2.  ..$cYYYYUPIm=..   ",
"   .;ZYTYYYYYUYPUIkO.    ..$wmIYYYYPUG<.   ..#zYPPIGj%..    ",
"   ..=abCFFGGFSmz9+.      ...+<anDFFN9X.    ..+aFFv5o..     ",
"    ...o@%*==*%@X..         ....O$*=@..       ..$*O..       ",
"      ...........              .......         ....         ",
"                                                            "
};
