/* XPM */
static char *close_doors__1_1704843541[] = {
/* columns rows colors chars-per-pixel */
"60 60 80 1 ",
"  c None",
". c #623C21",
"X c #633C21",
"o c #653E21",
"O c #684122",
"+ c #6F4523",
"@ c #6F4623",
"# c #734B28",
"$ c #734B29",
"% c #734C29",
"& c #744C29",
"* c #744D2B",
"= c #764F2D",
"- c #77502E",
"; c #7E5228",
": c #7E5328",
"> c #7F5329",
", c #7F542A",
"< c #785231",
"1 c #795231",
"2 c #7C5736",
"3 c #7C5737",
"4 c #7D5737",
"5 c #7D5838",
"6 c #805327",
"7 c #80552B",
"8 c #8C5B29",
"9 c #9C672C",
"0 c #A16C2D",
"q c #A36D2E",
"w c #AE7530",
"e c #916B45",
"r c #A07E5C",
"t c #BF8233",
"y c #D18F35",
"u c #DA9637",
"i c #D89538",
"p c #DF9A3A",
"a c #E7A03B",
"s c #E7A03C",
"d c #EBA33C",
"f c #F1A73C",
"g c #F4AA3E",
"h c #F7AC3F",
"j c #FBAD3A",
"k c #F9AD3D",
"l c #FBAE3C",
"z c #FBAF3E",
"x c #FAAF3F",
"c c #FBAF3F",
"v c #FCAF3E",
"b c #FCAF3F",
"n c #FCB03F",
"m c #FDB03F",
"M c #A88868",
"N c #EBA542",
"B c #EEAA47",
"V c #FBAF40",
"C c #F0AC4A",
"Z c #FBB040",
"A c #FCB040",
"S c #FDB040",
"D c #FDB140",
"F c #F4B150",
"G c #FCBB5C",
"H c #FEBC5C",
"J c #FDBD5F",
"K c #FEBE5F",
"L c #FFBF5F",
"P c #BAA084",
"I c #B7A290",
"U c #C6B6A7",
"Y c #C7B7A9",
"T c #FFCE85",
"R c #FFCE86",
"E c #FFD89B",
"W c #DCCBB8",
"Q c #E3D4C2",
"! c #E4D5C4",
"~ c #E4D8CB",
/* pixels */
"          %&&&&&&&&&&&&&&&&&&&&&&&&&&&&&&&&&&&&&&&          ",
"          &&&&&&&&&&&&&&&&&&&&&&&&&&&&&&&&&&&&&&&&          ",
"          &&&&&&&&&&#&##&&&&&&&&#$##&&&&&&&&&&&&&&          ",
"          &&&&&##############################&&&&&          ",
"          &&&&################################&&&&          ",
"          &&&#1IYUUYUUYYUUYYYUUUYYUUUUYYUYYYI1#&&&          ",
"          &&&#4~ETTTTTTRTTRRRTTTRRTTTTTTTTTE~3$&&&          ",
"          &&&#5!HjlllllllllllllllllllljvlljG!3$&&&          ",
"          &&&#5!KZAAAAAAVVAAAAAAAAAAAAAAAZZK!5#&&&          ",
"          &&&#5!KlAAAAAAAVAAAAAAAAAAAAAAAZnK!5#&&&          ",
"          &&&#5!KlAAAAAAAAAAAAAAAAAAAAAAAAnH!5#&&&          ",
"          &&&#5!KZAAAAAAAAAAAAAAAAAAAAAAAAnH!5#&&&          ",
"          &&&#5!KZAAAAAAAAAAAAAAAAAAAAAAAAlK!4#&&&          ",
"          &&&#5!KlAAAAAAAAAAAAAAAAAAAAAAAAAFP1#&&&          ",
"          &&&#5!KZAAAAAAAAAAAAAAAAAAAAAAAAAs7#&&&&          ",
"          &&&#5!KlAAAAAAAAAAAAAAAAAAAAAAAAAs7#&&&&          ",
"          &&&#5!KZAAAAAAAAAAAAAAAAAAAAAAAAAs7#&&&&          ",
"          &&&#5!KlAAAAAAAAAAAAAAAAAAAAAAAAAs7#&&&&          ",
"          &&&#5!KZAAAAAAAAAAAAAAAAAAAAAAAVAd7#&&&&          ",
"          &&&#5!KlAAAAAAAAAAAAAAAAAAAAAAAVVs7$&&&&          ",
"          &&&#5!KlAAAAAAAAAAAAAAAAAAAAAAAAAd:#&&&&          ",
"          &&&#5!KZAAAAAAAAAAAAAAAAAAAAAAAAANe*$&&&          ",
"          &&&#5!KZAAAAAAAAAAAAAAAAAAAAAAAAvGW4#$&&          ",
"          &&&#5!KlAAAAAAAAAAAAAAAAAAAAAAAAvK!3#$&&          ",
"          &&&#5!KlAAAAAAAAAAAAAAAAAAAAAAAAZK!5#&&&          ",
"          &&&#5!KVAAAAAAAAAAAAAAAAAAAAAAAZnK!5#&&&          ",
"          &&&#5!KZAAAAAAAAAAAAAAAAAAAAAAAAnH!5#&&&          ",
"          &&&#5!KlAAAAAAAAAAAAAAAAAAAAAAAAnH!5#&&&          ",
"          &&%#5!KlAAAAAAAAAAAAAAAAAAAAAAAAlK!5$&&&          ",
"          &&&#5!KZAAAZAAAAAAAAAAAAAAAAAAAAnK!5#&&&          ",
"          &&&#5!KlAVlZVAAAAAAAAAAAAAAAAAAAlK!5$&&&          ",
"          &&&#5!Kht8qdAAAAAAAAAAAAAAAAAAAZZK!5$&&&          ",
"          &&&#5!Li#..wAAAAAAAAAAAAAAAAAAAAZK!5#&&&          ",
"          &&&#5!LyOo.0AAAAAAAAAAAAAAAAAAAAlK!5#&&&          ",
"          &&&#5!Kd9@6uAAAAAAAAAAAAAAAAAAAAlK!5#&&&          ",
"          &&&#5!JlVpdvVAAAAAAAAAAAAAAAAAAAnK!5#&&&          ",
"          &&&#5!KlAAAAZAAAAAAAAAAAAAAAAAAAlK!5#&&&          ",
"          &&&#5!KZAAAAAAAAAAAAAAAAAAAAAAAAZK!5#&&&          ",
"          &&&#5!KlAAAAAAAAAAAAAAAAAAAAAAAAZK!5#&&&          ",
"          &&&#5!KAAAAAAAAAAAAAAAAAAAAAAAAAlK!5#&&&          ",
"          &&&#5!KlAAAAAAAAAAAAAAAAAAAAAAAAVK!5#%&&          ",
"          &&&#5!KZAAAAAAAAAAAAAAAAAAAAAAAAlK!5#&&&          ",
"          &&&#5!KlAAAAAAAAAAAAAAAAAAAAAAAAlK!5#&&&          ",
"          &&&#5!KZAAAAAAAAAAAAAAAAAAAAAAAAZKQ3#&&&          ",
"          &&&#5!KlAAAAAAAAAAAAAAAAAAAAAAAAlBr=#&&&          ",
"          &&&#5!KZAAAAAAAAAAAAAAAAAAAAAAAAAs:#&&&&          ",
"          &&&#5!KlAAAAAAAAAAAAAAAAAAAAAAAAAd7#&&&&          ",
"          &&&#5!KZAAAAAAAAAAAAAAAAAAAAAAAAAs7#&&&&          ",
"          &&&#5!KVAAAAAAAAAAAAAAAAAAAAAAAAAs7#&&&&          ",
"          &&&#5!KlAAAAAAAAAAAAAAAAAAAAAAAAAd7#&&&&          ",
"          &&&#5!KlAAAAAAAAAAAAAAAAAAAAAAAAAs7#$&&&          ",
"          &&&#5!KZAAAAAAAAAAAAAAAAAAAAAAAAAs:#$&&&          ",
"          &&&#5!KlAAAAAAAAAAAAAAAAAAAAAAAAACM-#&&&          ",
"          &&&#5!KZAAAAAAAAAAAAAAAAAAAAAAAAlK!5#&&&          ",
"          &&&#5!KZAAAAAAAAAAAAAAAAAAAAAAAAlK!5#&&&          ",
"          &&&#5!KlAAAAAAAAAAAAAAAAAAAAAAAAZK!5#&&&          ",
"          &&&#5!KlAAAAAAAAAAAAAAAAAAAAAAAAVK!5#&&&          ",
"          &&&#5!KZAAAAAAAAAAAAAAAAAAAAAAAAlK!5#&&&          ",
"          &&&#5!KlAAAAAAAAAAAAAAAAAAAAAAAAZK!5%&&&          ",
"          #&&#5!KZAAAAAAAAAAAAAAAAAAAAAAAAlK!5#&&$          "
};
