/* XPM */
static char *money__1___1_1704903895[] = {
/* columns rows colors chars-per-pixel */
"60 60 172 2 ",
"   c None",
".  c #020001",
"X  c #0A0205",
"o  c #0F0209",
"O  c #15040B",
"+  c #150808",
"@  c #19020F",
"#  c #141103",
"$  c #1D1307",
"%  c #1E1906",
"&  c #1C0211",
"*  c #240E0F",
"=  c #27100F",
"-  c #281E08",
";  c #301B0E",
":  c #220414",
">  c #2D051B",
",  c #270914",
"<  c #3F1D17",
"1  c #391519",
"2  c #2B2408",
"3  c #33220C",
"4  c #3A260E",
"5  c #3A300B",
"6  c #3D2B11",
"7  c #401E17",
"8  c #473B0E",
"9  c #4A241A",
"0  c #522A1C",
"q  c #4D3511",
"w  c #573915",
"e  c #63381F",
"r  c #520D2F",
"t  c #56122F",
"y  c #5E1B2F",
"u  c #64222F",
"i  c #69272F",
"p  c #6E2D2F",
"a  c #663423",
"s  c #74342F",
"d  c #77382F",
"f  c #7A3A2F",
"g  c #7E3F30",
"h  c #5D4D12",
"j  c #534510",
"k  c #644119",
"l  c #715D16",
"z  c #79581C",
"x  c #786318",
"c  c #6E4020",
"v  c #7F4130",
"b  c #895E1F",
"n  c #826B1A",
"m  c #8A721B",
"M  c #997E1E",
"N  c #8D512A",
"B  c #9D5D2D",
"V  c #804230",
"C  c #864830",
"Z  c #8C4F30",
"A  c #994F34",
"S  c #954D33",
"D  c #8D5130",
"F  c #915530",
"G  c #965B30",
"H  c #8B6323",
"J  c #976624",
"K  c #9C6230",
"L  c #A0602E",
"P  c #AA6A2D",
"I  c #A26F25",
"U  c #A87326",
"Y  c #A67226",
"T  c #B47C29",
"R  c #AC6134",
"E  c #A56C30",
"W  c #AF6B30",
"Q  c #B46D33",
"!  c #AC7431",
"~  c #BC7235",
"^  c #B27B31",
"/  c #C47B35",
"(  c #AD6D52",
")  c #BD7F59",
"_  c #9E821F",
"`  c #A78523",
"'  c #BF832C",
"]  c #B89825",
"[  c #B98331",
"{  c #CA8B2F",
"}  c #C59E2A",
"|  c #CC8335",
" . c #C38932",
".. c #C88E33",
"X. c #C58B3B",
"o. c #D38734",
"O. c #D48C34",
"+. c #DA8E37",
"@. c #D48638",
"#. c #DD8F38",
"$. c #CE9A31",
"%. c #C99336",
"&. c #DC9434",
"*. c #D49F32",
"=. c #DE9038",
"-. c #D39131",
";. c #E09137",
":. c #E59639",
">. c #E79839",
",. c #EA9B39",
"<. c #E89C35",
"1. c #CBA828",
"2. c #D6A62F",
"3. c #DBB62C",
"4. c #DFB82C",
"5. c #D7B22B",
"6. c #D6A432",
"7. c #DCAA32",
"8. c #D8A632",
"9. c #E5BD2D",
"0. c #E9A136",
"q. c #EFA039",
"w. c #F4A33A",
"e. c #FDAD3B",
"r. c #F4A438",
"t. c #E3B232",
"y. c #EBBC32",
"u. c #EABC38",
"i. c #FFB13B",
"p. c #F3C532",
"a. c #F5C932",
"s. c #FACE32",
"d. c #FFD233",
"f. c #FFD43D",
"g. c #BC815E",
"h. c #B7816B",
"j. c #D4A64F",
"k. c #DCB04F",
"l. c #D4A754",
"z. c #FDAF40",
"x. c #F0A441",
"c. c #E4B94F",
"v. c #FEB040",
"b. c #C59377",
"n. c #E2BD68",
"m. c #F6B865",
"M. c #FFD646",
"N. c #FFD84F",
"B. c #FFDB5A",
"V. c #FFC060",
"C. c #FFC46C",
"Z. c #FFDC61",
"A. c #E9C875",
"S. c #EACB79",
"D. c #FFC671",
"F. c #FFE272",
"G. c #D4AC93",
"H. c #E6BB8F",
"J. c #FFCF86",
"K. c #FFD088",
"L. c #FFE89A",
"P. c #EBC9A9",
"I. c #FEDDAE",
"U. c #F8DBB6",
"Y. c #FEECAB",
"T. c #FFEFB8",
"R. c #FDF0BB",
"E. c #FFF6CE",
"W. c #FDF0C0",
"Q. c #FFF6D1",
"!. c #FFF8D7",
"~. c #FFF9DA",
/* pixels */
"                                                                                                                        ",
"                                                                                                                        ",
"                                                                                                                        ",
"                                                                                                                        ",
"                                                                                                                        ",
"                                                                                                                        ",
"                                                                                                                        ",
"                                                                                                                        ",
"                                                                                                                        ",
"                                                                                                                        ",
"                                                                                                                        ",
"                                                                                                                        ",
"                                                                                                                        ",
"                                                                                                                        ",
"                                                                                                                        ",
"                                                          A f                                                           ",
"                                                  h.G.H.w.w.q.-.E c 1                                                   ",
"                                              b.P.I.J.m.i.i.i.i.i.e.{ k *                                               ",
"                                          ( P.Y.C.z.w.#./ W P ~ #.w.i.e.U ; :                                           ",
"                                        ) U.J.i.>.|  .*.} ` z 6 = 9 B >.i...4 &                                         ",
"                                      g.U.C.r.| %.9.d.d.d.d.d.p._ 2 . 6 Q e.-.3 &                                       ",
"                                    R m.C.w./ 7.d.d.d.d.d.u.p.s.d.4.h . + N w.' $ :                                     ",
"                                    >.e.e./ c.F.f.d.d.d.s.D F d.d.d.p.l . X N e.b o                                     ",
"                                  / e.e.| k.E.Y.d.d.s.2.! u p ^ 8.d.d.p.h . + Q <.3 @                                   ",
"                                  ,.i.:.X.T.T.f.d.y.D y p y y p y K p.d.5.2 . < >.J X                                   ",
"                                Q e.e.| S.!.N.d.d.K t ^ p.v C p.E r ! d.d.m . X K &.$ &                                 ",
"                                @.e.w.X.W.L.d.d.p.p p a.s.v Z d.y.p D d.d.5.% . 0 q.q O                                 ",
"                                >.i.;.j.!.Z.s.d.a.g y 7.d.V Z d.d.t.y.d.d.s.j . * #.z X                                 ",
"                                w.i.o.n.!.M.d.d.d.%.y i ! p D d.d.d.d.d.d.d.n . o / I .                                 ",
"                              A w.e.| A.Q.f.d.d.d.d.8.F i r u E 6.s.d.d.d.d._ . X Q T X >                               ",
"                              A w.i.| A.Q.f.s.d.d.d.d.d.y.d u p y G p.d.d.d.` . X Q T X >                               ",
"                                w.i.o.n.!.M.d.d.d.d.d.d.s.V D a.! r K d.d.d.M . o / U .                                 ",
"                                >.i.;.l.~.B.d.d.s.^ ! s.s.v Z d.p.p p a.d.d.x . * =.n o                                 ",
"                                @.e.w.X.Y.Z.s.d.a.s u y.d.v N d.u.i d a.d.a.8 . 0 w.w O                                 ",
"                                ~ e.e.| u.d.d.d.d.[ r C $.d V $.C t [ d.d.1.+ X K 0.- &                                 ",
"                                  ,.e.>...s.d.d.d.s. .d u t t u g ' s.d.d.l . 4 ,.U o                                   ",
"                                  / z.e.| 7.d.d.s.d.d.a.t.p v t.p.d.d.d.} # + Q w.q &                                   ",
"                                    >.e.w.| t.d.d.d.d.d.d.D G d.d.d.d.t.5 X N e.Y +                                     ",
"                                    R w.i.w./ 7.d.d.d.d.d.u.y.d.d.d.4.8 + Z w.&.3 :                                     ",
"                                      ~ e.i.w.@...y.s.d.d.d.d.d.s.] 6 4 ! e.0.w &                                       ",
"                                        ~ w.e.e.,./  .6.t.y.t.2.H a B >.i.0.k ,                                         ",
"                                          R >.z.i.e.q.=.@.| | | O.w.i.i.O.w :                                           ",
"                                              / ,.e.i.i.i.i.e.i.i.i.<.J 9                                               ",
"                                                  ~ @.>.q.w.w.w.+.P a                                                   ",
"                                                          A A                                                           ",
"                                                                                                                        ",
"                                                                                                                        ",
"                                                                                                                        ",
"                                                                                                                        ",
"                                                                                                                        ",
"                                                                                                                        ",
"                                                                                                                        ",
"                                                                                                                        ",
"                                                                                                                        ",
"                                                                                                                        ",
"                                                                                                                        ",
"                                                                                                                        ",
"                                                                                                                        ",
"                                                                                                                        ",
"                                                                                                                        "
};
