/* XPM */
static char *hug__1_1704904936[] = {
/* columns rows colors chars-per-pixel */
"60 60 186 2 ",
"   c None",
".  c #000000",
"X  c #0B0806",
"o  c #110D0B",
"O  c #1A1316",
"+  c #22171F",
"@  c #241A23",
"#  c #2C1D32",
"$  c #362730",
"%  c #45352B",
"&  c #49382D",
"*  c #644D3E",
"=  c #795737",
"-  c #3D2845",
";  c #462E4F",
":  c #54385E",
">  c #543866",
",  c #573A68",
"<  c #5A3D6A",
"1  c #563965",
"2  c #6C5444",
"3  c #5F406D",
"4  c #61416E",
"5  c #664573",
"6  c #684674",
"7  c #6C4A75",
"8  c #6E4E7A",
"9  c #664C70",
"0  c #704F7B",
"q  c #74537B",
"w  c #79567A",
"e  c #A56218",
"r  c #8F5B2E",
"t  c #87603E",
"y  c #926133",
"u  c #AF702F",
"i  c #BD7931",
"p  c #D97D16",
"a  c #E67C2D",
"s  c #9F367C",
"d  c #A0377B",
"f  c #A33B7D",
"g  c #B3595B",
"h  c #876854",
"j  c #98765F",
"k  c #BE684F",
"l  c #805A7A",
"z  c #B9556F",
"x  c #BA5060",
"c  c #A7417D",
"v  c #B55271",
"b  c #AF4864",
"n  c #886379",
"m  c #916A7E",
"M  c #8B7976",
"N  c #D3735B",
"B  c #D77858",
"V  c #CF674B",
"C  c #C15F69",
"Z  c #C66767",
"A  c #D27A71",
"S  c #F68D1D",
"D  c #EC8818",
"F  c #ED8427",
"G  c #F08724",
"H  c #F48B22",
"J  c #F1953E",
"K  c #F89D3F",
"L  c #F79937",
"P  c #F89427",
"I  c #AB8368",
"U  c #B78E72",
"Y  c #BD9275",
"T  c #DE8053",
"R  c #E3864F",
"E  c #EB8E49",
"W  c #E6894C",
"Q  c #EF9346",
"!  c #F19545",
"~  c #F69B41",
"^  c #F89E42",
"/  c #F49B4C",
"(  c #E18350",
")  c #F8A149",
"_  c #F8A75A",
"`  c #C29679",
"'  c #D58078",
"]  c #EC9A67",
"[  c #F1AA6F",
"{  c #E9A87A",
"}  c #F8B57B",
"|  c #7B5D85",
" . c #8E258F",
".. c #8B2984",
"X. c #90278E",
"o. c #932B8C",
"O. c #962E87",
"+. c #9B3484",
"@. c #973088",
"#. c #8D2390",
"$. c #805D80",
"%. c #AF599B",
"&. c #846282",
"*. c #8E6C87",
"=. c #83698D",
"-. c #997589",
";. c #886E91",
":. c #8C7495",
">. c #957E9D",
",. c #A67B85",
"<. c #A27F90",
"1. c #97819F",
"2. c #AA8F80",
"3. c #AA8694",
"4. c #B08D97",
"5. c #BE999C",
"6. c #B99296",
"7. c #B28584",
"8. c #9C87A4",
"9. c #A38EAA",
"0. c #A490AB",
"q. c #AB98B2",
"w. c #B19FB7",
"e. c #B6A6BC",
"r. c #CD9B8E",
"t. c #D19F90",
"y. c #D9A78A",
"u. c #DDA993",
"i. c #DAA898",
"p. c #E5AB88",
"a. c #E4B18F",
"s. c #F7B985",
"d. c #E2AD95",
"f. c #E1A19C",
"g. c #E5B194",
"h. c #EBB595",
"j. c #E5B49C",
"k. c #F7BF9A",
"l. c #F8BF9A",
"z. c #F4BC95",
"x. c #CD88A4",
"c. c #CBA7A4",
"v. c #CEAAA6",
"b. c #C5A1A1",
"n. c #D0ACA7",
"m. c #DBB6AB",
"M. c #C6B3BC",
"N. c #F0BFA2",
"B. c #E2BDB0",
"V. c #F7C19D",
"C. c #F9C09B",
"Z. c #FCC595",
"A. c #EDC1A9",
"S. c #F3C1A2",
"D. c #FBCCAC",
"F. c #FAC5A0",
"G. c #E9C3B3",
"H. c #E3C0B1",
"J. c #F2CCB5",
"K. c #F9CEB2",
"L. c #F3CFB9",
"P. c #F8CFBB",
"I. c #FAD5BB",
"U. c #FED9BE",
"Y. c #F8D2B7",
"T. c #BFB2C4",
"R. c #C4B8C8",
"E. c #D3CCD6",
"W. c #DAD3DD",
"Q. c #C8C3CA",
"!. c #FDDAC1",
"~. c #F8DDCB",
"^. c #F0DBD1",
"/. c #E6DADC",
"(. c #FEE1CC",
"). c #FCE4D3",
"_. c #FDE9DC",
"`. c #E1DBE4",
"'. c #EDECED",
"]. c #E8E3EA",
"[. c #F7E9E1",
"{. c #EFEBF0",
"}. c #F2EFF3",
"|. c #F2F2F2",
" X c #FEFEFE",
".X c #FEF9F6",
/* pixels */
"                                                                                                                        ",
"                                                                                                                        ",
"                                                                                                                        ",
"                                                                                                                        ",
"                                                                5     6       5 7                                       ",
"                                                          5 6   7 6 6 6   5 6 6 5                                       ",
"                                                    5 6 6 6 6 6 5 6 6 6 6 6 5 6 5 6                                     ",
"                                                6 6 5 6 6 6 6 5 5 6 6 6 6 6 5 5 6 6 5                                   ",
"                                        5 < > > 4 6 6 5 5 5 5 5 6 5 5 6 6 5 , 3 4 5                                     ",
"                                        < > > > > 4 5 8 &.3.5.c.c.5.,.w 3 > > > > 4 5 5 6 6                             ",
"                                      > > > > > > 6 -.v.L.U.U.I.D.V.k.h.7.3 > > > > < 4                                 ",
"                                      > > > > < w b.P.!.U.U.K.V.k.k.k.k.C.y.n > > > > 5 6                               ",
"                                    > > > > < $.m.U.U.U.I.D.l.z.k.C.k.k.k.C.h.m > > > , 6 6                             ",
"                                    , , 5 ;.T./._.(.U.U.D.C.k.C.z.V.k.k.V.P._.[.R.=., < 5 6                             ",
"                                    6 6 9.|. X X X X).K.C.k.k.k.k.k.V.C.). X X X X|.8.6 5 6                             ",
"                                    5 =.{. X X X X X.XK.z.k.C.k.C.C.z.P..X X X X X X].| 5 5                             ",
"                                  5 5 q. X X X X X X X~.z.k.k.k.k.k.k.). X X X X X X X8.5 5                             ",
"                                  6 5 e.W.'. X X X X X(.z.V.C.k.k.l.k.^.R.`. X X X X X9.5 6                             ",
"                                  6 5 =.q w. X X X X.XL.k.C.k.k.k.k.k.m.8 q. X X X X|.:.5 5                             ",
"                                    5 7 1.W. X X X X[.S.k.k.k.k.k.k.k.N.M.`. X X X XR.0                                 ",
"                                    6 5 :.E.|.|.|.Q.2.z.k.C.C.C.k.k.V.a.M E.'.|.].R.| 5 5                               ",
"                                    6 5 5 | >.9.>.9 + 2 y.V.C.C.V.V.` % # q :.1.;.7 5 6 6                               ",
"                                    6 6 5 5 5 5 5 5 1 # $ h U ` I 2 @ - 5 6 5 5 5 5 5 6 7                               ",
"                                5 5 6 6 5 5 5 6 7 5 7 4 ; @ O O O # : 6 6 6 5 3 5 5 5 6 5 5                             ",
"                                6 6 6 6 6 6 7 6 5 5 5 6 6 5 3 1 4 6 6 5 5 < , 3 5 6 6 6 6 6 7                           ",
"                                  6 6 6 6 5 3 , 4 5 6 6 6 6 5 7 6 6 6 5 , , 3 5 6 6 6 6 6 6                             ",
"                                  5 6 6 6 6 5 3 , , 3 5 4 5 5 4 3 < > , 5 5 6 6 6 6 6 6 6 6                             ",
"                                5 5 6 6 6 5 6 6 5 4 < , , , , , < < 5 5 6 6 6 6 6 6 6 6 6 6 5                           ",
"                                6 5 6 6 6 6 6 6 6 6 6 5 5 5 5 5 6 6 6 6 6 6 6 6 6 6 6 6 6 6 5                           ",
"                                  6 6 6 6 6 6 6 6 6 6 6 6 6 6 6 6 6 6 6 6 6 6 6 6 6 6 6 5 7                             ",
"                                6 6 6 6 6 6 6 6 6 6 6 6 6 6 6 6 6 6 6 6 6 6 6 6 6 6 6 6 6 6                             ",
"                                6 6 6 6 6 6 6 6 6 6 6 6 6 6 6 6 6 6 6 6 6 6 6 6 6 6 6 6 5 5                             ",
"                                  6 6 6 6 6 6 6 6 6 6 6 6 6 5 6 6 6 6 6 6 6 6 6 6 6 6 6 6 6                             ",
"                                  6 6 6 6 6 6 6 6 6 6 6 6 6 5 6 6 6 6 6 6 6 6 6 6 6 6 6 6 6                             ",
"                                  5   5 5 5 6 6 6 6 6 6 7 4.-.5 5 5 5 5 5 5 5 5 5 6 6 6 5 5                             ",
"                                      5 7 7 5 6 5 6 5 6 &.L.v.5 5 5 q | *.-.<.<.*.q 5 5                                 ",
"                                    d.q m -.6 6 7 6 7 6.G.!.v.*.4.c.H.J.I.I.U.!.I.m.8 6                                 ",
"                            C.  k.k.k.r.d.u.w 6 ,.n $.L.U.!.I.P.U.U.U.U.U.U.U.U.U.U.                                    ",
"                          k.k.k.k.k.l.l.z.l.t.,.d.d.6.I.U.U.U.U.U.U.U.U.U.U.U.I.U.U.                                    ",
"                          k.k.k.k.k.k.l.    V.l.C.h.g.K.U.U.K.A.S.z.Z.Z.f.x.G.G.P.                                      ",
"                          l.k.k.            k.l.h.h.u.i.j.N.g.p.Z W ^ ) ] ' i.B.I.                                      ",
"                                            k.k.h.d.u.i.d.g.{ / / ! ~ ~ ) _ s.B.U.                                      ",
"                                            l.k.l.h.d.d.y.[ ^ ^ ^ ^ K K ) / A x.L.                                      ",
"                                            k.k.l.l.p.{ _ ! R W E Q ~ K ! v X.X.%.                                      ",
"                                            s.} [ K L K K R @.@.+.f Z ! ~ Z f +.O.                                      ",
"                                            C V V a S L ^ E +. .X.z B ~ ~ K ~ E (                                       ",
"                                            X.X.X.d G P ~ ~ B c v ! K K ! ( ( ( R                                       ",
"                                            d d d b H S J ^ ^ Q ! K ^ ~ v o.o.o.+.                                      ",
"                                              G F D G x s v N ! K K K ! v X.X. .                                        ",
"                                              S D D H b ..X.o.B K ~ ~ ^ ! k g Z                                         ",
"                                                t y e r     v R     ^ J u = = i                                         ",
"                                                C.a.Y y.                I g.a.                                          ",
"                                                C.z.C.C.                C.k.l.                                          ",
"                                              k.C.C.C.C.                C.l.k.k.                                        ",
"                                            y.k.C.C.g.* . . . . . . . o U z.k.C.h.                                      ",
"                                            % j h 2 % X . . . . . . . . O % 2 h * X                                     ",
"                                                                                                                        ",
"                                                                                                                        ",
"                                                                                                                        ",
"                                                                                                                        "
};
